%TF.GenerationSoftware,KiCad,Pcbnew,8.0.2*%
%TF.CreationDate,2025-03-07T16:53:29+01:00*%
%TF.ProjectId,pico-vga-devboard,7069636f-2d76-4676-912d-646576626f61,rev?*%
%TF.SameCoordinates,Original*%
%TF.FileFunction,Soldermask,Bot*%
%TF.FilePolarity,Negative*%
%FSLAX46Y46*%
G04 Gerber Fmt 4.6, Leading zero omitted, Abs format (unit mm)*
G04 Created by KiCad (PCBNEW 8.0.2) date 2025-03-07 16:53:29*
%MOMM*%
%LPD*%
G01*
G04 APERTURE LIST*
%ADD10C,3.200000*%
%ADD11C,1.550000*%
%ADD12C,4.800000*%
%ADD13O,1.800000X1.800000*%
%ADD14O,1.500000X1.500000*%
%ADD15O,1.700000X1.700000*%
%ADD16R,1.700000X1.700000*%
%ADD17C,2.000000*%
G04 APERTURE END LIST*
D10*
%TO.C,H3*%
X119888000Y-99568000D03*
%TD*%
D11*
%TO.C,J2*%
X109220000Y-71132000D03*
X109220000Y-73412000D03*
X109220000Y-75692000D03*
X109220000Y-77972000D03*
X109220000Y-80252000D03*
X111760000Y-69992000D03*
X111760000Y-72272000D03*
X111760000Y-74552000D03*
X111760000Y-76832000D03*
X111760000Y-79112000D03*
X114300000Y-71132000D03*
X114300000Y-73412000D03*
X114300000Y-75692000D03*
X114300000Y-77972000D03*
X114300000Y-80252000D03*
D12*
X111760000Y-87622000D03*
X111760000Y-62622000D03*
%TD*%
D10*
%TO.C,H2*%
X119888000Y-51308000D03*
%TD*%
D13*
%TO.C,U1*%
X82365000Y-50930000D03*
D14*
X82665000Y-53960000D03*
X87515000Y-53960000D03*
D13*
X87815000Y-50930000D03*
D15*
X76200000Y-50800000D03*
X76200000Y-53340000D03*
D16*
X76200000Y-55880000D03*
D15*
X76200000Y-58420000D03*
X76200000Y-60960000D03*
X76200000Y-63500000D03*
X76200000Y-66040000D03*
D16*
X76200000Y-68580000D03*
D15*
X76200000Y-71120000D03*
X76200000Y-73660000D03*
X76200000Y-76200000D03*
X76200000Y-78740000D03*
D16*
X76200000Y-81280000D03*
D15*
X76200000Y-83820000D03*
X76200000Y-86360000D03*
X76200000Y-88900000D03*
X76200000Y-91440000D03*
D16*
X76200000Y-93980000D03*
D15*
X76200000Y-96520000D03*
X76200000Y-99060000D03*
X93980000Y-99060000D03*
X93980000Y-96520000D03*
D16*
X93980000Y-93980000D03*
D15*
X93980000Y-91440000D03*
X93980000Y-88900000D03*
X93980000Y-86360000D03*
X93980000Y-83820000D03*
D16*
X93980000Y-81280000D03*
D15*
X93980000Y-78740000D03*
X93980000Y-76200000D03*
X93980000Y-73660000D03*
X93980000Y-71120000D03*
D16*
X93980000Y-68580000D03*
D15*
X93980000Y-66040000D03*
X93980000Y-63500000D03*
X93980000Y-60960000D03*
X93980000Y-58420000D03*
D16*
X93980000Y-55880000D03*
D15*
X93980000Y-53340000D03*
X93980000Y-50800000D03*
X82550000Y-98830000D03*
D16*
X85090000Y-98830000D03*
D15*
X87630000Y-98830000D03*
%TD*%
D10*
%TO.C,H4*%
X48260000Y-99568000D03*
%TD*%
D16*
%TO.C,J3*%
X56388000Y-51308000D03*
D15*
X58928000Y-51308000D03*
X61468000Y-51308000D03*
X64008000Y-51308000D03*
%TD*%
D17*
%TO.C,SW1*%
X103176000Y-51598000D03*
X109676000Y-51598000D03*
X103176000Y-56098000D03*
X109676000Y-56098000D03*
%TD*%
D16*
%TO.C,J1*%
X47244000Y-60960000D03*
D15*
X47244000Y-63500000D03*
X47244000Y-66040000D03*
X47244000Y-68580000D03*
X47244000Y-71120000D03*
X47244000Y-73660000D03*
X47244000Y-76200000D03*
X47244000Y-78740000D03*
X47244000Y-81280000D03*
X47244000Y-83820000D03*
X47244000Y-86360000D03*
X47244000Y-88900000D03*
%TD*%
D10*
%TO.C,H1*%
X48260000Y-51308000D03*
%TD*%
M02*
