%TF.GenerationSoftware,KiCad,Pcbnew,8.0.2*%
%TF.CreationDate,2025-03-07T16:53:29+01:00*%
%TF.ProjectId,pico-vga-devboard,7069636f-2d76-4676-912d-646576626f61,rev?*%
%TF.SameCoordinates,Original*%
%TF.FileFunction,Copper,L1,Top*%
%TF.FilePolarity,Positive*%
%FSLAX46Y46*%
G04 Gerber Fmt 4.6, Leading zero omitted, Abs format (unit mm)*
G04 Created by KiCad (PCBNEW 8.0.2) date 2025-03-07 16:53:29*
%MOMM*%
%LPD*%
G01*
G04 APERTURE LIST*
G04 Aperture macros list*
%AMRoundRect*
0 Rectangle with rounded corners*
0 $1 Rounding radius*
0 $2 $3 $4 $5 $6 $7 $8 $9 X,Y pos of 4 corners*
0 Add a 4 corners polygon primitive as box body*
4,1,4,$2,$3,$4,$5,$6,$7,$8,$9,$2,$3,0*
0 Add four circle primitives for the rounded corners*
1,1,$1+$1,$2,$3*
1,1,$1+$1,$4,$5*
1,1,$1+$1,$6,$7*
1,1,$1+$1,$8,$9*
0 Add four rect primitives between the rounded corners*
20,1,$1+$1,$2,$3,$4,$5,0*
20,1,$1+$1,$4,$5,$6,$7,0*
20,1,$1+$1,$6,$7,$8,$9,0*
20,1,$1+$1,$8,$9,$2,$3,0*%
G04 Aperture macros list end*
%TA.AperFunction,SMDPad,CuDef*%
%ADD10R,0.500000X0.800000*%
%TD*%
%TA.AperFunction,SMDPad,CuDef*%
%ADD11R,0.400000X0.800000*%
%TD*%
%TA.AperFunction,SMDPad,CuDef*%
%ADD12RoundRect,0.150000X-0.587500X-0.150000X0.587500X-0.150000X0.587500X0.150000X-0.587500X0.150000X0*%
%TD*%
%TA.AperFunction,ComponentPad*%
%ADD13C,1.550000*%
%TD*%
%TA.AperFunction,ComponentPad*%
%ADD14C,4.800000*%
%TD*%
%TA.AperFunction,SMDPad,CuDef*%
%ADD15RoundRect,0.250000X-0.350000X-0.450000X0.350000X-0.450000X0.350000X0.450000X-0.350000X0.450000X0*%
%TD*%
%TA.AperFunction,ComponentPad*%
%ADD16O,1.700000X1.700000*%
%TD*%
%TA.AperFunction,SMDPad,CuDef*%
%ADD17R,3.500000X1.700000*%
%TD*%
%TA.AperFunction,ComponentPad*%
%ADD18R,1.700000X1.700000*%
%TD*%
%TA.AperFunction,SMDPad,CuDef*%
%ADD19R,1.700000X3.500000*%
%TD*%
%TA.AperFunction,SMDPad,CuDef*%
%ADD20RoundRect,0.250000X0.450000X-0.350000X0.450000X0.350000X-0.450000X0.350000X-0.450000X-0.350000X0*%
%TD*%
%TA.AperFunction,ComponentPad*%
%ADD21C,2.000000*%
%TD*%
%TA.AperFunction,ViaPad*%
%ADD22C,0.600000*%
%TD*%
%TA.AperFunction,Conductor*%
%ADD23C,0.200000*%
%TD*%
G04 APERTURE END LIST*
D10*
%TO.P,RN3,1,R1.1*%
%TO.N,LD4*%
X62802500Y-73874000D03*
D11*
%TO.P,RN3,2,R2.1*%
%TO.N,D4*%
X62002500Y-73874000D03*
%TO.P,RN3,3,R3.1*%
%TO.N,LD3*%
X61202500Y-73874000D03*
D10*
%TO.P,RN3,4,R4.1*%
%TO.N,D3*%
X60402500Y-73874000D03*
%TO.P,RN3,5,R4.2*%
%TO.N,+5V*%
X60402500Y-75674000D03*
D11*
%TO.P,RN3,6,R3.2*%
%TO.N,+3V3*%
X61202500Y-75674000D03*
%TO.P,RN3,7,R2.2*%
%TO.N,+5V*%
X62002500Y-75674000D03*
D10*
%TO.P,RN3,8,R1.2*%
%TO.N,+3V3*%
X62802500Y-75674000D03*
%TD*%
D12*
%TO.P,Q2,1,G*%
%TO.N,+3V3*%
X54882500Y-65664000D03*
%TO.P,Q2,2,S*%
%TO.N,LD2*%
X54882500Y-67564000D03*
%TO.P,Q2,3,D*%
%TO.N,D2*%
X56757500Y-66614000D03*
%TD*%
D13*
%TO.P,J2,1*%
%TO.N,R*%
X109220000Y-71132000D03*
%TO.P,J2,2*%
%TO.N,G*%
X109220000Y-73412000D03*
%TO.P,J2,3*%
%TO.N,B*%
X109220000Y-75692000D03*
%TO.P,J2,4*%
%TO.N,unconnected-(J2-Pad4)*%
X109220000Y-77972000D03*
%TO.P,J2,5*%
%TO.N,GND*%
X109220000Y-80252000D03*
%TO.P,J2,6*%
X111760000Y-69992000D03*
%TO.P,J2,7*%
X111760000Y-72272000D03*
%TO.P,J2,8*%
X111760000Y-74552000D03*
%TO.P,J2,9*%
%TO.N,unconnected-(J2-Pad9)*%
X111760000Y-76832000D03*
%TO.P,J2,10*%
%TO.N,GND*%
X111760000Y-79112000D03*
%TO.P,J2,11*%
%TO.N,unconnected-(J2-Pad11)*%
X114300000Y-71132000D03*
%TO.P,J2,12*%
%TO.N,unconnected-(J2-Pad12)*%
X114300000Y-73412000D03*
%TO.P,J2,13*%
%TO.N,HSYNC*%
X114300000Y-75692000D03*
%TO.P,J2,14*%
%TO.N,VSYNC*%
X114300000Y-77972000D03*
%TO.P,J2,15*%
%TO.N,unconnected-(J2-Pad15)*%
X114300000Y-80252000D03*
D14*
%TO.P,J2,16*%
%TO.N,N/C*%
X111760000Y-87622000D03*
%TO.P,J2,17*%
X111760000Y-62622000D03*
%TD*%
D15*
%TO.P,R6,1*%
%TO.N,Net-(U1-GPIO19)*%
X102140000Y-88392000D03*
%TO.P,R6,2*%
%TO.N,G*%
X104140000Y-88392000D03*
%TD*%
D12*
%TO.P,Q1,1,G*%
%TO.N,+3V3*%
X54882500Y-57536000D03*
%TO.P,Q1,2,S*%
%TO.N,LD0*%
X54882500Y-59436000D03*
%TO.P,Q1,3,D*%
%TO.N,D0*%
X56757500Y-58486000D03*
%TD*%
%TO.P,Q10,1,G*%
%TO.N,+3V3*%
X66215500Y-89540000D03*
%TO.P,Q10,2,S*%
%TO.N,LD7*%
X66215500Y-91440000D03*
%TO.P,Q10,3,D*%
%TO.N,D7*%
X68090500Y-90490000D03*
%TD*%
%TO.P,Q3,1,G*%
%TO.N,+3V3*%
X54882500Y-73792000D03*
%TO.P,Q3,2,S*%
%TO.N,LD4*%
X54882500Y-75692000D03*
%TO.P,Q3,3,D*%
%TO.N,D4*%
X56757500Y-74742000D03*
%TD*%
D10*
%TO.P,RN4,1,R1.1*%
%TO.N,LD6*%
X62802500Y-81894000D03*
D11*
%TO.P,RN4,2,R2.1*%
%TO.N,D6*%
X62002500Y-81894000D03*
%TO.P,RN4,3,R3.1*%
%TO.N,LD5*%
X61202500Y-81894000D03*
D10*
%TO.P,RN4,4,R4.1*%
%TO.N,D5*%
X60402500Y-81894000D03*
%TO.P,RN4,5,R4.2*%
%TO.N,+5V*%
X60402500Y-83694000D03*
D11*
%TO.P,RN4,6,R3.2*%
%TO.N,+3V3*%
X61202500Y-83694000D03*
%TO.P,RN4,7,R2.2*%
%TO.N,+5V*%
X62002500Y-83694000D03*
D10*
%TO.P,RN4,8,R1.2*%
%TO.N,+3V3*%
X62802500Y-83694000D03*
%TD*%
%TO.P,RN1,1,R1.1*%
%TO.N,LD0*%
X62802500Y-57774000D03*
D11*
%TO.P,RN1,2,R2.1*%
%TO.N,D0*%
X62002500Y-57774000D03*
%TO.P,RN1,3,R3.1*%
%TO.N,L_RX*%
X61202500Y-57774000D03*
D10*
%TO.P,RN1,4,R4.1*%
%TO.N,TX*%
X60402500Y-57774000D03*
%TO.P,RN1,5,R4.2*%
%TO.N,+5V*%
X60402500Y-59574000D03*
D11*
%TO.P,RN1,6,R3.2*%
%TO.N,+3V3*%
X61202500Y-59574000D03*
%TO.P,RN1,7,R2.2*%
%TO.N,+5V*%
X62002500Y-59574000D03*
D10*
%TO.P,RN1,8,R1.2*%
%TO.N,+3V3*%
X62802500Y-59574000D03*
%TD*%
%TO.P,RN2,1,R1.1*%
%TO.N,LD2*%
X62802500Y-65854000D03*
D11*
%TO.P,RN2,2,R2.1*%
%TO.N,D2*%
X62002500Y-65854000D03*
%TO.P,RN2,3,R3.1*%
%TO.N,LD1*%
X61202500Y-65854000D03*
D10*
%TO.P,RN2,4,R4.1*%
%TO.N,D1*%
X60402500Y-65854000D03*
%TO.P,RN2,5,R4.2*%
%TO.N,+5V*%
X60402500Y-67654000D03*
D11*
%TO.P,RN2,6,R3.2*%
%TO.N,+3V3*%
X61202500Y-67654000D03*
%TO.P,RN2,7,R2.2*%
%TO.N,+5V*%
X62002500Y-67654000D03*
D10*
%TO.P,RN2,8,R1.2*%
%TO.N,+3V3*%
X62802500Y-67654000D03*
%TD*%
D12*
%TO.P,Q7,1,G*%
%TO.N,+3V3*%
X66294000Y-65664000D03*
%TO.P,Q7,2,S*%
%TO.N,LD1*%
X66294000Y-67564000D03*
%TO.P,Q7,3,D*%
%TO.N,D1*%
X68169000Y-66614000D03*
%TD*%
D15*
%TO.P,R4,1*%
%TO.N,Net-(U1-GPIO21)*%
X102172000Y-80264000D03*
%TO.P,R4,2*%
%TO.N,R*%
X104172000Y-80264000D03*
%TD*%
D12*
%TO.P,Q6,1,G*%
%TO.N,+3V3*%
X66294000Y-57536000D03*
%TO.P,Q6,2,S*%
%TO.N,L_RX*%
X66294000Y-59436000D03*
%TO.P,Q6,3,D*%
%TO.N,TX*%
X68169000Y-58486000D03*
%TD*%
D16*
%TO.P,U1,1,GPIO0*%
%TO.N,L_TX*%
X76200000Y-50800000D03*
D17*
X75300000Y-50800000D03*
D16*
%TO.P,U1,2,GPIO1*%
%TO.N,L_RX*%
X76200000Y-53340000D03*
D17*
X75300000Y-53340000D03*
D18*
%TO.P,U1,3,GND*%
%TO.N,GND*%
X76200000Y-55880000D03*
D17*
X75300000Y-55880000D03*
D16*
%TO.P,U1,4,GPIO2*%
%TO.N,L_LATCH*%
X76200000Y-58420000D03*
D17*
X75300000Y-58420000D03*
D16*
%TO.P,U1,5,GPIO3*%
%TO.N,unconnected-(U1-GPIO3-Pad5)_0*%
X76200000Y-60960000D03*
D17*
%TO.N,unconnected-(U1-GPIO3-Pad5)*%
X75300000Y-60960000D03*
D16*
%TO.P,U1,6,GPIO4*%
%TO.N,unconnected-(U1-GPIO4-Pad6)*%
X76200000Y-63500000D03*
D17*
%TO.N,unconnected-(U1-GPIO4-Pad6)_0*%
X75300000Y-63500000D03*
D16*
%TO.P,U1,7,GPIO5*%
%TO.N,unconnected-(U1-GPIO5-Pad7)_0*%
X76200000Y-66040000D03*
D17*
%TO.N,unconnected-(U1-GPIO5-Pad7)*%
X75300000Y-66040000D03*
D18*
%TO.P,U1,8,GND*%
%TO.N,GND*%
X76200000Y-68580000D03*
D17*
X75300000Y-68580000D03*
D16*
%TO.P,U1,9,GPIO6*%
%TO.N,unconnected-(U1-GPIO6-Pad9)_0*%
X76200000Y-71120000D03*
D17*
%TO.N,unconnected-(U1-GPIO6-Pad9)*%
X75300000Y-71120000D03*
D16*
%TO.P,U1,10,GPIO7*%
%TO.N,unconnected-(U1-GPIO7-Pad10)_0*%
X76200000Y-73660000D03*
D17*
%TO.N,unconnected-(U1-GPIO7-Pad10)*%
X75300000Y-73660000D03*
D16*
%TO.P,U1,11,GPIO8*%
%TO.N,LD0*%
X76200000Y-76200000D03*
D17*
X75300000Y-76200000D03*
D16*
%TO.P,U1,12,GPIO9*%
%TO.N,LD1*%
X76200000Y-78740000D03*
D17*
X75300000Y-78740000D03*
D18*
%TO.P,U1,13,GND*%
%TO.N,GND*%
X76200000Y-81280000D03*
D17*
X75300000Y-81280000D03*
D16*
%TO.P,U1,14,GPIO10*%
%TO.N,LD2*%
X76200000Y-83820000D03*
D17*
X75300000Y-83820000D03*
D16*
%TO.P,U1,15,GPIO11*%
%TO.N,LD3*%
X76200000Y-86360000D03*
D17*
X75300000Y-86360000D03*
D16*
%TO.P,U1,16,GPIO12*%
%TO.N,LD4*%
X76200000Y-88900000D03*
D17*
X75300000Y-88900000D03*
D16*
%TO.P,U1,17,GPIO13*%
%TO.N,LD5*%
X76200000Y-91440000D03*
D17*
X75300000Y-91440000D03*
D18*
%TO.P,U1,18,GND*%
%TO.N,GND*%
X76200000Y-93980000D03*
D17*
X75300000Y-93980000D03*
D16*
%TO.P,U1,19,GPIO14*%
%TO.N,LD6*%
X76200000Y-96520000D03*
D17*
X75300000Y-96520000D03*
D16*
%TO.P,U1,20,GPIO15*%
%TO.N,LD7*%
X76200000Y-99060000D03*
D17*
X75300000Y-99060000D03*
D16*
%TO.P,U1,21,GPIO16*%
%TO.N,HSYNC*%
X93980000Y-99060000D03*
D17*
X94880000Y-99060000D03*
D16*
%TO.P,U1,22,GPIO17*%
%TO.N,VSYNC*%
X93980000Y-96520000D03*
D17*
X94880000Y-96520000D03*
D18*
%TO.P,U1,23,GND*%
%TO.N,GND*%
X93980000Y-93980000D03*
D17*
X94880000Y-93980000D03*
D16*
%TO.P,U1,24,GPIO18*%
%TO.N,Net-(U1-GPIO18)*%
X93980000Y-91440000D03*
D17*
X94880000Y-91440000D03*
D16*
%TO.P,U1,25,GPIO19*%
%TO.N,Net-(U1-GPIO19)*%
X93980000Y-88900000D03*
D17*
X94880000Y-88900000D03*
D16*
%TO.P,U1,26,GPIO20*%
%TO.N,Net-(U1-GPIO20)*%
X93980000Y-86360000D03*
D17*
X94880000Y-86360000D03*
D16*
%TO.P,U1,27,GPIO21*%
%TO.N,Net-(U1-GPIO21)*%
X93980000Y-83820000D03*
D17*
X94880000Y-83820000D03*
D18*
%TO.P,U1,28,GND*%
%TO.N,GND*%
X93980000Y-81280000D03*
D17*
X94880000Y-81280000D03*
D16*
%TO.P,U1,29,GPIO22*%
%TO.N,unconnected-(U1-GPIO22-Pad29)*%
X93980000Y-78740000D03*
D17*
%TO.N,unconnected-(U1-GPIO22-Pad29)_0*%
X94880000Y-78740000D03*
D16*
%TO.P,U1,30,RUN*%
%TO.N,RUN*%
X93980000Y-76200000D03*
D17*
X94880000Y-76200000D03*
D16*
%TO.P,U1,31,GPIO26_ADC0*%
%TO.N,unconnected-(U1-GPIO26_ADC0-Pad31)_0*%
X93980000Y-73660000D03*
D17*
%TO.N,unconnected-(U1-GPIO26_ADC0-Pad31)*%
X94880000Y-73660000D03*
D16*
%TO.P,U1,32,GPIO27_ADC1*%
%TO.N,unconnected-(U1-GPIO27_ADC1-Pad32)*%
X93980000Y-71120000D03*
D17*
%TO.N,unconnected-(U1-GPIO27_ADC1-Pad32)_0*%
X94880000Y-71120000D03*
D18*
%TO.P,U1,33,AGND*%
%TO.N,GND*%
X93980000Y-68580000D03*
D17*
X94880000Y-68580000D03*
D16*
%TO.P,U1,34,GPIO28_ADC2*%
%TO.N,unconnected-(U1-GPIO28_ADC2-Pad34)_0*%
X93980000Y-66040000D03*
D17*
%TO.N,unconnected-(U1-GPIO28_ADC2-Pad34)*%
X94880000Y-66040000D03*
D16*
%TO.P,U1,35,ADC_VREF*%
%TO.N,unconnected-(U1-ADC_VREF-Pad35)*%
X93980000Y-63500000D03*
D17*
%TO.N,unconnected-(U1-ADC_VREF-Pad35)_0*%
X94880000Y-63500000D03*
D16*
%TO.P,U1,36,3V3*%
%TO.N,+3V3*%
X93980000Y-60960000D03*
D17*
X94880000Y-60960000D03*
D16*
%TO.P,U1,37,3V3_EN*%
%TO.N,unconnected-(U1-3V3_EN-Pad37)*%
X93980000Y-58420000D03*
D17*
%TO.N,unconnected-(U1-3V3_EN-Pad37)_0*%
X94880000Y-58420000D03*
D18*
%TO.P,U1,38,GND*%
%TO.N,GND*%
X93980000Y-55880000D03*
D17*
X94880000Y-55880000D03*
D16*
%TO.P,U1,39,VSYS*%
%TO.N,unconnected-(U1-VSYS-Pad39)*%
X93980000Y-53340000D03*
D17*
%TO.N,unconnected-(U1-VSYS-Pad39)_0*%
X94880000Y-53340000D03*
D16*
%TO.P,U1,40,VBUS*%
%TO.N,+5V*%
X93980000Y-50800000D03*
D17*
X94880000Y-50800000D03*
D16*
%TO.P,U1,41,SWCLK*%
%TO.N,unconnected-(U1-SWCLK-Pad41)_0*%
X82550000Y-98830000D03*
D19*
%TO.N,unconnected-(U1-SWCLK-Pad41)*%
X82550000Y-99730000D03*
D18*
%TO.P,U1,42,GND*%
%TO.N,GND*%
X85090000Y-98830000D03*
D19*
X85090000Y-99730000D03*
D16*
%TO.P,U1,43,SWDIO*%
%TO.N,unconnected-(U1-SWDIO-Pad43)*%
X87630000Y-98830000D03*
D19*
%TO.N,unconnected-(U1-SWDIO-Pad43)_0*%
X87630000Y-99730000D03*
%TD*%
D12*
%TO.P,Q8,1,G*%
%TO.N,+3V3*%
X66294000Y-73792000D03*
%TO.P,Q8,2,S*%
%TO.N,LD3*%
X66294000Y-75692000D03*
%TO.P,Q8,3,D*%
%TO.N,D3*%
X68169000Y-74742000D03*
%TD*%
D10*
%TO.P,RN5,1,R1.1*%
%TO.N,L_LATCH*%
X62802500Y-89914000D03*
D11*
%TO.P,RN5,2,R2.1*%
%TO.N,LATCH*%
X62002500Y-89914000D03*
%TO.P,RN5,3,R3.1*%
%TO.N,LD7*%
X61202500Y-89914000D03*
D10*
%TO.P,RN5,4,R4.1*%
%TO.N,D7*%
X60402500Y-89914000D03*
%TO.P,RN5,5,R4.2*%
%TO.N,+5V*%
X60402500Y-91714000D03*
D11*
%TO.P,RN5,6,R3.2*%
%TO.N,+3V3*%
X61202500Y-91714000D03*
%TO.P,RN5,7,R2.2*%
%TO.N,+5V*%
X62002500Y-91714000D03*
D10*
%TO.P,RN5,8,R1.2*%
%TO.N,+3V3*%
X62802500Y-91714000D03*
%TD*%
D20*
%TO.P,R3,1*%
%TO.N,+3V3*%
X113014000Y-54832000D03*
%TO.P,R3,2*%
%TO.N,RUN*%
X113014000Y-52832000D03*
%TD*%
D12*
%TO.P,Q9,1,G*%
%TO.N,+3V3*%
X66294000Y-81412000D03*
%TO.P,Q9,2,S*%
%TO.N,LD5*%
X66294000Y-83312000D03*
%TO.P,Q9,3,D*%
%TO.N,D5*%
X68169000Y-82362000D03*
%TD*%
D18*
%TO.P,J3,1,Pin_1*%
%TO.N,TX*%
X56388000Y-51308000D03*
D16*
%TO.P,J3,2,Pin_2*%
%TO.N,L_TX*%
X58928000Y-51308000D03*
%TO.P,J3,3,Pin_3*%
%TO.N,GND*%
X61468000Y-51308000D03*
%TO.P,J3,4,Pin_4*%
%TO.N,+5V*%
X64008000Y-51308000D03*
%TD*%
D12*
%TO.P,Q4,1,G*%
%TO.N,+3V3*%
X54804000Y-81526000D03*
%TO.P,Q4,2,S*%
%TO.N,LD6*%
X54804000Y-83426000D03*
%TO.P,Q4,3,D*%
%TO.N,D6*%
X56679000Y-82476000D03*
%TD*%
D21*
%TO.P,SW1,1,1*%
%TO.N,RUN*%
X103176000Y-51598000D03*
X109676000Y-51598000D03*
%TO.P,SW1,2,2*%
%TO.N,GND*%
X103176000Y-56098000D03*
X109676000Y-56098000D03*
%TD*%
D12*
%TO.P,Q5,1,G*%
%TO.N,+3V3*%
X54882500Y-89527000D03*
%TO.P,Q5,2,S*%
%TO.N,L_LATCH*%
X54882500Y-91427000D03*
%TO.P,Q5,3,D*%
%TO.N,LATCH*%
X56757500Y-90477000D03*
%TD*%
D15*
%TO.P,R7,1*%
%TO.N,Net-(U1-GPIO18)*%
X102108000Y-92456000D03*
%TO.P,R7,2*%
%TO.N,G*%
X104108000Y-92456000D03*
%TD*%
%TO.P,R5,1*%
%TO.N,Net-(U1-GPIO20)*%
X102140000Y-84328000D03*
%TO.P,R5,2*%
%TO.N,B*%
X104140000Y-84328000D03*
%TD*%
D18*
%TO.P,J1,1,Pin_1*%
%TO.N,D0*%
X47244000Y-60960000D03*
D16*
%TO.P,J1,2,Pin_2*%
%TO.N,D1*%
X47244000Y-63500000D03*
%TO.P,J1,3,Pin_3*%
%TO.N,D2*%
X47244000Y-66040000D03*
%TO.P,J1,4,Pin_4*%
%TO.N,D3*%
X47244000Y-68580000D03*
%TO.P,J1,5,Pin_5*%
%TO.N,D4*%
X47244000Y-71120000D03*
%TO.P,J1,6,Pin_6*%
%TO.N,D5*%
X47244000Y-73660000D03*
%TO.P,J1,7,Pin_7*%
%TO.N,D6*%
X47244000Y-76200000D03*
%TO.P,J1,8,Pin_8*%
%TO.N,D7*%
X47244000Y-78740000D03*
%TO.P,J1,9,Pin_9*%
%TO.N,LATCH*%
X47244000Y-81280000D03*
%TO.P,J1,10,Pin_10*%
%TO.N,GND*%
X47244000Y-83820000D03*
%TO.P,J1,11,Pin_11*%
%TO.N,+3V3*%
X47244000Y-86360000D03*
%TO.P,J1,12,Pin_12*%
%TO.N,+5V*%
X47244000Y-88900000D03*
%TD*%
D22*
%TO.N,+5V*%
X60452000Y-94488000D03*
X60452000Y-86106000D03*
X60452000Y-78232000D03*
X60452000Y-70104000D03*
X60452000Y-62484000D03*
%TO.N,L_LATCH*%
X63562600Y-90264000D03*
%TO.N,LD0*%
X60730700Y-56067800D03*
X63576100Y-58157000D03*
%TO.N,+3V3*%
X62738000Y-94488000D03*
X62738000Y-62484000D03*
X62738000Y-70104000D03*
X62738000Y-78232000D03*
X62992000Y-86106000D03*
X64897400Y-81288600D03*
%TD*%
D23*
%TO.N,+5V*%
X92075000Y-50800000D02*
X93980000Y-50800000D01*
X90170000Y-52705000D02*
X92075000Y-50800000D01*
X64858000Y-52158000D02*
X80098000Y-52158000D01*
X80098000Y-52158000D02*
X80645000Y-52705000D01*
X64008000Y-51308000D02*
X64858000Y-52158000D01*
X80645000Y-52705000D02*
X90170000Y-52705000D01*
%TO.N,Net-(U1-GPIO18)*%
X97946100Y-92456000D02*
X96930100Y-91440000D01*
X102108000Y-92456000D02*
X97946100Y-92456000D01*
X93980000Y-91440000D02*
X96930100Y-91440000D01*
%TO.N,G*%
X104108000Y-88424000D02*
X104108000Y-92456000D01*
X104140000Y-88392000D02*
X104108000Y-88424000D01*
X107337700Y-75294300D02*
X109220000Y-73412000D01*
X107337700Y-79025800D02*
X107337700Y-75294300D01*
X103238600Y-83124900D02*
X107337700Y-79025800D01*
X103238600Y-87490600D02*
X103238600Y-83124900D01*
X104140000Y-88392000D02*
X103238600Y-87490600D01*
%TO.N,Net-(U1-GPIO19)*%
X95638100Y-88392000D02*
X95130100Y-88900000D01*
X102140000Y-88392000D02*
X95638100Y-88392000D01*
X93980000Y-88900000D02*
X95130100Y-88900000D01*
%TO.N,B*%
X108015200Y-76896800D02*
X109220000Y-75692000D01*
X108015200Y-80452800D02*
X108015200Y-76896800D01*
X104140000Y-84328000D02*
X108015200Y-80452800D01*
%TO.N,Net-(U1-GPIO20)*%
X100108000Y-86360000D02*
X93980000Y-86360000D01*
X102140000Y-84328000D02*
X100108000Y-86360000D01*
%TO.N,Net-(U1-GPIO21)*%
X98616000Y-83820000D02*
X93980000Y-83820000D01*
X102172000Y-80264000D02*
X98616000Y-83820000D01*
%TO.N,R*%
X104172000Y-76180000D02*
X109220000Y-71132000D01*
X104172000Y-80264000D02*
X104172000Y-76180000D01*
%TO.N,L_TX*%
X72588000Y-50138100D02*
X73249900Y-50800000D01*
X60960500Y-50138100D02*
X72588000Y-50138100D01*
X60078100Y-51020500D02*
X60960500Y-50138100D01*
X60078100Y-51308000D02*
X60078100Y-51020500D01*
X58928000Y-51308000D02*
X60078100Y-51308000D01*
X76200000Y-50800000D02*
X73249900Y-50800000D01*
%TO.N,GND*%
X109676000Y-56098000D02*
X103176000Y-56098000D01*
X95348100Y-56098000D02*
X95130100Y-55880000D01*
X103176000Y-56098000D02*
X95348100Y-56098000D01*
X93980000Y-55880000D02*
X95130100Y-55880000D01*
X81050000Y-97679900D02*
X77350100Y-93980000D01*
X85090000Y-97679900D02*
X81050000Y-97679900D01*
X85090000Y-98830000D02*
X85090000Y-97679900D01*
X76200000Y-93980000D02*
X77350100Y-93980000D01*
X88789900Y-93980000D02*
X85090000Y-97679900D01*
X93980000Y-93980000D02*
X88789900Y-93980000D01*
X111760000Y-72272000D02*
X111760000Y-74552000D01*
X110677800Y-75634200D02*
X110677800Y-79112000D01*
X111760000Y-74552000D02*
X110677800Y-75634200D01*
X111760000Y-79112000D02*
X110677800Y-79112000D01*
X110360000Y-79112000D02*
X109220000Y-80252000D01*
X110677800Y-79112000D02*
X110360000Y-79112000D01*
X61468000Y-51308000D02*
X62618100Y-51308000D01*
X62618100Y-51546300D02*
X62618100Y-51308000D01*
X66951800Y-55880000D02*
X62618100Y-51546300D01*
X76200000Y-55880000D02*
X66951800Y-55880000D01*
%TO.N,+5V*%
X60402500Y-75274000D02*
X60402500Y-75674000D01*
X60702500Y-74974000D02*
X60402500Y-75274000D01*
X61702500Y-74974000D02*
X60702500Y-74974000D01*
X62002500Y-75274000D02*
X61702500Y-74974000D01*
X62002500Y-75674000D02*
X62002500Y-75274000D01*
X60402500Y-91114000D02*
X60402500Y-91714000D01*
X60502500Y-91014000D02*
X60402500Y-91114000D01*
X61702500Y-91014000D02*
X60502500Y-91014000D01*
X62002500Y-91314000D02*
X61702500Y-91014000D01*
X62002500Y-91714000D02*
X62002500Y-91314000D01*
X62002500Y-83094000D02*
X62002500Y-83694000D01*
X61902500Y-82994000D02*
X62002500Y-83094000D01*
X60702500Y-82994000D02*
X61902500Y-82994000D01*
X60402500Y-83294000D02*
X60702500Y-82994000D01*
X60402500Y-83694000D02*
X60402500Y-83294000D01*
X60402500Y-67054000D02*
X60402500Y-67654000D01*
X60502500Y-66954000D02*
X60402500Y-67054000D01*
X61902500Y-66954000D02*
X60502500Y-66954000D01*
X62002500Y-67054000D02*
X61902500Y-66954000D01*
X62002500Y-67654000D02*
X62002500Y-67054000D01*
X62002500Y-58974000D02*
X62002500Y-59574000D01*
X61902500Y-58874000D02*
X62002500Y-58974000D01*
X60502500Y-58874000D02*
X61902500Y-58874000D01*
X60402500Y-58974000D02*
X60502500Y-58874000D01*
X60402500Y-59574000D02*
X60402500Y-58974000D01*
X60402500Y-94438500D02*
X60452000Y-94488000D01*
X60402500Y-91714000D02*
X60402500Y-94438500D01*
X60402500Y-86056500D02*
X60452000Y-86106000D01*
X60402500Y-83694000D02*
X60402500Y-86056500D01*
X60402500Y-78182500D02*
X60452000Y-78232000D01*
X60402500Y-75674000D02*
X60402500Y-78182500D01*
X60402500Y-70054500D02*
X60452000Y-70104000D01*
X60402500Y-67654000D02*
X60402500Y-70054500D01*
X60402500Y-62434500D02*
X60452000Y-62484000D01*
X60402500Y-59574000D02*
X60402500Y-62434500D01*
%TO.N,RUN*%
X110910000Y-52832000D02*
X109676000Y-51598000D01*
X113014000Y-52832000D02*
X110910000Y-52832000D01*
%TO.N,TX*%
X56388000Y-51308000D02*
X57538100Y-51308000D01*
X60402500Y-57774000D02*
X60402500Y-57073900D01*
X60979300Y-56667900D02*
X61802100Y-55845100D01*
X60808500Y-56667900D02*
X60979300Y-56667900D01*
X60402500Y-57073900D02*
X60808500Y-56667900D01*
X57538100Y-51581100D02*
X57538100Y-51308000D01*
X60058700Y-54101700D02*
X57538100Y-51581100D01*
X60058700Y-54101800D02*
X60058700Y-54101700D01*
X61802100Y-55845100D02*
X60058700Y-54101800D01*
X62413600Y-56456700D02*
X61802100Y-55845100D01*
X67175600Y-56456700D02*
X62413600Y-56456700D01*
X67956500Y-57237600D02*
X67175600Y-56456700D01*
X67956500Y-57803400D02*
X67956500Y-57237600D01*
X68169000Y-58015900D02*
X67956500Y-57803400D01*
X68169000Y-58486000D02*
X68169000Y-58015900D01*
%TO.N,L_RX*%
X61202500Y-57774000D02*
X61202500Y-57073900D01*
X76200000Y-53340000D02*
X77350100Y-53340000D01*
X67102400Y-58165100D02*
X67102400Y-59128300D01*
X67359900Y-57907600D02*
X67102400Y-58165100D01*
X67359900Y-57206800D02*
X67359900Y-57907600D01*
X67054300Y-56901200D02*
X67359900Y-57206800D01*
X61375200Y-56901200D02*
X67054300Y-56901200D01*
X61202500Y-57073900D02*
X61375200Y-56901200D01*
X66601700Y-59128300D02*
X67102400Y-59128300D01*
X66294000Y-59436000D02*
X66601700Y-59128300D01*
X77350100Y-56864400D02*
X77350100Y-53340000D01*
X76944700Y-57269800D02*
X77350100Y-56864400D01*
X71618800Y-57269800D02*
X76944700Y-57269800D01*
X69760300Y-59128300D02*
X71618800Y-57269800D01*
X67102400Y-59128300D02*
X69760300Y-59128300D01*
%TO.N,LATCH*%
X62002500Y-90314000D02*
X62002500Y-89914000D01*
X61702500Y-90614000D02*
X62002500Y-90314000D01*
X56894500Y-90614000D02*
X61702500Y-90614000D01*
X56757500Y-90477000D02*
X56894500Y-90614000D01*
X52123000Y-90477000D02*
X56757500Y-90477000D01*
X51562000Y-89916000D02*
X52123000Y-90477000D01*
X51562000Y-85598000D02*
X51562000Y-89916000D01*
X47244000Y-81280000D02*
X51562000Y-85598000D01*
%TO.N,L_LATCH*%
X63352600Y-91164200D02*
X62802500Y-90614100D01*
X63352600Y-94740000D02*
X63352600Y-91164200D01*
X62991900Y-95100700D02*
X63352600Y-94740000D01*
X58556200Y-95100700D02*
X62991900Y-95100700D01*
X54882500Y-91427000D02*
X58556200Y-95100700D01*
X62802500Y-89914000D02*
X62802500Y-90264000D01*
X62802500Y-90264000D02*
X62802500Y-90614100D01*
X62802500Y-90264000D02*
X63562600Y-90264000D01*
%TO.N,D7*%
X60402500Y-88088500D02*
X60402500Y-88665700D01*
X59690000Y-87376000D02*
X60402500Y-88088500D01*
X55880000Y-87376000D02*
X59690000Y-87376000D01*
X47244000Y-78740000D02*
X55880000Y-87376000D01*
X60402500Y-88665700D02*
X60402500Y-89914000D01*
X68039700Y-90540800D02*
X68090500Y-90490000D01*
X65275600Y-90540800D02*
X68039700Y-90540800D01*
X63400500Y-88665700D02*
X65275600Y-90540800D01*
X60402500Y-88665700D02*
X63400500Y-88665700D01*
%TO.N,LD7*%
X61202500Y-89914000D02*
X61202500Y-89213900D01*
X73835500Y-99060000D02*
X76200000Y-99060000D01*
X66215500Y-91440000D02*
X73835500Y-99060000D01*
X65609000Y-91440000D02*
X66215500Y-91440000D01*
X63382900Y-89213900D02*
X65609000Y-91440000D01*
X61202500Y-89213900D02*
X63382900Y-89213900D01*
%TO.N,LD6*%
X62802500Y-81894000D02*
X62802500Y-82594100D01*
X76200000Y-96520000D02*
X73249900Y-96520000D01*
X73249900Y-94188300D02*
X73249900Y-96520000D01*
X68938300Y-89876700D02*
X73249900Y-94188300D01*
X67253700Y-89876700D02*
X68938300Y-89876700D01*
X66989700Y-90140700D02*
X67253700Y-89876700D01*
X65441300Y-90140700D02*
X66989700Y-90140700D01*
X62230100Y-86929500D02*
X65441300Y-90140700D01*
X58307500Y-86929500D02*
X62230100Y-86929500D01*
X54804000Y-83426000D02*
X58307500Y-86929500D01*
X67253700Y-87045300D02*
X62802500Y-82594100D01*
X67253700Y-89876700D02*
X67253700Y-87045300D01*
%TO.N,D6*%
X62002500Y-82494000D02*
X62002500Y-81894000D01*
X61902500Y-82594000D02*
X62002500Y-82494000D01*
X56797000Y-82594000D02*
X61902500Y-82594000D01*
X56679000Y-82476000D02*
X56797000Y-82594000D01*
X53520000Y-82476000D02*
X56679000Y-82476000D01*
X47244000Y-76200000D02*
X53520000Y-82476000D01*
%TO.N,LD5*%
X61202500Y-81894000D02*
X61202500Y-81193900D01*
X65506400Y-83312000D02*
X66294000Y-83312000D01*
X63388300Y-81193900D02*
X65506400Y-83312000D01*
X61202500Y-81193900D02*
X63388300Y-81193900D01*
X74422000Y-91440000D02*
X76200000Y-91440000D01*
X66294000Y-83312000D02*
X74422000Y-91440000D01*
%TO.N,D5*%
X58928000Y-79756000D02*
X60186800Y-81014700D01*
X53340000Y-79756000D02*
X58928000Y-79756000D01*
X47244000Y-73660000D02*
X53340000Y-79756000D01*
X60402500Y-81230500D02*
X60402500Y-81894000D01*
X60186800Y-81014700D02*
X60402500Y-81230500D01*
X65626800Y-82362000D02*
X68169000Y-82362000D01*
X65153500Y-81888700D02*
X65626800Y-82362000D01*
X64648900Y-81888700D02*
X65153500Y-81888700D01*
X63547000Y-80786800D02*
X64648900Y-81888700D01*
X60414700Y-80786800D02*
X63547000Y-80786800D01*
X60186800Y-81014700D02*
X60414700Y-80786800D01*
%TO.N,LD4*%
X62802500Y-73874000D02*
X62802500Y-74574100D01*
X74783300Y-88900000D02*
X76200000Y-88900000D01*
X71812400Y-85929100D02*
X74783300Y-88900000D01*
X71812400Y-84621100D02*
X71812400Y-85929100D01*
X65676200Y-78484900D02*
X71812400Y-84621100D01*
X63352600Y-78484900D02*
X65676200Y-78484900D01*
X63002500Y-78835000D02*
X63352600Y-78484900D01*
X58025500Y-78835000D02*
X63002500Y-78835000D01*
X54882500Y-75692000D02*
X58025500Y-78835000D01*
X63352600Y-75124200D02*
X62802500Y-74574100D01*
X63352600Y-78484900D02*
X63352600Y-75124200D01*
%TO.N,D4*%
X62002500Y-74474000D02*
X62002500Y-73874000D01*
X61902500Y-74574000D02*
X62002500Y-74474000D01*
X56925500Y-74574000D02*
X61902500Y-74574000D01*
X56757500Y-74742000D02*
X56925500Y-74574000D01*
X50866000Y-74742000D02*
X56757500Y-74742000D01*
X47244000Y-71120000D02*
X50866000Y-74742000D01*
%TO.N,D3*%
X60402500Y-72594500D02*
X60402500Y-72773700D01*
X59436000Y-71628000D02*
X60402500Y-72594500D01*
X50292000Y-71628000D02*
X59436000Y-71628000D01*
X47244000Y-68580000D02*
X50292000Y-71628000D01*
X60402500Y-72773700D02*
X60402500Y-73874000D01*
X68118200Y-74792800D02*
X68169000Y-74742000D01*
X65243700Y-74792800D02*
X68118200Y-74792800D01*
X64245900Y-73795000D02*
X65243700Y-74792800D01*
X64245900Y-73655100D02*
X64245900Y-73795000D01*
X63364500Y-72773700D02*
X64245900Y-73655100D01*
X60402500Y-72773700D02*
X63364500Y-72773700D01*
%TO.N,LD3*%
X61202500Y-73874000D02*
X61202500Y-73173900D01*
X76200000Y-86360000D02*
X73249900Y-86360000D01*
X65577200Y-75692000D02*
X66294000Y-75692000D01*
X63456700Y-73571500D02*
X65577200Y-75692000D01*
X63456700Y-73431600D02*
X63456700Y-73571500D01*
X63199000Y-73173900D02*
X63456700Y-73431600D01*
X61202500Y-73173900D02*
X63199000Y-73173900D01*
X73249900Y-83006300D02*
X73249900Y-86360000D01*
X66294000Y-76050400D02*
X73249900Y-83006300D01*
X66294000Y-75692000D02*
X66294000Y-76050400D01*
%TO.N,D2*%
X62002500Y-66454000D02*
X62002500Y-65854000D01*
X61902500Y-66554000D02*
X62002500Y-66454000D01*
X57144000Y-66554000D02*
X61902500Y-66554000D01*
X57084000Y-66614000D02*
X57144000Y-66554000D01*
X56757500Y-66614000D02*
X57084000Y-66614000D01*
X49850000Y-66614000D02*
X56757500Y-66614000D01*
X49276000Y-66040000D02*
X49850000Y-66614000D01*
X47244000Y-66040000D02*
X49276000Y-66040000D01*
%TO.N,LD2*%
X62802500Y-65854000D02*
X62802500Y-66554100D01*
X74798200Y-83820000D02*
X76200000Y-83820000D01*
X72194200Y-81216000D02*
X74798200Y-83820000D01*
X72194200Y-77355600D02*
X72194200Y-81216000D01*
X68967300Y-74128700D02*
X72194200Y-77355600D01*
X67332200Y-74128700D02*
X68967300Y-74128700D01*
X67068200Y-74392700D02*
X67332200Y-74128700D01*
X65519800Y-74392700D02*
X67068200Y-74392700D01*
X65255800Y-74128700D02*
X65519800Y-74392700D01*
X65255800Y-74049300D02*
X65255800Y-74128700D01*
X61948500Y-70742000D02*
X65255800Y-74049300D01*
X58060500Y-70742000D02*
X61948500Y-70742000D01*
X54882500Y-67564000D02*
X58060500Y-70742000D01*
X67332200Y-71083800D02*
X62802500Y-66554100D01*
X67332200Y-74128700D02*
X67332200Y-71083800D01*
%TO.N,LD1*%
X61202500Y-65854000D02*
X61202500Y-65153900D01*
X76200000Y-78740000D02*
X73249900Y-78740000D01*
X63266700Y-65153900D02*
X61202500Y-65153900D01*
X65676800Y-67564000D02*
X63266700Y-65153900D01*
X66294000Y-67564000D02*
X65676800Y-67564000D01*
X73249900Y-74519900D02*
X73249900Y-78740000D01*
X66294000Y-67564000D02*
X73249900Y-74519900D01*
%TO.N,D1*%
X60402500Y-64466500D02*
X60402500Y-64743100D01*
X59436000Y-63500000D02*
X60402500Y-64466500D01*
X47244000Y-63500000D02*
X59436000Y-63500000D01*
X60402500Y-64743100D02*
X60402500Y-65854000D01*
X65380700Y-66614000D02*
X68169000Y-66614000D01*
X63509800Y-64743100D02*
X65380700Y-66614000D01*
X60402500Y-64743100D02*
X63509800Y-64743100D01*
%TO.N,LD0*%
X57738200Y-56067800D02*
X60730700Y-56067800D01*
X54882500Y-58923500D02*
X57738200Y-56067800D01*
X54882500Y-59436000D02*
X54882500Y-58923500D01*
X62802500Y-57774000D02*
X62802500Y-58474100D01*
X63259000Y-58474100D02*
X63576100Y-58157000D01*
X62802500Y-58474100D02*
X63259000Y-58474100D01*
%TO.N,D0*%
X56757500Y-58486000D02*
X56763500Y-58480000D01*
X62002500Y-58393500D02*
X62002500Y-57774000D01*
X61922000Y-58474000D02*
X62002500Y-58393500D01*
X56769500Y-58474000D02*
X61922000Y-58474000D01*
X56763500Y-58480000D02*
X56769500Y-58474000D01*
X54743900Y-60960000D02*
X47244000Y-60960000D01*
X56763500Y-58940400D02*
X54743900Y-60960000D01*
X56763500Y-58480000D02*
X56763500Y-58940400D01*
%TO.N,+3V3*%
X62702500Y-92414000D02*
X62802500Y-92314000D01*
X61302500Y-92414000D02*
X62702500Y-92414000D01*
X61202500Y-92314000D02*
X61302500Y-92414000D01*
X61202500Y-91714000D02*
X61202500Y-92314000D01*
X62702500Y-84394000D02*
X62802500Y-84294000D01*
X61302500Y-84394000D02*
X62702500Y-84394000D01*
X61202500Y-84294000D02*
X61302500Y-84394000D01*
X61202500Y-83694000D02*
X61202500Y-84294000D01*
X62738000Y-76454000D02*
X62802500Y-76389500D01*
X61382500Y-76454000D02*
X62738000Y-76454000D01*
X61202500Y-76274000D02*
X61382500Y-76454000D01*
X61202500Y-75674000D02*
X61202500Y-76274000D01*
X62802500Y-68254000D02*
X62802500Y-67654000D01*
X62702500Y-68354000D02*
X62802500Y-68254000D01*
X61502500Y-68354000D02*
X62702500Y-68354000D01*
X61202500Y-68054000D02*
X61502500Y-68354000D01*
X61202500Y-67654000D02*
X61202500Y-68054000D01*
X62702500Y-60274000D02*
X62802500Y-60174000D01*
X61302500Y-60274000D02*
X62702500Y-60274000D01*
X61202500Y-60174000D02*
X61302500Y-60274000D01*
X61202500Y-59574000D02*
X61202500Y-60174000D01*
X62802500Y-84294000D02*
X62802500Y-83694000D01*
X62802500Y-83694000D02*
X62802500Y-84294000D01*
X62802500Y-78167500D02*
X62738000Y-78232000D01*
X62802500Y-76389500D02*
X62802500Y-78167500D01*
X62802500Y-67654000D02*
X62802500Y-68254000D01*
X62802500Y-92314000D02*
X62802500Y-91714000D01*
X62802500Y-91714000D02*
X62802500Y-92314000D01*
X62802500Y-94423500D02*
X62738000Y-94488000D01*
X62802500Y-92314000D02*
X62802500Y-94423500D01*
X62802500Y-75674000D02*
X62802500Y-75883300D01*
X62802500Y-75883300D02*
X62802500Y-76389500D01*
X62802500Y-76389500D02*
X62802500Y-75883300D01*
X62802500Y-75883300D02*
X62802500Y-75674000D01*
X47244000Y-86360000D02*
X47244000Y-85209900D01*
X47005700Y-85209900D02*
X47244000Y-85209900D01*
X46075600Y-84279800D02*
X47005700Y-85209900D01*
X46075600Y-80784300D02*
X46075600Y-84279800D01*
X46849900Y-80010000D02*
X46075600Y-80784300D01*
X47606200Y-80010000D02*
X46849900Y-80010000D01*
X54882500Y-87286300D02*
X47606200Y-80010000D01*
X54882500Y-89527000D02*
X54882500Y-87286300D01*
X106886000Y-60960000D02*
X93980000Y-60960000D01*
X113014000Y-54832000D02*
X106886000Y-60960000D01*
X66170600Y-81288600D02*
X66294000Y-81412000D01*
X64897400Y-81288600D02*
X66170600Y-81288600D01*
X46093800Y-75697700D02*
X46799700Y-74991800D01*
X46093800Y-79253900D02*
X46093800Y-75697700D01*
X46849900Y-80010000D02*
X46093800Y-79253900D01*
X54544100Y-81526000D02*
X54804000Y-81526000D01*
X48009900Y-74991800D02*
X54544100Y-81526000D01*
X46799700Y-74991800D02*
X48009900Y-74991800D01*
X48009700Y-69911600D02*
X46093800Y-69911600D01*
X51890100Y-73792000D02*
X48009700Y-69911600D01*
X54882500Y-73792000D02*
X51890100Y-73792000D01*
X46093800Y-74285900D02*
X46799700Y-74991800D01*
X46093800Y-69911600D02*
X46093800Y-74285900D01*
X62802500Y-85916500D02*
X62992000Y-86106000D01*
X62802500Y-84294000D02*
X62802500Y-85916500D01*
X62992000Y-86316500D02*
X62992000Y-86106000D01*
X66215500Y-89540000D02*
X62992000Y-86316500D01*
X62802500Y-60092000D02*
X62802500Y-60174000D01*
X62802500Y-60174000D02*
X62802500Y-60092000D01*
X62802500Y-62419500D02*
X62738000Y-62484000D01*
X62802500Y-60174000D02*
X62802500Y-62419500D01*
X62802500Y-60092000D02*
X62802500Y-59833000D01*
X62802500Y-59833000D02*
X62802500Y-60092000D01*
X93980000Y-60960000D02*
X92829900Y-60960000D01*
X66294000Y-64770000D02*
X66294000Y-65664000D01*
X89019900Y-64770000D02*
X92829900Y-60960000D01*
X66294000Y-64770000D02*
X89019900Y-64770000D01*
X64008000Y-62484000D02*
X66294000Y-64770000D01*
X62738000Y-62484000D02*
X64008000Y-62484000D01*
X54066500Y-64848000D02*
X46759500Y-64848000D01*
X54882500Y-65664000D02*
X54066500Y-64848000D01*
X46093800Y-65513700D02*
X46093800Y-69911600D01*
X46759500Y-64848000D02*
X46093800Y-65513700D01*
X48476100Y-57536000D02*
X54882500Y-57536000D01*
X46093800Y-59918300D02*
X48476100Y-57536000D01*
X46093800Y-61946400D02*
X46093800Y-59918300D01*
X46630400Y-62483000D02*
X46093800Y-61946400D01*
X46775900Y-62337500D02*
X46630400Y-62483000D01*
X47938000Y-62337500D02*
X46775900Y-62337500D01*
X48700300Y-63099800D02*
X47938000Y-62337500D01*
X62122200Y-63099800D02*
X48700300Y-63099800D01*
X62738000Y-62484000D02*
X62122200Y-63099800D01*
X46093900Y-64182400D02*
X46759500Y-64848000D01*
X46093900Y-63019500D02*
X46093900Y-64182400D01*
X46630400Y-62483000D02*
X46093900Y-63019500D01*
X62802500Y-70039500D02*
X62738100Y-70103900D01*
X62802500Y-68254000D02*
X62802500Y-70039500D01*
X62738100Y-70103900D02*
X62738000Y-70104000D01*
X66294000Y-73659900D02*
X66294000Y-73792000D01*
X62738100Y-70103900D02*
X66294000Y-73659900D01*
X62802500Y-59703500D02*
X62802500Y-59833000D01*
X62802500Y-59833000D02*
X62802500Y-59703500D01*
X62802500Y-59703500D02*
X62802500Y-59638700D01*
X62802500Y-59638700D02*
X62802500Y-59703500D01*
X62802500Y-59606300D02*
X62802500Y-59638700D01*
X62802500Y-59638700D02*
X62802500Y-59606300D01*
X62802500Y-59606300D02*
X62802500Y-59590100D01*
X62802500Y-59590100D02*
X62802500Y-59606300D01*
X62802500Y-59582000D02*
X62802500Y-59590100D01*
X62802500Y-59590100D02*
X62802500Y-59582000D01*
X62802500Y-59582000D02*
X62802500Y-59578000D01*
X62802500Y-59578000D02*
X62802500Y-59582000D01*
X62802500Y-59576000D02*
X62802500Y-59578000D01*
X62802500Y-59578000D02*
X62802500Y-59576000D01*
X62802500Y-59576000D02*
X62802500Y-59575000D01*
X62802500Y-59575000D02*
X62802500Y-59576000D01*
X62802500Y-59574500D02*
X62802500Y-59575000D01*
X62802500Y-59575000D02*
X62802500Y-59574500D01*
X62802500Y-59574500D02*
X62802500Y-59574200D01*
X62802500Y-59574200D02*
X62802500Y-59574500D01*
X62802500Y-59574000D02*
X62802500Y-59574100D01*
X62802500Y-59574100D02*
X62802500Y-59574200D01*
X62802500Y-59574200D02*
X62802500Y-59574100D01*
X62802500Y-59574100D02*
X62802500Y-59574000D01*
X64256000Y-59574000D02*
X66294000Y-57536000D01*
X62802500Y-59574000D02*
X64256000Y-59574000D01*
%TD*%
%TA.AperFunction,Conductor*%
%TO.N,GND*%
G36*
X75724755Y-93783147D02*
G01*
X75690000Y-93912857D01*
X75690000Y-94047143D01*
X75724755Y-94176853D01*
X75755440Y-94230000D01*
X75174000Y-94230000D01*
X75106961Y-94210315D01*
X75061206Y-94157511D01*
X75050000Y-94106000D01*
X75050000Y-93854000D01*
X75069685Y-93786961D01*
X75122489Y-93741206D01*
X75174000Y-93730000D01*
X75755440Y-93730000D01*
X75724755Y-93783147D01*
G37*
%TD.AperFunction*%
%TA.AperFunction,Conductor*%
G36*
X75724755Y-81083147D02*
G01*
X75690000Y-81212857D01*
X75690000Y-81347143D01*
X75724755Y-81476853D01*
X75755440Y-81530000D01*
X75174000Y-81530000D01*
X75106961Y-81510315D01*
X75061206Y-81457511D01*
X75050000Y-81406000D01*
X75050000Y-81154000D01*
X75069685Y-81086961D01*
X75122489Y-81041206D01*
X75174000Y-81030000D01*
X75755440Y-81030000D01*
X75724755Y-81083147D01*
G37*
%TD.AperFunction*%
%TA.AperFunction,Conductor*%
G36*
X110508957Y-78601898D02*
G01*
X110544371Y-78662128D01*
X110543877Y-78724410D01*
X110499575Y-78889747D01*
X110499573Y-78889758D01*
X110480130Y-79111998D01*
X110480130Y-79112001D01*
X110499573Y-79334241D01*
X110499575Y-79334252D01*
X110544255Y-79501001D01*
X110542592Y-79570851D01*
X110503429Y-79628713D01*
X110439201Y-79656217D01*
X110370298Y-79644630D01*
X110322905Y-79604217D01*
X110281075Y-79544477D01*
X110281074Y-79544476D01*
X109702962Y-80122589D01*
X109685925Y-80059007D01*
X109620099Y-79944993D01*
X109527007Y-79851901D01*
X109412993Y-79786075D01*
X109349409Y-79769037D01*
X109927522Y-79190924D01*
X109925747Y-79170645D01*
X109916680Y-79159301D01*
X109909488Y-79089802D01*
X109941011Y-79027448D01*
X109960299Y-79010734D01*
X110043007Y-78952822D01*
X110200822Y-78795007D01*
X110322529Y-78621190D01*
X110377104Y-78577569D01*
X110446603Y-78570376D01*
X110508957Y-78601898D01*
G37*
%TD.AperFunction*%
%TA.AperFunction,Conductor*%
G36*
X110610917Y-77441979D02*
G01*
X110658310Y-77482390D01*
X110779178Y-77655007D01*
X110936993Y-77812822D01*
X111019695Y-77870731D01*
X111063317Y-77925305D01*
X111070510Y-77994804D01*
X111054640Y-78026195D01*
X111052476Y-78050923D01*
X111630590Y-78629037D01*
X111567007Y-78646075D01*
X111452993Y-78711901D01*
X111359901Y-78804993D01*
X111294075Y-78919007D01*
X111277037Y-78982590D01*
X110698923Y-78404476D01*
X110657933Y-78463019D01*
X110603356Y-78506645D01*
X110533858Y-78513839D01*
X110471503Y-78482317D01*
X110436088Y-78422087D01*
X110436581Y-78359806D01*
X110480920Y-78194334D01*
X110500372Y-77972000D01*
X110480920Y-77749666D01*
X110436961Y-77585608D01*
X110438624Y-77515758D01*
X110477787Y-77457896D01*
X110542015Y-77430392D01*
X110610917Y-77441979D01*
G37*
%TD.AperFunction*%
%TA.AperFunction,Conductor*%
G36*
X113048118Y-77463096D02*
G01*
X113083532Y-77523326D01*
X113083038Y-77585608D01*
X113039081Y-77749660D01*
X113039079Y-77749670D01*
X113019628Y-77971999D01*
X113019628Y-77972000D01*
X113039079Y-78194329D01*
X113039081Y-78194339D01*
X113083417Y-78359803D01*
X113081754Y-78429653D01*
X113042591Y-78487515D01*
X112978363Y-78515019D01*
X112909461Y-78503432D01*
X112862067Y-78463020D01*
X112821074Y-78404477D01*
X112821074Y-78404476D01*
X112242962Y-78982589D01*
X112225925Y-78919007D01*
X112160099Y-78804993D01*
X112067007Y-78711901D01*
X111952993Y-78646075D01*
X111889410Y-78629037D01*
X112467522Y-78050924D01*
X112465747Y-78030645D01*
X112456680Y-78019301D01*
X112449488Y-77949802D01*
X112481011Y-77887448D01*
X112500299Y-77870734D01*
X112583007Y-77812822D01*
X112740822Y-77655007D01*
X112861691Y-77482388D01*
X112916265Y-77438767D01*
X112985764Y-77431574D01*
X113048118Y-77463096D01*
G37*
%TD.AperFunction*%
%TA.AperFunction,Conductor*%
G36*
X112821074Y-75259522D02*
G01*
X112862067Y-75200979D01*
X112916644Y-75157354D01*
X112986142Y-75150160D01*
X113048497Y-75181683D01*
X113083911Y-75241913D01*
X113083417Y-75304195D01*
X113039081Y-75469660D01*
X113039079Y-75469670D01*
X113019628Y-75691999D01*
X113019628Y-75692000D01*
X113039079Y-75914329D01*
X113039081Y-75914339D01*
X113083038Y-76078391D01*
X113081375Y-76148241D01*
X113042212Y-76206103D01*
X112977983Y-76233607D01*
X112909081Y-76222020D01*
X112861689Y-76181609D01*
X112740822Y-76008993D01*
X112583007Y-75851178D01*
X112500304Y-75793268D01*
X112456679Y-75738691D01*
X112449487Y-75669193D01*
X112465359Y-75637795D01*
X112467522Y-75613074D01*
X111889409Y-75034962D01*
X111952993Y-75017925D01*
X112067007Y-74952099D01*
X112160099Y-74859007D01*
X112225925Y-74744993D01*
X112242962Y-74681409D01*
X112821074Y-75259522D01*
G37*
%TD.AperFunction*%
%TA.AperFunction,Conductor*%
G36*
X111294075Y-74744993D02*
G01*
X111359901Y-74859007D01*
X111452993Y-74952099D01*
X111567007Y-75017925D01*
X111630590Y-75034962D01*
X111052476Y-75613074D01*
X111054251Y-75633353D01*
X111063319Y-75644698D01*
X111070511Y-75714197D01*
X111038988Y-75776551D01*
X111019695Y-75793269D01*
X110936989Y-75851181D01*
X110779178Y-76008992D01*
X110658310Y-76181608D01*
X110603733Y-76225233D01*
X110534235Y-76232425D01*
X110471880Y-76200902D01*
X110436467Y-76140672D01*
X110436961Y-76078390D01*
X110440906Y-76063670D01*
X110480920Y-75914334D01*
X110500372Y-75692000D01*
X110480920Y-75469666D01*
X110436582Y-75304193D01*
X110438245Y-75234347D01*
X110477407Y-75176484D01*
X110541636Y-75148980D01*
X110610538Y-75160566D01*
X110657932Y-75200979D01*
X110698924Y-75259521D01*
X111277037Y-74681409D01*
X111294075Y-74744993D01*
G37*
%TD.AperFunction*%
%TA.AperFunction,Conductor*%
G36*
X111294075Y-72464993D02*
G01*
X111359901Y-72579007D01*
X111452993Y-72672099D01*
X111567007Y-72737925D01*
X111630590Y-72754962D01*
X111052476Y-73333074D01*
X111054227Y-73353086D01*
X111063753Y-73365003D01*
X111070945Y-73434502D01*
X111054581Y-73466869D01*
X111052476Y-73490923D01*
X111630590Y-74069037D01*
X111567007Y-74086075D01*
X111452993Y-74151901D01*
X111359901Y-74244993D01*
X111294075Y-74359007D01*
X111277037Y-74422590D01*
X110698923Y-73844476D01*
X110657933Y-73903019D01*
X110603356Y-73946645D01*
X110533858Y-73953839D01*
X110471503Y-73922317D01*
X110436088Y-73862087D01*
X110436581Y-73799806D01*
X110480920Y-73634334D01*
X110500372Y-73412000D01*
X110497712Y-73381602D01*
X110487097Y-73260268D01*
X110480920Y-73189666D01*
X110436582Y-73024193D01*
X110438245Y-72954347D01*
X110477407Y-72896484D01*
X110541636Y-72868980D01*
X110610538Y-72880566D01*
X110657932Y-72920979D01*
X110698924Y-72979521D01*
X111277037Y-72401409D01*
X111294075Y-72464993D01*
G37*
%TD.AperFunction*%
%TA.AperFunction,Conductor*%
G36*
X112821074Y-72979522D02*
G01*
X112862067Y-72920979D01*
X112916644Y-72877354D01*
X112986142Y-72870160D01*
X113048497Y-72901683D01*
X113083911Y-72961913D01*
X113083417Y-73024195D01*
X113039081Y-73189660D01*
X113039079Y-73189670D01*
X113019628Y-73411999D01*
X113019628Y-73412000D01*
X113039079Y-73634329D01*
X113039081Y-73634339D01*
X113083417Y-73799803D01*
X113081754Y-73869653D01*
X113042591Y-73927515D01*
X112978363Y-73955019D01*
X112909461Y-73943432D01*
X112862067Y-73903020D01*
X112821074Y-73844477D01*
X112821074Y-73844476D01*
X112242962Y-74422589D01*
X112225925Y-74359007D01*
X112160099Y-74244993D01*
X112067007Y-74151901D01*
X111952993Y-74086075D01*
X111889410Y-74069037D01*
X112467522Y-73490924D01*
X112465771Y-73470914D01*
X112456245Y-73458997D01*
X112449051Y-73389499D01*
X112465418Y-73357122D01*
X112467522Y-73333074D01*
X111889409Y-72754962D01*
X111952993Y-72737925D01*
X112067007Y-72672099D01*
X112160099Y-72579007D01*
X112225925Y-72464993D01*
X112242962Y-72401409D01*
X112821074Y-72979522D01*
G37*
%TD.AperFunction*%
%TA.AperFunction,Conductor*%
G36*
X72992539Y-65390185D02*
G01*
X73038294Y-65442989D01*
X73049500Y-65494500D01*
X73049500Y-66937870D01*
X73049501Y-66937876D01*
X73055908Y-66997483D01*
X73106202Y-67132328D01*
X73106206Y-67132335D01*
X73183889Y-67236105D01*
X73208307Y-67301569D01*
X73193456Y-67369842D01*
X73183890Y-67384727D01*
X73106647Y-67487910D01*
X73106645Y-67487913D01*
X73056403Y-67622620D01*
X73056401Y-67622627D01*
X73050000Y-67682155D01*
X73050000Y-68330000D01*
X75755440Y-68330000D01*
X75724755Y-68383147D01*
X75690000Y-68512857D01*
X75690000Y-68647143D01*
X75724755Y-68776853D01*
X75755440Y-68830000D01*
X73050000Y-68830000D01*
X73050000Y-69477844D01*
X73056401Y-69537372D01*
X73056403Y-69537379D01*
X73106645Y-69672086D01*
X73106646Y-69672088D01*
X73183890Y-69775272D01*
X73208307Y-69840736D01*
X73193456Y-69909009D01*
X73183890Y-69923894D01*
X73106204Y-70027669D01*
X73106202Y-70027671D01*
X73055908Y-70162517D01*
X73049501Y-70222116D01*
X73049501Y-70222123D01*
X73049500Y-70222135D01*
X73049500Y-72017870D01*
X73049501Y-72017876D01*
X73055908Y-72077483D01*
X73106202Y-72212328D01*
X73106203Y-72212330D01*
X73150871Y-72271998D01*
X73167716Y-72294501D01*
X73183578Y-72315689D01*
X73207995Y-72381153D01*
X73193144Y-72449426D01*
X73183578Y-72464311D01*
X73106203Y-72567669D01*
X73106202Y-72567671D01*
X73055908Y-72702517D01*
X73053828Y-72721870D01*
X73049501Y-72762123D01*
X73049500Y-72762135D01*
X73049500Y-73170903D01*
X73029815Y-73237942D01*
X72977011Y-73283697D01*
X72907853Y-73293641D01*
X72844297Y-73264616D01*
X72837819Y-73258584D01*
X67550944Y-67971709D01*
X67517459Y-67910386D01*
X67519549Y-67849433D01*
X67529098Y-67816569D01*
X67532000Y-67779694D01*
X67532000Y-67538500D01*
X67551685Y-67471461D01*
X67604489Y-67425706D01*
X67656000Y-67414500D01*
X68822186Y-67414500D01*
X68822194Y-67414500D01*
X68859069Y-67411598D01*
X68859071Y-67411597D01*
X68859073Y-67411597D01*
X68931688Y-67390500D01*
X69016898Y-67365744D01*
X69158365Y-67282081D01*
X69274581Y-67165865D01*
X69358244Y-67024398D01*
X69404098Y-66866569D01*
X69407000Y-66829694D01*
X69407000Y-66398306D01*
X69404098Y-66361431D01*
X69358244Y-66203602D01*
X69274581Y-66062135D01*
X69274579Y-66062133D01*
X69274576Y-66062129D01*
X69158370Y-65945923D01*
X69158362Y-65945917D01*
X69074868Y-65896539D01*
X69016898Y-65862256D01*
X69016897Y-65862255D01*
X69016896Y-65862255D01*
X69016893Y-65862254D01*
X68859073Y-65816402D01*
X68859067Y-65816401D01*
X68822201Y-65813500D01*
X68822194Y-65813500D01*
X67656000Y-65813500D01*
X67588961Y-65793815D01*
X67543206Y-65741011D01*
X67532000Y-65689500D01*
X67532000Y-65494500D01*
X67551685Y-65427461D01*
X67604489Y-65381706D01*
X67656000Y-65370500D01*
X72925500Y-65370500D01*
X72992539Y-65390185D01*
G37*
%TD.AperFunction*%
%TA.AperFunction,Conductor*%
G36*
X111294075Y-70184993D02*
G01*
X111359901Y-70299007D01*
X111452993Y-70392099D01*
X111567007Y-70457925D01*
X111630590Y-70474962D01*
X111052476Y-71053074D01*
X111054227Y-71073086D01*
X111063753Y-71085003D01*
X111070945Y-71154502D01*
X111054581Y-71186869D01*
X111052476Y-71210923D01*
X111630590Y-71789037D01*
X111567007Y-71806075D01*
X111452993Y-71871901D01*
X111359901Y-71964993D01*
X111294075Y-72079007D01*
X111277037Y-72142590D01*
X110698923Y-71564476D01*
X110657933Y-71623019D01*
X110603356Y-71666645D01*
X110533858Y-71673839D01*
X110471503Y-71642317D01*
X110436088Y-71582087D01*
X110436581Y-71519806D01*
X110480920Y-71354334D01*
X110500372Y-71132000D01*
X110480920Y-70909666D01*
X110436582Y-70744193D01*
X110438245Y-70674347D01*
X110477407Y-70616484D01*
X110541636Y-70588980D01*
X110610538Y-70600566D01*
X110657932Y-70640979D01*
X110698924Y-70699521D01*
X111277037Y-70121409D01*
X111294075Y-70184993D01*
G37*
%TD.AperFunction*%
%TA.AperFunction,Conductor*%
G36*
X112821074Y-70699522D02*
G01*
X112862067Y-70640979D01*
X112916644Y-70597354D01*
X112986142Y-70590160D01*
X113048497Y-70621683D01*
X113083911Y-70681913D01*
X113083417Y-70744195D01*
X113039081Y-70909660D01*
X113039079Y-70909670D01*
X113019628Y-71131999D01*
X113019628Y-71132000D01*
X113039079Y-71354329D01*
X113039081Y-71354339D01*
X113083417Y-71519803D01*
X113081754Y-71589653D01*
X113042591Y-71647515D01*
X112978363Y-71675019D01*
X112909461Y-71663432D01*
X112862067Y-71623020D01*
X112821074Y-71564477D01*
X112821074Y-71564476D01*
X112242962Y-72142589D01*
X112225925Y-72079007D01*
X112160099Y-71964993D01*
X112067007Y-71871901D01*
X111952993Y-71806075D01*
X111889410Y-71789037D01*
X112467522Y-71210924D01*
X112465771Y-71190914D01*
X112456245Y-71178997D01*
X112449051Y-71109499D01*
X112465418Y-71077122D01*
X112467522Y-71053074D01*
X111889409Y-70474962D01*
X111952993Y-70457925D01*
X112067007Y-70392099D01*
X112160099Y-70299007D01*
X112225925Y-70184993D01*
X112242962Y-70121409D01*
X112821074Y-70699522D01*
G37*
%TD.AperFunction*%
%TA.AperFunction,Conductor*%
G36*
X92572540Y-51420185D02*
G01*
X92618295Y-51472989D01*
X92629501Y-51524500D01*
X92629501Y-51697876D01*
X92635908Y-51757483D01*
X92686202Y-51892328D01*
X92686203Y-51892330D01*
X92691419Y-51899297D01*
X92756197Y-51985830D01*
X92763578Y-51995689D01*
X92787995Y-52061153D01*
X92773144Y-52129426D01*
X92763578Y-52144311D01*
X92686203Y-52247669D01*
X92686202Y-52247671D01*
X92635908Y-52382517D01*
X92630589Y-52431998D01*
X92629501Y-52442123D01*
X92629500Y-52442135D01*
X92629500Y-53275616D01*
X92629028Y-53286423D01*
X92624341Y-53339997D01*
X92624341Y-53340002D01*
X92629028Y-53393576D01*
X92629500Y-53404383D01*
X92629500Y-54237870D01*
X92629501Y-54237876D01*
X92635908Y-54297483D01*
X92686202Y-54432328D01*
X92686206Y-54432335D01*
X92763889Y-54536105D01*
X92788307Y-54601569D01*
X92773456Y-54669842D01*
X92763890Y-54684727D01*
X92686647Y-54787910D01*
X92686645Y-54787913D01*
X92636403Y-54922620D01*
X92636401Y-54922627D01*
X92630000Y-54982155D01*
X92630000Y-55630000D01*
X93535440Y-55630000D01*
X93504755Y-55683147D01*
X93470000Y-55812857D01*
X93470000Y-55947143D01*
X93504755Y-56076853D01*
X93535440Y-56130000D01*
X92630000Y-56130000D01*
X92630000Y-56777844D01*
X92636401Y-56837372D01*
X92636403Y-56837379D01*
X92686645Y-56972086D01*
X92686646Y-56972088D01*
X92763890Y-57075272D01*
X92788307Y-57140736D01*
X92773456Y-57209009D01*
X92763890Y-57223894D01*
X92686204Y-57327669D01*
X92686202Y-57327671D01*
X92635908Y-57462517D01*
X92631696Y-57501700D01*
X92629501Y-57522123D01*
X92629500Y-57522135D01*
X92629500Y-58355616D01*
X92629028Y-58366423D01*
X92624341Y-58419997D01*
X92624341Y-58420002D01*
X92629028Y-58473576D01*
X92629500Y-58484383D01*
X92629500Y-59317870D01*
X92629501Y-59317876D01*
X92635908Y-59377483D01*
X92686202Y-59512328D01*
X92686203Y-59512330D01*
X92686204Y-59512331D01*
X92760425Y-59611478D01*
X92763578Y-59615689D01*
X92787995Y-59681153D01*
X92773144Y-59749426D01*
X92763578Y-59764311D01*
X92686203Y-59867669D01*
X92686202Y-59867671D01*
X92635908Y-60002517D01*
X92629501Y-60062116D01*
X92629501Y-60062123D01*
X92629500Y-60062135D01*
X92629500Y-60310711D01*
X92609815Y-60377750D01*
X92567500Y-60418098D01*
X92461187Y-60479477D01*
X92461182Y-60479481D01*
X88807484Y-64133181D01*
X88746161Y-64166666D01*
X88719803Y-64169500D01*
X77674500Y-64169500D01*
X77607461Y-64149815D01*
X77561706Y-64097011D01*
X77550500Y-64045500D01*
X77550499Y-63564385D01*
X77550971Y-63553576D01*
X77555659Y-63500000D01*
X77555659Y-63499999D01*
X77550971Y-63446421D01*
X77550499Y-63435613D01*
X77550499Y-62602129D01*
X77550498Y-62602123D01*
X77550497Y-62602116D01*
X77544091Y-62542517D01*
X77521892Y-62482999D01*
X77493797Y-62407671D01*
X77493795Y-62407668D01*
X77416421Y-62304309D01*
X77392004Y-62238848D01*
X77406855Y-62170575D01*
X77416416Y-62155696D01*
X77493796Y-62052331D01*
X77544091Y-61917483D01*
X77550500Y-61857873D01*
X77550499Y-61024384D01*
X77550971Y-61013576D01*
X77555659Y-60960000D01*
X77555659Y-60959999D01*
X77550971Y-60906421D01*
X77550499Y-60895613D01*
X77550499Y-60062129D01*
X77550498Y-60062123D01*
X77550497Y-60062116D01*
X77544091Y-60002517D01*
X77542166Y-59997357D01*
X77493797Y-59867671D01*
X77493795Y-59867668D01*
X77493792Y-59867664D01*
X77416421Y-59764309D01*
X77392004Y-59698848D01*
X77406855Y-59630575D01*
X77416416Y-59615696D01*
X77493796Y-59512331D01*
X77544091Y-59377483D01*
X77550500Y-59317873D01*
X77550499Y-58484383D01*
X77550971Y-58473576D01*
X77555659Y-58420000D01*
X77555659Y-58419999D01*
X77550971Y-58366421D01*
X77550499Y-58355613D01*
X77550499Y-57564597D01*
X77570184Y-57497558D01*
X77586812Y-57476921D01*
X77708609Y-57355124D01*
X77708614Y-57355121D01*
X77718814Y-57344920D01*
X77718816Y-57344920D01*
X77830620Y-57233116D01*
X77892693Y-57125602D01*
X77909677Y-57096185D01*
X77950600Y-56943457D01*
X77950600Y-56785343D01*
X77950600Y-53260943D01*
X77909677Y-53108216D01*
X77883861Y-53063501D01*
X77830624Y-52971290D01*
X77830618Y-52971282D01*
X77829517Y-52970181D01*
X77828884Y-52969023D01*
X77825674Y-52964839D01*
X77826326Y-52964338D01*
X77796032Y-52908858D01*
X77801016Y-52839166D01*
X77842888Y-52783233D01*
X77908352Y-52758816D01*
X77917198Y-52758500D01*
X79797903Y-52758500D01*
X79864942Y-52778185D01*
X79885584Y-52794819D01*
X80160139Y-53069374D01*
X80160149Y-53069385D01*
X80164479Y-53073715D01*
X80164480Y-53073716D01*
X80276284Y-53185520D01*
X80276286Y-53185521D01*
X80276290Y-53185524D01*
X80356803Y-53232008D01*
X80356804Y-53232008D01*
X80413215Y-53264577D01*
X80565943Y-53305501D01*
X80565946Y-53305501D01*
X80731653Y-53305501D01*
X80731669Y-53305500D01*
X81395783Y-53305500D01*
X81462822Y-53325185D01*
X81508577Y-53377989D01*
X81518521Y-53447147D01*
X81508165Y-53481905D01*
X81485425Y-53530668D01*
X81485422Y-53530677D01*
X81428793Y-53742020D01*
X81428793Y-53742023D01*
X81409723Y-53960000D01*
X81427453Y-54162666D01*
X81428793Y-54177975D01*
X81428793Y-54177979D01*
X81485422Y-54389322D01*
X81485424Y-54389326D01*
X81485425Y-54389330D01*
X81523289Y-54470530D01*
X81577897Y-54587638D01*
X81577898Y-54587639D01*
X81703402Y-54766877D01*
X81858123Y-54921598D01*
X82037361Y-55047102D01*
X82235670Y-55139575D01*
X82447023Y-55196207D01*
X82629926Y-55212208D01*
X82664998Y-55215277D01*
X82665000Y-55215277D01*
X82665002Y-55215277D01*
X82693254Y-55212805D01*
X82882977Y-55196207D01*
X83094330Y-55139575D01*
X83292639Y-55047102D01*
X83471877Y-54921598D01*
X83626598Y-54766877D01*
X83752102Y-54587639D01*
X83844575Y-54389330D01*
X83901207Y-54177977D01*
X83920277Y-53960000D01*
X83901207Y-53742023D01*
X83844575Y-53530670D01*
X83821834Y-53481903D01*
X83811343Y-53412828D01*
X83839862Y-53349044D01*
X83898339Y-53310804D01*
X83934217Y-53305500D01*
X86245783Y-53305500D01*
X86312822Y-53325185D01*
X86358577Y-53377989D01*
X86368521Y-53447147D01*
X86358165Y-53481905D01*
X86335425Y-53530668D01*
X86335422Y-53530677D01*
X86278793Y-53742020D01*
X86278793Y-53742023D01*
X86259723Y-53960000D01*
X86277453Y-54162666D01*
X86278793Y-54177975D01*
X86278793Y-54177979D01*
X86335422Y-54389322D01*
X86335424Y-54389326D01*
X86335425Y-54389330D01*
X86373289Y-54470530D01*
X86427897Y-54587638D01*
X86427898Y-54587639D01*
X86553402Y-54766877D01*
X86708123Y-54921598D01*
X86887361Y-55047102D01*
X87085670Y-55139575D01*
X87297023Y-55196207D01*
X87479926Y-55212208D01*
X87514998Y-55215277D01*
X87515000Y-55215277D01*
X87515002Y-55215277D01*
X87543254Y-55212805D01*
X87732977Y-55196207D01*
X87944330Y-55139575D01*
X88142639Y-55047102D01*
X88321877Y-54921598D01*
X88476598Y-54766877D01*
X88602102Y-54587639D01*
X88694575Y-54389330D01*
X88751207Y-54177977D01*
X88770277Y-53960000D01*
X88751207Y-53742023D01*
X88694575Y-53530670D01*
X88671834Y-53481903D01*
X88661343Y-53412828D01*
X88689862Y-53349044D01*
X88748339Y-53310804D01*
X88784217Y-53305500D01*
X90083331Y-53305500D01*
X90083347Y-53305501D01*
X90090943Y-53305501D01*
X90249054Y-53305501D01*
X90249057Y-53305501D01*
X90401785Y-53264577D01*
X90458196Y-53232008D01*
X90458197Y-53232008D01*
X90538709Y-53185524D01*
X90538708Y-53185524D01*
X90538716Y-53185520D01*
X90650520Y-53073716D01*
X90650520Y-53073714D01*
X90660724Y-53063511D01*
X90660727Y-53063506D01*
X92287416Y-51436819D01*
X92348739Y-51403334D01*
X92375097Y-51400500D01*
X92505501Y-51400500D01*
X92572540Y-51420185D01*
G37*
%TD.AperFunction*%
%TA.AperFunction,Conductor*%
G36*
X61718000Y-52638633D02*
G01*
X61931483Y-52581433D01*
X61931492Y-52581429D01*
X62145578Y-52481600D01*
X62339082Y-52346105D01*
X62506105Y-52179082D01*
X62636119Y-51993405D01*
X62690696Y-51949781D01*
X62760195Y-51942588D01*
X62822549Y-51974110D01*
X62839269Y-51993405D01*
X62969505Y-52179401D01*
X63136599Y-52346495D01*
X63233384Y-52414265D01*
X63330165Y-52482032D01*
X63330167Y-52482033D01*
X63330170Y-52482035D01*
X63544337Y-52581903D01*
X63544343Y-52581904D01*
X63544344Y-52581905D01*
X63575089Y-52590143D01*
X63772592Y-52643063D01*
X63949034Y-52658500D01*
X64007999Y-52663659D01*
X64008000Y-52663659D01*
X64008001Y-52663659D01*
X64066966Y-52658500D01*
X64243408Y-52643063D01*
X64371756Y-52608672D01*
X64441605Y-52610335D01*
X64481848Y-52634864D01*
X64482839Y-52633574D01*
X64489281Y-52638517D01*
X64489284Y-52638520D01*
X64489287Y-52638521D01*
X64489290Y-52638524D01*
X64599696Y-52702266D01*
X64626216Y-52717577D01*
X64778943Y-52758501D01*
X64778945Y-52758501D01*
X64944654Y-52758501D01*
X64944670Y-52758500D01*
X72925500Y-52758500D01*
X72992539Y-52778185D01*
X73038294Y-52830989D01*
X73049500Y-52882500D01*
X73049500Y-54237870D01*
X73049501Y-54237876D01*
X73055908Y-54297483D01*
X73106202Y-54432328D01*
X73106206Y-54432335D01*
X73183889Y-54536105D01*
X73208307Y-54601569D01*
X73193456Y-54669842D01*
X73183890Y-54684727D01*
X73106647Y-54787910D01*
X73106645Y-54787913D01*
X73056403Y-54922620D01*
X73056401Y-54922627D01*
X73050000Y-54982155D01*
X73050000Y-55630000D01*
X75426000Y-55630000D01*
X75493039Y-55649685D01*
X75538794Y-55702489D01*
X75550000Y-55754000D01*
X75550000Y-56006000D01*
X75530315Y-56073039D01*
X75477511Y-56118794D01*
X75426000Y-56130000D01*
X73050000Y-56130000D01*
X73050000Y-56545300D01*
X73030315Y-56612339D01*
X72977511Y-56658094D01*
X72926000Y-56669300D01*
X71705469Y-56669300D01*
X71705453Y-56669299D01*
X71697857Y-56669299D01*
X71539743Y-56669299D01*
X71432387Y-56698065D01*
X71387010Y-56710224D01*
X71387009Y-56710225D01*
X71338209Y-56738401D01*
X71338208Y-56738402D01*
X71294146Y-56763841D01*
X71250085Y-56789279D01*
X71250082Y-56789281D01*
X69618681Y-58420683D01*
X69557358Y-58454168D01*
X69487666Y-58449184D01*
X69431733Y-58407312D01*
X69407316Y-58341848D01*
X69407000Y-58333002D01*
X69407000Y-58270313D01*
X69406999Y-58270298D01*
X69404098Y-58233432D01*
X69404097Y-58233426D01*
X69358245Y-58075606D01*
X69358244Y-58075603D01*
X69358244Y-58075602D01*
X69274581Y-57934135D01*
X69274579Y-57934133D01*
X69274576Y-57934129D01*
X69158370Y-57817923D01*
X69158362Y-57817917D01*
X69016896Y-57734255D01*
X69016893Y-57734254D01*
X68859073Y-57688402D01*
X68859067Y-57688401D01*
X68822201Y-57685500D01*
X68822194Y-57685500D01*
X68739198Y-57685500D01*
X68672159Y-57665815D01*
X68651517Y-57649181D01*
X68593319Y-57590983D01*
X68559834Y-57529660D01*
X68557000Y-57503302D01*
X68557000Y-57158542D01*
X68550151Y-57132984D01*
X68550150Y-57132980D01*
X68533141Y-57069500D01*
X68516077Y-57005816D01*
X68509742Y-56994843D01*
X68437024Y-56868890D01*
X68437021Y-56868886D01*
X68437020Y-56868884D01*
X68325216Y-56757080D01*
X68325215Y-56757079D01*
X68320885Y-56752749D01*
X68320874Y-56752739D01*
X67663190Y-56095055D01*
X67663188Y-56095052D01*
X67544317Y-55976181D01*
X67544309Y-55976175D01*
X67431390Y-55910982D01*
X67431389Y-55910981D01*
X67414516Y-55901240D01*
X67407385Y-55897123D01*
X67254657Y-55856199D01*
X67096543Y-55856199D01*
X67088947Y-55856199D01*
X67088931Y-55856200D01*
X62713732Y-55856200D01*
X62646693Y-55836515D01*
X62626044Y-55819874D01*
X62288757Y-55482532D01*
X62288663Y-55482424D01*
X62282609Y-55476370D01*
X62222687Y-55416451D01*
X62170855Y-55364611D01*
X62165392Y-55359147D01*
X62165287Y-55359054D01*
X61135373Y-54329200D01*
X60545267Y-53739128D01*
X60544579Y-53738343D01*
X59514481Y-52708245D01*
X59480996Y-52646922D01*
X59485980Y-52577230D01*
X59527852Y-52521297D01*
X59549754Y-52508183D01*
X59605830Y-52482035D01*
X59799401Y-52346495D01*
X59966495Y-52179401D01*
X60096730Y-51993405D01*
X60151307Y-51949781D01*
X60220805Y-51942587D01*
X60283160Y-51974110D01*
X60299879Y-51993405D01*
X60429890Y-52179078D01*
X60596917Y-52346105D01*
X60790421Y-52481600D01*
X61004507Y-52581429D01*
X61004516Y-52581433D01*
X61218000Y-52638634D01*
X61218000Y-51741012D01*
X61275007Y-51773925D01*
X61402174Y-51808000D01*
X61533826Y-51808000D01*
X61660993Y-51773925D01*
X61718000Y-51741012D01*
X61718000Y-52638633D01*
G37*
%TD.AperFunction*%
%TA.AperFunction,Conductor*%
G36*
X121448418Y-48252816D02*
G01*
X121648561Y-48267130D01*
X121666063Y-48269647D01*
X121857797Y-48311355D01*
X121874755Y-48316334D01*
X122058609Y-48384909D01*
X122074701Y-48392259D01*
X122246904Y-48486288D01*
X122261784Y-48495849D01*
X122418867Y-48613441D01*
X122432237Y-48625027D01*
X122570972Y-48763762D01*
X122582558Y-48777132D01*
X122700146Y-48934210D01*
X122709711Y-48949095D01*
X122803740Y-49121298D01*
X122811090Y-49137390D01*
X122879662Y-49321236D01*
X122884646Y-49338212D01*
X122926351Y-49529931D01*
X122928869Y-49547442D01*
X122943184Y-49747580D01*
X122943500Y-49756427D01*
X122943500Y-101119572D01*
X122943184Y-101128419D01*
X122928869Y-101328557D01*
X122926351Y-101346068D01*
X122884646Y-101537787D01*
X122879662Y-101554763D01*
X122811090Y-101738609D01*
X122803740Y-101754701D01*
X122709711Y-101926904D01*
X122700146Y-101941789D01*
X122582558Y-102098867D01*
X122570972Y-102112237D01*
X122432237Y-102250972D01*
X122418867Y-102262558D01*
X122261789Y-102380146D01*
X122246904Y-102389711D01*
X122074701Y-102483740D01*
X122058609Y-102491090D01*
X121874763Y-102559662D01*
X121857787Y-102564646D01*
X121666068Y-102606351D01*
X121648557Y-102608869D01*
X121467779Y-102621799D01*
X121448417Y-102623184D01*
X121439572Y-102623500D01*
X46708428Y-102623500D01*
X46699582Y-102623184D01*
X46677622Y-102621613D01*
X46499442Y-102608869D01*
X46481931Y-102606351D01*
X46290212Y-102564646D01*
X46273236Y-102559662D01*
X46089390Y-102491090D01*
X46073298Y-102483740D01*
X45901095Y-102389711D01*
X45886210Y-102380146D01*
X45729132Y-102262558D01*
X45715762Y-102250972D01*
X45577027Y-102112237D01*
X45565441Y-102098867D01*
X45476832Y-101980500D01*
X45447849Y-101941784D01*
X45438288Y-101926904D01*
X45344259Y-101754701D01*
X45336909Y-101738609D01*
X45330836Y-101722328D01*
X45268334Y-101554755D01*
X45263355Y-101537797D01*
X45221647Y-101346063D01*
X45219130Y-101328556D01*
X45204816Y-101128418D01*
X45204500Y-101119572D01*
X45204500Y-99446711D01*
X46409500Y-99446711D01*
X46409500Y-99689288D01*
X46441161Y-99929785D01*
X46503947Y-100164104D01*
X46596773Y-100388205D01*
X46596777Y-100388214D01*
X46618974Y-100426661D01*
X46718064Y-100598289D01*
X46718066Y-100598292D01*
X46718067Y-100598293D01*
X46865733Y-100790736D01*
X46865739Y-100790743D01*
X47037256Y-100962260D01*
X47037262Y-100962265D01*
X47229711Y-101109936D01*
X47439788Y-101231224D01*
X47663900Y-101324054D01*
X47898211Y-101386838D01*
X48078586Y-101410584D01*
X48138711Y-101418500D01*
X48138712Y-101418500D01*
X48381289Y-101418500D01*
X48429388Y-101412167D01*
X48621789Y-101386838D01*
X48856100Y-101324054D01*
X49080212Y-101231224D01*
X49290289Y-101109936D01*
X49482738Y-100962265D01*
X49654265Y-100790738D01*
X49801936Y-100598289D01*
X49923224Y-100388212D01*
X50016054Y-100164100D01*
X50078838Y-99929789D01*
X50110500Y-99689288D01*
X50110500Y-99446712D01*
X50078838Y-99206211D01*
X50016054Y-98971900D01*
X49923224Y-98747788D01*
X49801936Y-98537711D01*
X49654265Y-98345262D01*
X49654260Y-98345256D01*
X49482743Y-98173739D01*
X49482736Y-98173733D01*
X49290293Y-98026067D01*
X49290292Y-98026066D01*
X49290289Y-98026064D01*
X49080212Y-97904776D01*
X49002332Y-97872517D01*
X48856104Y-97811947D01*
X48621785Y-97749161D01*
X48381289Y-97717500D01*
X48381288Y-97717500D01*
X48138712Y-97717500D01*
X48138711Y-97717500D01*
X47898214Y-97749161D01*
X47663895Y-97811947D01*
X47439794Y-97904773D01*
X47439785Y-97904777D01*
X47229706Y-98026067D01*
X47037263Y-98173733D01*
X47037256Y-98173739D01*
X46865739Y-98345256D01*
X46865733Y-98345263D01*
X46718067Y-98537706D01*
X46596777Y-98747785D01*
X46596773Y-98747794D01*
X46503947Y-98971895D01*
X46441161Y-99206214D01*
X46409500Y-99446711D01*
X45204500Y-99446711D01*
X45204500Y-84358854D01*
X45475098Y-84358854D01*
X45475099Y-84358857D01*
X45513516Y-84502230D01*
X45516024Y-84511587D01*
X45531155Y-84537794D01*
X45531156Y-84537796D01*
X45595077Y-84648512D01*
X45595081Y-84648517D01*
X45713949Y-84767385D01*
X45713955Y-84767390D01*
X46232652Y-85286087D01*
X46266137Y-85347410D01*
X46261153Y-85417102D01*
X46232655Y-85461446D01*
X46205506Y-85488596D01*
X46069965Y-85682169D01*
X46069964Y-85682171D01*
X45970098Y-85896335D01*
X45970094Y-85896344D01*
X45908938Y-86124586D01*
X45908936Y-86124596D01*
X45888341Y-86359999D01*
X45888341Y-86360000D01*
X45908936Y-86595403D01*
X45908938Y-86595413D01*
X45970094Y-86823655D01*
X45970096Y-86823659D01*
X45970097Y-86823663D01*
X46039131Y-86971706D01*
X46069965Y-87037830D01*
X46069967Y-87037834D01*
X46205501Y-87231395D01*
X46205506Y-87231402D01*
X46372597Y-87398493D01*
X46372603Y-87398498D01*
X46558158Y-87528425D01*
X46601783Y-87583002D01*
X46608977Y-87652500D01*
X46577454Y-87714855D01*
X46558158Y-87731575D01*
X46372597Y-87861505D01*
X46205505Y-88028597D01*
X46069965Y-88222169D01*
X46069964Y-88222171D01*
X45970098Y-88436335D01*
X45970094Y-88436344D01*
X45908938Y-88664586D01*
X45908936Y-88664596D01*
X45888341Y-88899999D01*
X45888341Y-88900000D01*
X45908936Y-89135403D01*
X45908938Y-89135413D01*
X45970094Y-89363655D01*
X45970096Y-89363659D01*
X45970097Y-89363663D01*
X46046175Y-89526812D01*
X46069965Y-89577830D01*
X46069967Y-89577834D01*
X46158019Y-89703584D01*
X46205505Y-89771401D01*
X46372599Y-89938495D01*
X46449483Y-89992330D01*
X46566165Y-90074032D01*
X46566167Y-90074033D01*
X46566170Y-90074035D01*
X46780337Y-90173903D01*
X47008592Y-90235063D01*
X47196918Y-90251539D01*
X47243999Y-90255659D01*
X47244000Y-90255659D01*
X47244001Y-90255659D01*
X47283234Y-90252226D01*
X47479408Y-90235063D01*
X47707663Y-90173903D01*
X47921830Y-90074035D01*
X48115401Y-89938495D01*
X48282495Y-89771401D01*
X48418035Y-89577830D01*
X48517903Y-89363663D01*
X48579063Y-89135408D01*
X48599659Y-88900000D01*
X48598960Y-88892016D01*
X48594971Y-88846421D01*
X48579063Y-88664592D01*
X48517903Y-88436337D01*
X48418035Y-88222171D01*
X48309242Y-88066797D01*
X48282494Y-88028597D01*
X48115402Y-87861506D01*
X48115396Y-87861501D01*
X47929842Y-87731575D01*
X47886217Y-87676998D01*
X47879023Y-87607500D01*
X47910546Y-87545145D01*
X47929842Y-87528425D01*
X47972271Y-87498716D01*
X48115401Y-87398495D01*
X48282495Y-87231401D01*
X48418035Y-87037830D01*
X48517903Y-86823663D01*
X48579063Y-86595408D01*
X48599659Y-86360000D01*
X48579063Y-86124592D01*
X48517903Y-85896337D01*
X48418035Y-85682171D01*
X48416771Y-85680365D01*
X48282494Y-85488597D01*
X48115402Y-85321506D01*
X48115401Y-85321505D01*
X47929405Y-85191269D01*
X47885781Y-85136692D01*
X47878588Y-85067193D01*
X47910110Y-85004839D01*
X47929405Y-84988119D01*
X48115082Y-84858105D01*
X48282105Y-84691082D01*
X48417600Y-84497578D01*
X48517429Y-84283492D01*
X48517432Y-84283486D01*
X48574636Y-84070000D01*
X47677012Y-84070000D01*
X47709925Y-84012993D01*
X47744000Y-83885826D01*
X47744000Y-83754174D01*
X47709925Y-83627007D01*
X47677012Y-83570000D01*
X48633403Y-83570000D01*
X48700442Y-83589685D01*
X48721084Y-83606319D01*
X50925181Y-85810416D01*
X50958666Y-85871739D01*
X50961500Y-85898097D01*
X50961500Y-89829330D01*
X50961499Y-89829348D01*
X50961499Y-89995054D01*
X50961498Y-89995054D01*
X51002422Y-90147783D01*
X51028988Y-90193797D01*
X51081477Y-90284712D01*
X51081481Y-90284717D01*
X51200349Y-90403585D01*
X51200355Y-90403590D01*
X51638139Y-90841374D01*
X51638149Y-90841385D01*
X51642479Y-90845715D01*
X51642480Y-90845716D01*
X51754284Y-90957520D01*
X51827933Y-91000040D01*
X51841095Y-91007639D01*
X51841097Y-91007641D01*
X51879151Y-91029611D01*
X51891215Y-91036577D01*
X52043943Y-91077501D01*
X52043946Y-91077501D01*
X52209654Y-91077501D01*
X52209670Y-91077500D01*
X53520888Y-91077500D01*
X53587927Y-91097185D01*
X53633682Y-91149989D01*
X53644086Y-91208847D01*
X53644596Y-91208868D01*
X53644504Y-91211210D01*
X53644506Y-91211222D01*
X53644501Y-91211282D01*
X53644500Y-91211313D01*
X53644500Y-91642701D01*
X53647401Y-91679567D01*
X53647402Y-91679573D01*
X53693254Y-91837393D01*
X53693255Y-91837396D01*
X53693256Y-91837398D01*
X53730681Y-91900681D01*
X53776917Y-91978862D01*
X53776923Y-91978870D01*
X53893129Y-92095076D01*
X53893133Y-92095079D01*
X53893135Y-92095081D01*
X54034602Y-92178744D01*
X54076224Y-92190836D01*
X54192426Y-92224597D01*
X54192429Y-92224597D01*
X54192431Y-92224598D01*
X54229306Y-92227500D01*
X54782403Y-92227500D01*
X54849442Y-92247185D01*
X54870084Y-92263819D01*
X58071339Y-95465074D01*
X58071349Y-95465085D01*
X58075679Y-95469415D01*
X58075680Y-95469416D01*
X58187484Y-95581220D01*
X58187486Y-95581221D01*
X58187490Y-95581224D01*
X58262458Y-95624506D01*
X58324416Y-95660277D01*
X58436219Y-95690234D01*
X58477142Y-95701200D01*
X58477143Y-95701200D01*
X62905231Y-95701200D01*
X62905247Y-95701201D01*
X62912843Y-95701201D01*
X63070954Y-95701201D01*
X63070957Y-95701201D01*
X63223685Y-95660277D01*
X63285640Y-95624507D01*
X63360616Y-95581220D01*
X63472420Y-95469416D01*
X63472420Y-95469414D01*
X63482624Y-95459211D01*
X63482628Y-95459206D01*
X63711106Y-95230728D01*
X63711111Y-95230724D01*
X63721314Y-95220520D01*
X63721316Y-95220520D01*
X63833120Y-95108716D01*
X63905657Y-94983077D01*
X63912177Y-94971785D01*
X63953101Y-94819057D01*
X63953101Y-94660943D01*
X63953101Y-94653348D01*
X63953100Y-94653330D01*
X63953100Y-91253259D01*
X63953101Y-91253246D01*
X63953101Y-91085144D01*
X63953100Y-91085140D01*
X63949014Y-91069890D01*
X63950675Y-91000040D01*
X63989837Y-90942177D01*
X64002817Y-90932801D01*
X64070759Y-90890111D01*
X64072171Y-90892358D01*
X64125605Y-90870521D01*
X64194305Y-90883253D01*
X64225956Y-90906191D01*
X64945914Y-91626149D01*
X64979399Y-91687472D01*
X64980213Y-91691537D01*
X64980401Y-91692569D01*
X65026254Y-91850393D01*
X65026255Y-91850396D01*
X65109917Y-91991862D01*
X65109923Y-91991870D01*
X65226129Y-92108076D01*
X65226133Y-92108079D01*
X65226135Y-92108081D01*
X65367602Y-92191744D01*
X65409224Y-92203836D01*
X65525426Y-92237597D01*
X65525429Y-92237597D01*
X65525431Y-92237598D01*
X65562306Y-92240500D01*
X66115403Y-92240500D01*
X66182442Y-92260185D01*
X66203084Y-92276819D01*
X73013181Y-99086916D01*
X73046666Y-99148239D01*
X73049500Y-99174597D01*
X73049500Y-99957870D01*
X73049501Y-99957876D01*
X73055908Y-100017483D01*
X73106202Y-100152328D01*
X73106206Y-100152335D01*
X73192452Y-100267544D01*
X73192455Y-100267547D01*
X73307664Y-100353793D01*
X73307671Y-100353797D01*
X73442517Y-100404091D01*
X73442516Y-100404091D01*
X73449444Y-100404835D01*
X73502127Y-100410500D01*
X76135611Y-100410499D01*
X76146419Y-100410971D01*
X76199999Y-100415659D01*
X76200000Y-100415659D01*
X76200001Y-100415659D01*
X76253580Y-100410971D01*
X76264388Y-100410499D01*
X77097871Y-100410499D01*
X77097872Y-100410499D01*
X77157483Y-100404091D01*
X77292331Y-100353796D01*
X77407546Y-100267546D01*
X77493796Y-100152331D01*
X77544091Y-100017483D01*
X77550500Y-99957873D01*
X77550499Y-99124383D01*
X77550971Y-99113576D01*
X77555659Y-99060000D01*
X77555659Y-99059999D01*
X77550971Y-99006421D01*
X77550499Y-98995613D01*
X77550499Y-98829997D01*
X81194341Y-98829997D01*
X81194341Y-98830001D01*
X81199028Y-98883574D01*
X81199500Y-98894381D01*
X81199500Y-101527870D01*
X81199501Y-101527876D01*
X81205908Y-101587483D01*
X81256202Y-101722328D01*
X81256206Y-101722335D01*
X81342452Y-101837544D01*
X81342455Y-101837547D01*
X81457664Y-101923793D01*
X81457671Y-101923797D01*
X81592517Y-101974091D01*
X81592516Y-101974091D01*
X81599444Y-101974835D01*
X81652127Y-101980500D01*
X83447872Y-101980499D01*
X83507483Y-101974091D01*
X83642331Y-101923796D01*
X83746106Y-101846109D01*
X83811570Y-101821692D01*
X83879843Y-101836543D01*
X83894729Y-101846110D01*
X83997910Y-101923352D01*
X83997913Y-101923354D01*
X84132620Y-101973596D01*
X84132627Y-101973598D01*
X84192155Y-101979999D01*
X84192172Y-101980000D01*
X84840000Y-101980000D01*
X84840000Y-99274560D01*
X84893147Y-99305245D01*
X85022857Y-99340000D01*
X85157143Y-99340000D01*
X85286853Y-99305245D01*
X85340000Y-99274560D01*
X85340000Y-101980000D01*
X85987828Y-101980000D01*
X85987844Y-101979999D01*
X86047372Y-101973598D01*
X86047379Y-101973596D01*
X86182086Y-101923354D01*
X86182089Y-101923352D01*
X86285271Y-101846110D01*
X86350735Y-101821692D01*
X86419008Y-101836543D01*
X86433888Y-101846105D01*
X86537076Y-101923352D01*
X86537668Y-101923795D01*
X86537671Y-101923797D01*
X86672517Y-101974091D01*
X86672516Y-101974091D01*
X86679444Y-101974835D01*
X86732127Y-101980500D01*
X88527872Y-101980499D01*
X88587483Y-101974091D01*
X88722331Y-101923796D01*
X88837546Y-101837546D01*
X88923796Y-101722331D01*
X88974091Y-101587483D01*
X88980500Y-101527873D01*
X88980499Y-98894381D01*
X88980971Y-98883578D01*
X88985659Y-98830000D01*
X88985659Y-98829999D01*
X88980971Y-98776418D01*
X88980499Y-98765610D01*
X88980499Y-97932129D01*
X88980498Y-97932123D01*
X88980497Y-97932116D01*
X88974091Y-97872517D01*
X88971030Y-97864311D01*
X88923797Y-97737671D01*
X88923793Y-97737664D01*
X88837547Y-97622455D01*
X88837544Y-97622452D01*
X88722335Y-97536206D01*
X88722328Y-97536202D01*
X88587482Y-97485908D01*
X88587483Y-97485908D01*
X88527883Y-97479501D01*
X88527881Y-97479500D01*
X88527873Y-97479500D01*
X88527865Y-97479500D01*
X87694383Y-97479500D01*
X87683576Y-97479028D01*
X87630002Y-97474341D01*
X87629999Y-97474341D01*
X87594865Y-97477414D01*
X87576421Y-97479028D01*
X87565616Y-97479500D01*
X86732129Y-97479500D01*
X86732123Y-97479501D01*
X86672516Y-97485908D01*
X86537671Y-97536202D01*
X86537669Y-97536204D01*
X86433894Y-97613890D01*
X86368430Y-97638307D01*
X86300157Y-97623456D01*
X86285272Y-97613890D01*
X86182088Y-97536646D01*
X86182086Y-97536645D01*
X86047379Y-97486403D01*
X86047372Y-97486401D01*
X85987844Y-97480000D01*
X85340000Y-97480000D01*
X85340000Y-98385439D01*
X85286853Y-98354755D01*
X85157143Y-98320000D01*
X85022857Y-98320000D01*
X84893147Y-98354755D01*
X84840000Y-98385439D01*
X84840000Y-97480000D01*
X84192155Y-97480000D01*
X84132627Y-97486401D01*
X84132620Y-97486403D01*
X83997913Y-97536645D01*
X83997910Y-97536647D01*
X83894727Y-97613890D01*
X83829262Y-97638307D01*
X83760989Y-97623455D01*
X83746105Y-97613889D01*
X83642335Y-97536206D01*
X83642328Y-97536202D01*
X83507482Y-97485908D01*
X83507483Y-97485908D01*
X83447883Y-97479501D01*
X83447881Y-97479500D01*
X83447873Y-97479500D01*
X83447865Y-97479500D01*
X82614383Y-97479500D01*
X82603576Y-97479028D01*
X82550002Y-97474341D01*
X82549999Y-97474341D01*
X82514865Y-97477414D01*
X82496421Y-97479028D01*
X82485616Y-97479500D01*
X81652129Y-97479500D01*
X81652123Y-97479501D01*
X81592516Y-97485908D01*
X81457671Y-97536202D01*
X81457664Y-97536206D01*
X81342455Y-97622452D01*
X81342452Y-97622455D01*
X81256206Y-97737664D01*
X81256202Y-97737671D01*
X81205908Y-97872517D01*
X81199501Y-97932116D01*
X81199501Y-97932123D01*
X81199500Y-97932135D01*
X81199500Y-98765618D01*
X81199028Y-98776425D01*
X81194341Y-98829997D01*
X77550499Y-98829997D01*
X77550499Y-98162129D01*
X77550498Y-98162123D01*
X77550497Y-98162116D01*
X77544091Y-98102517D01*
X77493796Y-97967669D01*
X77416421Y-97864309D01*
X77392004Y-97798848D01*
X77406855Y-97730575D01*
X77416416Y-97715696D01*
X77493796Y-97612331D01*
X77544091Y-97477483D01*
X77550500Y-97417873D01*
X77550499Y-96584383D01*
X77550971Y-96573576D01*
X77555659Y-96520000D01*
X77555659Y-96519999D01*
X77550971Y-96466421D01*
X77550499Y-96455613D01*
X77550499Y-95622129D01*
X77550498Y-95622123D01*
X77550497Y-95622116D01*
X77544091Y-95562517D01*
X77509365Y-95469413D01*
X77493797Y-95427671D01*
X77493795Y-95427668D01*
X77416109Y-95323893D01*
X77391692Y-95258430D01*
X77406543Y-95190157D01*
X77416110Y-95175271D01*
X77493352Y-95072089D01*
X77493354Y-95072086D01*
X77543596Y-94937379D01*
X77543598Y-94937372D01*
X77549999Y-94877844D01*
X77550000Y-94877827D01*
X77550000Y-94230000D01*
X76644560Y-94230000D01*
X76675245Y-94176853D01*
X76710000Y-94047143D01*
X76710000Y-93912857D01*
X76675245Y-93783147D01*
X76644560Y-93730000D01*
X77550000Y-93730000D01*
X77550000Y-93082172D01*
X77549999Y-93082155D01*
X77543598Y-93022627D01*
X77543596Y-93022620D01*
X77493354Y-92887913D01*
X77493352Y-92887910D01*
X77416110Y-92784729D01*
X77391692Y-92719265D01*
X77406543Y-92650992D01*
X77416105Y-92636111D01*
X77493796Y-92532331D01*
X77544091Y-92397483D01*
X77550500Y-92337873D01*
X77550499Y-91504383D01*
X77550971Y-91493576D01*
X77555659Y-91440000D01*
X77555659Y-91439999D01*
X77550971Y-91386421D01*
X77550499Y-91375613D01*
X77550499Y-90542129D01*
X77550498Y-90542123D01*
X77550497Y-90542116D01*
X77544173Y-90483276D01*
X77544091Y-90482516D01*
X77493797Y-90347671D01*
X77493795Y-90347668D01*
X77450472Y-90289796D01*
X77416421Y-90244309D01*
X77392004Y-90178848D01*
X77406855Y-90110575D01*
X77416416Y-90095696D01*
X77493796Y-89992331D01*
X77544091Y-89857483D01*
X77550500Y-89797873D01*
X77550499Y-88964383D01*
X77550971Y-88953576D01*
X77555659Y-88900000D01*
X77555659Y-88899999D01*
X77550971Y-88846421D01*
X77550499Y-88835613D01*
X77550499Y-88002129D01*
X77550498Y-88002123D01*
X77550497Y-88002116D01*
X77544091Y-87942517D01*
X77525246Y-87891992D01*
X77493797Y-87807671D01*
X77493795Y-87807668D01*
X77479970Y-87789200D01*
X77416421Y-87704309D01*
X77392004Y-87638848D01*
X77406855Y-87570575D01*
X77416416Y-87555696D01*
X77493796Y-87452331D01*
X77544091Y-87317483D01*
X77550500Y-87257873D01*
X77550499Y-86424383D01*
X77550971Y-86413576D01*
X77555659Y-86360000D01*
X77555659Y-86359999D01*
X77550971Y-86306421D01*
X77550499Y-86295613D01*
X77550499Y-85462129D01*
X77550498Y-85462123D01*
X77550497Y-85462116D01*
X77544091Y-85402517D01*
X77534829Y-85377685D01*
X77493797Y-85267671D01*
X77493795Y-85267668D01*
X77478066Y-85246657D01*
X77416421Y-85164309D01*
X77392004Y-85098848D01*
X77406855Y-85030575D01*
X77416416Y-85015696D01*
X77493796Y-84912331D01*
X77544091Y-84777483D01*
X77550500Y-84717873D01*
X77550499Y-83884383D01*
X77550971Y-83873576D01*
X77555659Y-83820000D01*
X77555659Y-83819999D01*
X77550971Y-83766421D01*
X77550499Y-83755613D01*
X77550499Y-82922129D01*
X77550498Y-82922123D01*
X77550497Y-82922116D01*
X77544091Y-82862517D01*
X77535836Y-82840385D01*
X77493797Y-82727671D01*
X77493795Y-82727668D01*
X77416109Y-82623893D01*
X77391692Y-82558430D01*
X77406543Y-82490157D01*
X77416110Y-82475271D01*
X77493352Y-82372089D01*
X77493354Y-82372086D01*
X77543596Y-82237379D01*
X77543598Y-82237372D01*
X77549999Y-82177844D01*
X77550000Y-82177827D01*
X77550000Y-81530000D01*
X76644560Y-81530000D01*
X76675245Y-81476853D01*
X76710000Y-81347143D01*
X76710000Y-81212857D01*
X76675245Y-81083147D01*
X76644560Y-81030000D01*
X77550000Y-81030000D01*
X77550000Y-80382172D01*
X77549999Y-80382155D01*
X77543598Y-80322627D01*
X77543596Y-80322620D01*
X77493354Y-80187913D01*
X77493352Y-80187910D01*
X77416110Y-80084729D01*
X77391692Y-80019265D01*
X77406543Y-79950992D01*
X77416105Y-79936111D01*
X77493796Y-79832331D01*
X77544091Y-79697483D01*
X77550500Y-79637873D01*
X77550499Y-78804383D01*
X77550971Y-78793576D01*
X77555659Y-78740000D01*
X77555659Y-78739999D01*
X77550971Y-78686421D01*
X77550499Y-78675613D01*
X77550499Y-77842129D01*
X77550498Y-77842123D01*
X77550497Y-77842116D01*
X77544091Y-77782517D01*
X77536386Y-77761860D01*
X77493797Y-77647671D01*
X77493795Y-77647668D01*
X77461356Y-77604335D01*
X77416421Y-77544309D01*
X77392004Y-77478848D01*
X77406855Y-77410575D01*
X77416416Y-77395696D01*
X77493796Y-77292331D01*
X77544091Y-77157483D01*
X77550500Y-77097873D01*
X77550499Y-76264383D01*
X77550971Y-76253576D01*
X77555659Y-76200000D01*
X77555659Y-76199999D01*
X77550971Y-76146421D01*
X77550499Y-76135613D01*
X77550499Y-75302129D01*
X77550498Y-75302123D01*
X77550497Y-75302116D01*
X77544091Y-75242517D01*
X77534640Y-75217178D01*
X77493797Y-75107671D01*
X77493795Y-75107668D01*
X77475492Y-75083218D01*
X77416421Y-75004309D01*
X77392004Y-74938848D01*
X77406855Y-74870575D01*
X77416416Y-74855696D01*
X77493796Y-74752331D01*
X77544091Y-74617483D01*
X77550500Y-74557873D01*
X77550499Y-73724383D01*
X77550971Y-73713576D01*
X77555659Y-73660000D01*
X77555659Y-73659999D01*
X77550971Y-73606421D01*
X77550499Y-73595613D01*
X77550499Y-72762129D01*
X77550498Y-72762123D01*
X77550497Y-72762116D01*
X77544091Y-72702517D01*
X77515385Y-72625553D01*
X77493797Y-72567671D01*
X77493795Y-72567668D01*
X77416421Y-72464309D01*
X77392004Y-72398848D01*
X77406855Y-72330575D01*
X77416416Y-72315696D01*
X77493796Y-72212331D01*
X77544091Y-72077483D01*
X77550500Y-72017873D01*
X77550499Y-71184383D01*
X77550971Y-71173576D01*
X77555659Y-71120000D01*
X77555659Y-71119999D01*
X77550971Y-71066421D01*
X77550499Y-71055613D01*
X77550499Y-70222129D01*
X77550498Y-70222123D01*
X77550497Y-70222116D01*
X77544091Y-70162517D01*
X77539863Y-70151182D01*
X77493797Y-70027671D01*
X77493795Y-70027668D01*
X77416109Y-69923893D01*
X77391692Y-69858430D01*
X77406543Y-69790157D01*
X77416110Y-69775271D01*
X77493352Y-69672089D01*
X77493354Y-69672086D01*
X77543596Y-69537379D01*
X77543598Y-69537372D01*
X77549999Y-69477844D01*
X77550000Y-69477827D01*
X77550000Y-68830000D01*
X76644560Y-68830000D01*
X76675245Y-68776853D01*
X76710000Y-68647143D01*
X76710000Y-68512857D01*
X76675245Y-68383147D01*
X76644560Y-68330000D01*
X77550000Y-68330000D01*
X77550000Y-67682172D01*
X77549999Y-67682155D01*
X77543598Y-67622627D01*
X77543596Y-67622620D01*
X77493354Y-67487913D01*
X77493352Y-67487910D01*
X77416110Y-67384729D01*
X77391692Y-67319265D01*
X77406543Y-67250992D01*
X77416105Y-67236111D01*
X77493796Y-67132331D01*
X77544091Y-66997483D01*
X77550500Y-66937873D01*
X77550499Y-66104383D01*
X77550971Y-66093576D01*
X77555659Y-66040000D01*
X77555659Y-66039999D01*
X77550971Y-65986421D01*
X77550499Y-65975613D01*
X77550499Y-65494500D01*
X77570184Y-65427461D01*
X77622988Y-65381706D01*
X77674499Y-65370500D01*
X88933231Y-65370500D01*
X88933247Y-65370501D01*
X88940843Y-65370501D01*
X89098954Y-65370501D01*
X89098957Y-65370501D01*
X89251685Y-65329577D01*
X89320580Y-65289800D01*
X89388616Y-65250520D01*
X89500420Y-65138716D01*
X89500420Y-65138714D01*
X89510624Y-65128511D01*
X89510627Y-65128506D01*
X92542462Y-62096672D01*
X92603783Y-62063189D01*
X92673475Y-62068173D01*
X92729408Y-62110044D01*
X92763578Y-62155689D01*
X92787995Y-62221153D01*
X92773144Y-62289426D01*
X92763578Y-62304311D01*
X92686203Y-62407669D01*
X92686202Y-62407671D01*
X92635908Y-62542517D01*
X92629501Y-62602116D01*
X92629501Y-62602123D01*
X92629500Y-62602135D01*
X92629500Y-63435616D01*
X92629028Y-63446423D01*
X92624341Y-63499997D01*
X92624341Y-63500002D01*
X92629028Y-63553576D01*
X92629500Y-63564383D01*
X92629500Y-64397870D01*
X92629501Y-64397876D01*
X92635908Y-64457483D01*
X92686202Y-64592328D01*
X92686203Y-64592330D01*
X92763578Y-64695689D01*
X92787995Y-64761153D01*
X92773144Y-64829426D01*
X92763578Y-64844311D01*
X92686203Y-64947669D01*
X92686202Y-64947671D01*
X92635908Y-65082517D01*
X92632724Y-65112137D01*
X92629501Y-65142123D01*
X92629500Y-65142135D01*
X92629500Y-65975616D01*
X92629028Y-65986423D01*
X92624341Y-66039997D01*
X92624341Y-66040002D01*
X92629028Y-66093576D01*
X92629500Y-66104383D01*
X92629500Y-66937870D01*
X92629501Y-66937876D01*
X92635908Y-66997483D01*
X92686202Y-67132328D01*
X92686206Y-67132335D01*
X92763889Y-67236105D01*
X92788307Y-67301569D01*
X92773456Y-67369842D01*
X92763890Y-67384727D01*
X92686647Y-67487910D01*
X92686645Y-67487913D01*
X92636403Y-67622620D01*
X92636401Y-67622627D01*
X92630000Y-67682155D01*
X92630000Y-68330000D01*
X93535440Y-68330000D01*
X93504755Y-68383147D01*
X93470000Y-68512857D01*
X93470000Y-68647143D01*
X93504755Y-68776853D01*
X93535440Y-68830000D01*
X92630000Y-68830000D01*
X92630000Y-69477844D01*
X92636401Y-69537372D01*
X92636403Y-69537379D01*
X92686645Y-69672086D01*
X92686646Y-69672088D01*
X92763890Y-69775272D01*
X92788307Y-69840736D01*
X92773456Y-69909009D01*
X92763890Y-69923894D01*
X92686204Y-70027669D01*
X92686202Y-70027671D01*
X92635908Y-70162517D01*
X92629501Y-70222116D01*
X92629501Y-70222123D01*
X92629500Y-70222135D01*
X92629500Y-71055616D01*
X92629028Y-71066423D01*
X92624341Y-71119997D01*
X92624341Y-71120002D01*
X92629028Y-71173576D01*
X92629500Y-71184383D01*
X92629500Y-72017870D01*
X92629501Y-72017876D01*
X92635908Y-72077483D01*
X92686202Y-72212328D01*
X92686203Y-72212330D01*
X92730871Y-72271998D01*
X92747716Y-72294501D01*
X92763578Y-72315689D01*
X92787995Y-72381153D01*
X92773144Y-72449426D01*
X92763578Y-72464311D01*
X92686203Y-72567669D01*
X92686202Y-72567671D01*
X92635908Y-72702517D01*
X92633828Y-72721870D01*
X92629501Y-72762123D01*
X92629500Y-72762135D01*
X92629500Y-73595616D01*
X92629028Y-73606423D01*
X92624341Y-73659997D01*
X92624341Y-73660002D01*
X92629028Y-73713576D01*
X92629500Y-73724383D01*
X92629500Y-74557870D01*
X92629501Y-74557876D01*
X92635908Y-74617483D01*
X92686202Y-74752328D01*
X92686203Y-74752330D01*
X92763578Y-74855689D01*
X92787995Y-74921153D01*
X92773144Y-74989426D01*
X92763578Y-75004311D01*
X92686203Y-75107669D01*
X92686202Y-75107671D01*
X92635908Y-75242517D01*
X92629559Y-75301576D01*
X92629501Y-75302123D01*
X92629500Y-75302135D01*
X92629500Y-76135616D01*
X92629028Y-76146423D01*
X92624341Y-76199997D01*
X92624341Y-76200002D01*
X92629028Y-76253576D01*
X92629500Y-76264383D01*
X92629500Y-77097870D01*
X92629501Y-77097876D01*
X92635908Y-77157483D01*
X92686202Y-77292328D01*
X92686203Y-77292330D01*
X92686204Y-77292331D01*
X92740778Y-77365233D01*
X92763578Y-77395689D01*
X92787995Y-77461153D01*
X92773144Y-77529426D01*
X92763578Y-77544311D01*
X92686203Y-77647669D01*
X92686202Y-77647671D01*
X92635908Y-77782517D01*
X92629501Y-77842116D01*
X92629501Y-77842123D01*
X92629500Y-77842135D01*
X92629500Y-78675616D01*
X92629028Y-78686423D01*
X92624341Y-78739997D01*
X92624341Y-78740002D01*
X92629028Y-78793576D01*
X92629500Y-78804383D01*
X92629500Y-79637870D01*
X92629501Y-79637876D01*
X92635908Y-79697483D01*
X92686202Y-79832328D01*
X92686206Y-79832335D01*
X92763889Y-79936105D01*
X92788307Y-80001569D01*
X92773456Y-80069842D01*
X92763890Y-80084727D01*
X92686647Y-80187910D01*
X92686645Y-80187913D01*
X92636403Y-80322620D01*
X92636401Y-80322627D01*
X92630000Y-80382155D01*
X92630000Y-81030000D01*
X93535440Y-81030000D01*
X93504755Y-81083147D01*
X93470000Y-81212857D01*
X93470000Y-81347143D01*
X93504755Y-81476853D01*
X93535440Y-81530000D01*
X92630000Y-81530000D01*
X92630000Y-82177844D01*
X92636401Y-82237372D01*
X92636403Y-82237379D01*
X92686645Y-82372086D01*
X92686646Y-82372088D01*
X92763890Y-82475272D01*
X92788307Y-82540736D01*
X92773456Y-82609009D01*
X92763890Y-82623894D01*
X92686204Y-82727669D01*
X92686202Y-82727671D01*
X92635908Y-82862517D01*
X92632619Y-82893115D01*
X92629501Y-82922123D01*
X92629500Y-82922135D01*
X92629500Y-83755616D01*
X92629028Y-83766423D01*
X92624341Y-83819997D01*
X92624341Y-83820002D01*
X92629028Y-83873576D01*
X92629500Y-83884383D01*
X92629500Y-84717870D01*
X92629501Y-84717876D01*
X92635908Y-84777483D01*
X92686202Y-84912328D01*
X92686203Y-84912330D01*
X92763578Y-85015689D01*
X92787995Y-85081153D01*
X92773144Y-85149426D01*
X92763578Y-85164311D01*
X92686203Y-85267669D01*
X92686202Y-85267671D01*
X92635908Y-85402517D01*
X92630234Y-85455300D01*
X92629501Y-85462123D01*
X92629500Y-85462135D01*
X92629500Y-86295616D01*
X92629028Y-86306423D01*
X92624341Y-86359997D01*
X92624341Y-86360002D01*
X92629028Y-86413576D01*
X92629500Y-86424383D01*
X92629500Y-87257870D01*
X92629501Y-87257876D01*
X92635908Y-87317483D01*
X92686202Y-87452328D01*
X92686203Y-87452330D01*
X92686204Y-87452331D01*
X92763576Y-87555687D01*
X92763578Y-87555689D01*
X92787995Y-87621153D01*
X92773144Y-87689426D01*
X92763578Y-87704311D01*
X92686203Y-87807669D01*
X92686202Y-87807671D01*
X92635908Y-87942517D01*
X92631268Y-87985682D01*
X92629501Y-88002123D01*
X92629500Y-88002135D01*
X92629500Y-88835616D01*
X92629028Y-88846423D01*
X92624341Y-88899997D01*
X92624341Y-88900002D01*
X92629028Y-88953576D01*
X92629500Y-88964383D01*
X92629500Y-89797870D01*
X92629501Y-89797876D01*
X92635908Y-89857483D01*
X92686202Y-89992328D01*
X92686203Y-89992330D01*
X92763578Y-90095689D01*
X92787995Y-90161153D01*
X92773144Y-90229426D01*
X92763578Y-90244311D01*
X92686203Y-90347669D01*
X92686202Y-90347671D01*
X92635908Y-90482517D01*
X92631610Y-90522499D01*
X92629501Y-90542123D01*
X92629500Y-90542135D01*
X92629500Y-91375616D01*
X92629028Y-91386423D01*
X92624341Y-91439997D01*
X92624341Y-91440002D01*
X92629028Y-91493576D01*
X92629500Y-91504383D01*
X92629500Y-92337870D01*
X92629501Y-92337876D01*
X92635908Y-92397483D01*
X92686202Y-92532328D01*
X92686206Y-92532335D01*
X92763889Y-92636105D01*
X92788307Y-92701569D01*
X92773456Y-92769842D01*
X92763890Y-92784727D01*
X92686647Y-92887910D01*
X92686645Y-92887913D01*
X92636403Y-93022620D01*
X92636401Y-93022627D01*
X92630000Y-93082155D01*
X92630000Y-93730000D01*
X93535440Y-93730000D01*
X93504755Y-93783147D01*
X93470000Y-93912857D01*
X93470000Y-94047143D01*
X93504755Y-94176853D01*
X93535440Y-94230000D01*
X92630000Y-94230000D01*
X92630000Y-94877844D01*
X92636401Y-94937372D01*
X92636403Y-94937379D01*
X92686645Y-95072086D01*
X92686646Y-95072088D01*
X92763890Y-95175272D01*
X92788307Y-95240736D01*
X92773456Y-95309009D01*
X92763890Y-95323894D01*
X92686204Y-95427669D01*
X92686202Y-95427671D01*
X92635908Y-95562517D01*
X92629501Y-95622116D01*
X92629501Y-95622123D01*
X92629500Y-95622135D01*
X92629500Y-96455616D01*
X92629028Y-96466423D01*
X92624341Y-96519997D01*
X92624341Y-96520002D01*
X92629028Y-96573576D01*
X92629500Y-96584383D01*
X92629500Y-97417870D01*
X92629501Y-97417876D01*
X92635908Y-97477483D01*
X92686202Y-97612328D01*
X92686203Y-97612330D01*
X92763578Y-97715689D01*
X92787995Y-97781153D01*
X92773144Y-97849426D01*
X92763578Y-97864311D01*
X92686203Y-97967669D01*
X92686202Y-97967671D01*
X92635908Y-98102517D01*
X92629501Y-98162116D01*
X92629501Y-98162123D01*
X92629500Y-98162135D01*
X92629500Y-98995616D01*
X92629028Y-99006423D01*
X92624341Y-99059997D01*
X92624341Y-99060002D01*
X92629028Y-99113576D01*
X92629500Y-99124383D01*
X92629500Y-99957870D01*
X92629501Y-99957876D01*
X92635908Y-100017483D01*
X92686202Y-100152328D01*
X92686206Y-100152335D01*
X92772452Y-100267544D01*
X92772455Y-100267547D01*
X92887664Y-100353793D01*
X92887671Y-100353797D01*
X93022517Y-100404091D01*
X93022516Y-100404091D01*
X93029444Y-100404835D01*
X93082127Y-100410500D01*
X93915616Y-100410499D01*
X93926425Y-100410971D01*
X93980000Y-100415659D01*
X94033575Y-100410971D01*
X94044384Y-100410499D01*
X96677871Y-100410499D01*
X96677872Y-100410499D01*
X96737483Y-100404091D01*
X96872331Y-100353796D01*
X96987546Y-100267546D01*
X97073796Y-100152331D01*
X97124091Y-100017483D01*
X97130500Y-99957873D01*
X97130500Y-99446711D01*
X118037500Y-99446711D01*
X118037500Y-99689288D01*
X118069161Y-99929785D01*
X118131947Y-100164104D01*
X118224773Y-100388205D01*
X118224777Y-100388214D01*
X118246974Y-100426661D01*
X118346064Y-100598289D01*
X118346066Y-100598292D01*
X118346067Y-100598293D01*
X118493733Y-100790736D01*
X118493739Y-100790743D01*
X118665256Y-100962260D01*
X118665262Y-100962265D01*
X118857711Y-101109936D01*
X119067788Y-101231224D01*
X119291900Y-101324054D01*
X119526211Y-101386838D01*
X119706586Y-101410584D01*
X119766711Y-101418500D01*
X119766712Y-101418500D01*
X120009289Y-101418500D01*
X120057388Y-101412167D01*
X120249789Y-101386838D01*
X120484100Y-101324054D01*
X120708212Y-101231224D01*
X120918289Y-101109936D01*
X121110738Y-100962265D01*
X121282265Y-100790738D01*
X121429936Y-100598289D01*
X121551224Y-100388212D01*
X121644054Y-100164100D01*
X121706838Y-99929789D01*
X121738500Y-99689288D01*
X121738500Y-99446712D01*
X121706838Y-99206211D01*
X121644054Y-98971900D01*
X121551224Y-98747788D01*
X121429936Y-98537711D01*
X121282265Y-98345262D01*
X121282260Y-98345256D01*
X121110743Y-98173739D01*
X121110736Y-98173733D01*
X120918293Y-98026067D01*
X120918292Y-98026066D01*
X120918289Y-98026064D01*
X120708212Y-97904776D01*
X120630332Y-97872517D01*
X120484104Y-97811947D01*
X120249785Y-97749161D01*
X120009289Y-97717500D01*
X120009288Y-97717500D01*
X119766712Y-97717500D01*
X119766711Y-97717500D01*
X119526214Y-97749161D01*
X119291895Y-97811947D01*
X119067794Y-97904773D01*
X119067785Y-97904777D01*
X118857706Y-98026067D01*
X118665263Y-98173733D01*
X118665256Y-98173739D01*
X118493739Y-98345256D01*
X118493733Y-98345263D01*
X118346067Y-98537706D01*
X118224777Y-98747785D01*
X118224773Y-98747794D01*
X118131947Y-98971895D01*
X118069161Y-99206214D01*
X118037500Y-99446711D01*
X97130500Y-99446711D01*
X97130499Y-98162128D01*
X97124091Y-98102517D01*
X97073796Y-97967669D01*
X96996421Y-97864309D01*
X96972004Y-97798848D01*
X96986855Y-97730575D01*
X96996416Y-97715696D01*
X97073796Y-97612331D01*
X97124091Y-97477483D01*
X97130500Y-97417873D01*
X97130499Y-95622128D01*
X97124091Y-95562517D01*
X97089365Y-95469413D01*
X97073797Y-95427671D01*
X97073795Y-95427668D01*
X96996109Y-95323893D01*
X96971692Y-95258430D01*
X96986543Y-95190157D01*
X96996110Y-95175271D01*
X97073352Y-95072089D01*
X97073354Y-95072086D01*
X97123596Y-94937379D01*
X97123598Y-94937372D01*
X97129999Y-94877844D01*
X97130000Y-94877827D01*
X97130000Y-94230000D01*
X94424560Y-94230000D01*
X94455245Y-94176853D01*
X94490000Y-94047143D01*
X94490000Y-93912857D01*
X94455245Y-93783147D01*
X94424560Y-93730000D01*
X97130000Y-93730000D01*
X97130000Y-93082172D01*
X97129999Y-93082155D01*
X97123598Y-93022627D01*
X97123596Y-93022620D01*
X97073354Y-92887913D01*
X97073352Y-92887910D01*
X96996110Y-92784729D01*
X96971692Y-92719265D01*
X96986543Y-92650992D01*
X96996103Y-92636115D01*
X97030593Y-92590042D01*
X97086525Y-92548173D01*
X97156217Y-92543189D01*
X97217539Y-92576674D01*
X97461239Y-92820374D01*
X97461249Y-92820385D01*
X97465579Y-92824715D01*
X97465580Y-92824716D01*
X97577384Y-92936520D01*
X97645305Y-92975733D01*
X97664195Y-92986639D01*
X97664197Y-92986641D01*
X97694676Y-93004238D01*
X97714315Y-93015577D01*
X97867043Y-93056501D01*
X97867046Y-93056501D01*
X98032753Y-93056501D01*
X98032769Y-93056500D01*
X100927699Y-93056500D01*
X100994738Y-93076185D01*
X101040493Y-93128989D01*
X101045403Y-93141492D01*
X101073186Y-93225334D01*
X101165288Y-93374656D01*
X101289344Y-93498712D01*
X101438666Y-93590814D01*
X101605203Y-93645999D01*
X101707991Y-93656500D01*
X102508008Y-93656499D01*
X102508016Y-93656498D01*
X102508019Y-93656498D01*
X102564302Y-93650748D01*
X102610797Y-93645999D01*
X102777334Y-93590814D01*
X102926656Y-93498712D01*
X103020319Y-93405049D01*
X103081642Y-93371564D01*
X103151334Y-93376548D01*
X103195681Y-93405049D01*
X103289344Y-93498712D01*
X103438666Y-93590814D01*
X103605203Y-93645999D01*
X103707991Y-93656500D01*
X104508008Y-93656499D01*
X104508016Y-93656498D01*
X104508019Y-93656498D01*
X104564302Y-93650748D01*
X104610797Y-93645999D01*
X104777334Y-93590814D01*
X104926656Y-93498712D01*
X105050712Y-93374656D01*
X105142814Y-93225334D01*
X105197999Y-93058797D01*
X105208500Y-92956009D01*
X105208499Y-91955992D01*
X105197999Y-91853203D01*
X105142814Y-91686666D01*
X105050712Y-91537344D01*
X104926656Y-91413288D01*
X104777334Y-91321186D01*
X104777332Y-91321185D01*
X104771187Y-91317395D01*
X104772290Y-91315605D01*
X104727649Y-91276290D01*
X104708500Y-91210091D01*
X104708500Y-89649767D01*
X104728185Y-89582728D01*
X104780989Y-89536973D01*
X104793479Y-89532067D01*
X104809334Y-89526814D01*
X104958656Y-89434712D01*
X105082712Y-89310656D01*
X105174814Y-89161334D01*
X105229999Y-88994797D01*
X105240500Y-88892009D01*
X105240499Y-87891992D01*
X105236895Y-87856715D01*
X105229999Y-87789203D01*
X105229998Y-87789200D01*
X105209044Y-87725965D01*
X105174814Y-87622666D01*
X105174401Y-87621996D01*
X108854584Y-87621996D01*
X108854584Y-87622003D01*
X108874229Y-87959298D01*
X108874230Y-87959309D01*
X108932896Y-88292017D01*
X108932899Y-88292031D01*
X109029801Y-88615710D01*
X109163621Y-88925939D01*
X109163627Y-88925952D01*
X109332560Y-89218553D01*
X109534318Y-89489561D01*
X109534323Y-89489567D01*
X109621528Y-89581998D01*
X109766183Y-89735323D01*
X109766189Y-89735328D01*
X109766191Y-89735330D01*
X110025001Y-89952499D01*
X110089561Y-89994960D01*
X110307292Y-90138164D01*
X110609224Y-90289800D01*
X110926717Y-90405358D01*
X111255480Y-90483276D01*
X111591065Y-90522500D01*
X111591072Y-90522500D01*
X111928928Y-90522500D01*
X111928935Y-90522500D01*
X112264520Y-90483276D01*
X112593283Y-90405358D01*
X112910776Y-90289800D01*
X113212708Y-90138164D01*
X113494994Y-89952502D01*
X113511684Y-89938498D01*
X113609029Y-89856815D01*
X113753817Y-89735323D01*
X113985678Y-89489565D01*
X114187440Y-89218552D01*
X114356375Y-88925948D01*
X114490198Y-88615711D01*
X114587100Y-88292035D01*
X114645771Y-87959298D01*
X114665377Y-87622666D01*
X114665416Y-87622003D01*
X114665416Y-87621996D01*
X114659966Y-87528425D01*
X114645771Y-87284702D01*
X114636371Y-87231395D01*
X114587103Y-86951982D01*
X114587102Y-86951981D01*
X114587100Y-86951965D01*
X114490198Y-86628289D01*
X114356375Y-86318052D01*
X114187440Y-86025448D01*
X114187439Y-86025446D01*
X113985681Y-85754438D01*
X113985676Y-85754432D01*
X113859962Y-85621184D01*
X113753817Y-85508677D01*
X113753810Y-85508671D01*
X113753808Y-85508669D01*
X113494998Y-85291500D01*
X113342603Y-85191269D01*
X113212708Y-85105836D01*
X113163560Y-85081153D01*
X112910783Y-84954203D01*
X112910777Y-84954200D01*
X112593284Y-84838642D01*
X112593281Y-84838641D01*
X112335232Y-84777483D01*
X112264520Y-84760724D01*
X111928935Y-84721500D01*
X111591065Y-84721500D01*
X111258928Y-84760321D01*
X111255480Y-84760724D01*
X110926718Y-84838641D01*
X110926715Y-84838642D01*
X110609222Y-84954200D01*
X110609216Y-84954203D01*
X110307295Y-85105834D01*
X110025001Y-85291500D01*
X109766191Y-85508669D01*
X109766181Y-85508679D01*
X109534323Y-85754432D01*
X109534318Y-85754438D01*
X109332560Y-86025446D01*
X109163627Y-86318047D01*
X109163621Y-86318060D01*
X109029801Y-86628289D01*
X108932899Y-86951968D01*
X108932896Y-86951982D01*
X108874230Y-87284690D01*
X108874229Y-87284701D01*
X108854584Y-87621996D01*
X105174401Y-87621996D01*
X105082712Y-87473344D01*
X104958656Y-87349288D01*
X104810448Y-87257873D01*
X104809336Y-87257187D01*
X104809331Y-87257185D01*
X104807862Y-87256698D01*
X104642797Y-87202001D01*
X104642795Y-87202000D01*
X104540016Y-87191500D01*
X104540009Y-87191500D01*
X103963100Y-87191500D01*
X103896061Y-87171815D01*
X103850306Y-87119011D01*
X103839100Y-87067500D01*
X103839100Y-85652499D01*
X103858785Y-85585460D01*
X103911589Y-85539705D01*
X103963100Y-85528499D01*
X104540002Y-85528499D01*
X104540008Y-85528499D01*
X104642797Y-85517999D01*
X104809334Y-85462814D01*
X104958656Y-85370712D01*
X105082712Y-85246656D01*
X105174814Y-85097334D01*
X105229999Y-84930797D01*
X105240500Y-84828009D01*
X105240499Y-84128095D01*
X105260183Y-84061057D01*
X105276813Y-84040420D01*
X108373706Y-80943528D01*
X108373711Y-80943524D01*
X108383914Y-80933320D01*
X108383916Y-80933320D01*
X108495720Y-80821516D01*
X108574777Y-80684584D01*
X108609495Y-80555015D01*
X108615700Y-80531858D01*
X108615700Y-80531855D01*
X108617754Y-80524189D01*
X108649849Y-80468597D01*
X108737037Y-80381408D01*
X108754075Y-80444993D01*
X108819901Y-80559007D01*
X108912993Y-80652099D01*
X109027007Y-80717925D01*
X109090590Y-80734962D01*
X108512476Y-81313074D01*
X108512477Y-81313075D01*
X108580062Y-81360398D01*
X108580064Y-81360399D01*
X108782252Y-81454681D01*
X108782263Y-81454685D01*
X108997751Y-81512425D01*
X108997758Y-81512426D01*
X109219998Y-81531870D01*
X109220002Y-81531870D01*
X109442241Y-81512426D01*
X109442248Y-81512425D01*
X109657736Y-81454685D01*
X109657747Y-81454681D01*
X109859931Y-81360401D01*
X109859933Y-81360400D01*
X109927522Y-81313074D01*
X109349409Y-80734962D01*
X109412993Y-80717925D01*
X109527007Y-80652099D01*
X109620099Y-80559007D01*
X109685925Y-80444993D01*
X109702962Y-80381410D01*
X110281074Y-80959522D01*
X110328400Y-80891933D01*
X110328401Y-80891931D01*
X110422681Y-80689747D01*
X110422685Y-80689736D01*
X110480425Y-80474248D01*
X110480426Y-80474241D01*
X110499870Y-80252001D01*
X110499870Y-80251998D01*
X110480426Y-80029758D01*
X110480425Y-80029750D01*
X110435744Y-79862999D01*
X110437407Y-79793149D01*
X110476569Y-79735286D01*
X110540798Y-79707782D01*
X110609700Y-79719368D01*
X110657094Y-79759782D01*
X110698923Y-79819521D01*
X110698924Y-79819522D01*
X111277037Y-79241409D01*
X111294075Y-79304993D01*
X111359901Y-79419007D01*
X111452993Y-79512099D01*
X111567007Y-79577925D01*
X111630590Y-79594962D01*
X111052476Y-80173074D01*
X111052477Y-80173075D01*
X111120062Y-80220398D01*
X111120064Y-80220399D01*
X111322252Y-80314681D01*
X111322263Y-80314685D01*
X111537751Y-80372425D01*
X111537758Y-80372426D01*
X111759998Y-80391870D01*
X111760002Y-80391870D01*
X111982241Y-80372426D01*
X111982248Y-80372425D01*
X112197736Y-80314685D01*
X112197747Y-80314681D01*
X112399931Y-80220401D01*
X112399933Y-80220400D01*
X112467522Y-80173074D01*
X111889409Y-79594962D01*
X111952993Y-79577925D01*
X112067007Y-79512099D01*
X112160099Y-79419007D01*
X112225925Y-79304993D01*
X112242962Y-79241409D01*
X112821074Y-79819522D01*
X112862067Y-79760979D01*
X112916644Y-79717354D01*
X112986142Y-79710160D01*
X113048497Y-79741683D01*
X113083911Y-79801913D01*
X113083417Y-79864195D01*
X113039081Y-80029660D01*
X113039079Y-80029670D01*
X113019628Y-80251999D01*
X113019628Y-80252000D01*
X113039079Y-80474329D01*
X113039081Y-80474339D01*
X113096841Y-80689905D01*
X113096843Y-80689909D01*
X113096844Y-80689913D01*
X113191165Y-80892186D01*
X113319178Y-81075007D01*
X113476993Y-81232822D01*
X113659814Y-81360835D01*
X113862087Y-81455156D01*
X114077666Y-81512920D01*
X114255533Y-81528481D01*
X114299999Y-81532372D01*
X114300000Y-81532372D01*
X114300001Y-81532372D01*
X114337055Y-81529130D01*
X114522334Y-81512920D01*
X114737913Y-81455156D01*
X114940186Y-81360835D01*
X115123007Y-81232822D01*
X115280822Y-81075007D01*
X115408835Y-80892186D01*
X115503156Y-80689913D01*
X115560920Y-80474334D01*
X115580372Y-80252000D01*
X115560920Y-80029666D01*
X115508046Y-79832335D01*
X115503158Y-79814094D01*
X115503157Y-79814093D01*
X115503156Y-79814087D01*
X115408835Y-79611814D01*
X115280822Y-79428993D01*
X115123007Y-79271178D01*
X115040737Y-79213572D01*
X114997115Y-79158998D01*
X114989923Y-79089499D01*
X115021445Y-79027145D01*
X115040733Y-79010430D01*
X115123007Y-78952822D01*
X115280822Y-78795007D01*
X115408835Y-78612186D01*
X115503156Y-78409913D01*
X115560920Y-78194334D01*
X115580372Y-77972000D01*
X115560920Y-77749666D01*
X115503156Y-77534087D01*
X115408835Y-77331814D01*
X115280822Y-77148993D01*
X115123007Y-76991178D01*
X115040737Y-76933572D01*
X114997115Y-76878998D01*
X114989923Y-76809499D01*
X115021445Y-76747145D01*
X115040733Y-76730430D01*
X115123007Y-76672822D01*
X115280822Y-76515007D01*
X115408835Y-76332186D01*
X115503156Y-76129913D01*
X115560920Y-75914334D01*
X115580372Y-75692000D01*
X115560920Y-75469666D01*
X115516029Y-75302129D01*
X115503158Y-75254094D01*
X115503157Y-75254093D01*
X115503156Y-75254087D01*
X115408835Y-75051814D01*
X115280822Y-74868993D01*
X115123007Y-74711178D01*
X115040737Y-74653572D01*
X114997115Y-74598998D01*
X114989923Y-74529499D01*
X115021445Y-74467145D01*
X115040733Y-74450430D01*
X115123007Y-74392822D01*
X115280822Y-74235007D01*
X115408835Y-74052186D01*
X115503156Y-73849913D01*
X115560920Y-73634334D01*
X115580372Y-73412000D01*
X115577712Y-73381602D01*
X115567097Y-73260268D01*
X115560920Y-73189666D01*
X115503156Y-72974087D01*
X115408835Y-72771814D01*
X115280822Y-72588993D01*
X115123007Y-72431178D01*
X115040737Y-72373572D01*
X114997115Y-72318998D01*
X114989923Y-72249499D01*
X115021445Y-72187145D01*
X115040733Y-72170430D01*
X115123007Y-72112822D01*
X115280822Y-71955007D01*
X115408835Y-71772186D01*
X115503156Y-71569913D01*
X115560920Y-71354334D01*
X115580372Y-71132000D01*
X115560920Y-70909666D01*
X115503156Y-70694087D01*
X115408835Y-70491814D01*
X115280822Y-70308993D01*
X115123007Y-70151178D01*
X114940186Y-70023165D01*
X114737913Y-69928844D01*
X114737909Y-69928843D01*
X114737905Y-69928841D01*
X114522339Y-69871081D01*
X114522329Y-69871079D01*
X114300001Y-69851628D01*
X114299999Y-69851628D01*
X114077670Y-69871079D01*
X114077660Y-69871081D01*
X113862094Y-69928841D01*
X113862087Y-69928843D01*
X113862087Y-69928844D01*
X113659814Y-70023165D01*
X113476993Y-70151178D01*
X113476991Y-70151179D01*
X113476988Y-70151182D01*
X113319178Y-70308992D01*
X113197471Y-70482806D01*
X113142894Y-70526431D01*
X113073396Y-70533623D01*
X113011041Y-70502100D01*
X112975628Y-70441870D01*
X112976122Y-70379588D01*
X113020425Y-70214248D01*
X113020426Y-70214241D01*
X113039870Y-69992001D01*
X113039870Y-69991998D01*
X113020426Y-69769758D01*
X113020425Y-69769751D01*
X112962685Y-69554263D01*
X112962681Y-69554252D01*
X112868399Y-69352064D01*
X112868398Y-69352062D01*
X112821075Y-69284477D01*
X112821074Y-69284476D01*
X112242962Y-69862589D01*
X112225925Y-69799007D01*
X112160099Y-69684993D01*
X112067007Y-69591901D01*
X111952993Y-69526075D01*
X111889410Y-69509037D01*
X112467522Y-68930924D01*
X112467521Y-68930923D01*
X112399937Y-68883601D01*
X112399935Y-68883600D01*
X112197747Y-68789318D01*
X112197736Y-68789314D01*
X111982248Y-68731574D01*
X111982241Y-68731573D01*
X111760002Y-68712130D01*
X111759998Y-68712130D01*
X111537758Y-68731573D01*
X111537751Y-68731574D01*
X111322263Y-68789314D01*
X111322252Y-68789318D01*
X111120066Y-68883598D01*
X111052477Y-68930924D01*
X111630590Y-69509037D01*
X111567007Y-69526075D01*
X111452993Y-69591901D01*
X111359901Y-69684993D01*
X111294075Y-69799007D01*
X111277037Y-69862590D01*
X110698924Y-69284477D01*
X110651598Y-69352066D01*
X110557318Y-69554252D01*
X110557314Y-69554263D01*
X110499574Y-69769751D01*
X110499573Y-69769758D01*
X110480130Y-69991998D01*
X110480130Y-69992001D01*
X110499573Y-70214241D01*
X110499575Y-70214252D01*
X110543877Y-70379589D01*
X110542214Y-70449439D01*
X110503051Y-70507301D01*
X110438823Y-70534805D01*
X110369921Y-70523218D01*
X110322528Y-70482807D01*
X110200822Y-70308993D01*
X110043007Y-70151178D01*
X109860186Y-70023165D01*
X109657913Y-69928844D01*
X109657909Y-69928843D01*
X109657905Y-69928841D01*
X109442339Y-69871081D01*
X109442329Y-69871079D01*
X109220001Y-69851628D01*
X109219999Y-69851628D01*
X108997670Y-69871079D01*
X108997660Y-69871081D01*
X108782094Y-69928841D01*
X108782087Y-69928843D01*
X108782087Y-69928844D01*
X108579814Y-70023165D01*
X108396993Y-70151178D01*
X108396991Y-70151179D01*
X108396988Y-70151182D01*
X108239182Y-70308988D01*
X108239179Y-70308991D01*
X108239178Y-70308993D01*
X108111165Y-70491814D01*
X108016845Y-70694085D01*
X108016841Y-70694094D01*
X107959081Y-70909660D01*
X107959079Y-70909670D01*
X107939628Y-71131999D01*
X107939628Y-71132000D01*
X107959079Y-71354329D01*
X107959081Y-71354339D01*
X107980565Y-71434518D01*
X107978902Y-71504368D01*
X107948471Y-71554292D01*
X103803286Y-75699478D01*
X103691481Y-75811282D01*
X103691480Y-75811284D01*
X103657610Y-75869949D01*
X103612423Y-75948215D01*
X103571499Y-76100943D01*
X103571499Y-76100945D01*
X103571499Y-76269046D01*
X103571500Y-76269059D01*
X103571500Y-79018091D01*
X103551815Y-79085130D01*
X103507731Y-79123641D01*
X103508813Y-79125395D01*
X103502667Y-79129185D01*
X103502666Y-79129186D01*
X103435450Y-79170645D01*
X103353342Y-79221289D01*
X103259681Y-79314951D01*
X103198358Y-79348436D01*
X103128666Y-79343452D01*
X103084319Y-79314951D01*
X102990657Y-79221289D01*
X102990656Y-79221288D01*
X102894872Y-79162208D01*
X102841336Y-79129187D01*
X102841331Y-79129185D01*
X102839862Y-79128698D01*
X102674797Y-79074001D01*
X102674795Y-79074000D01*
X102572010Y-79063500D01*
X101771998Y-79063500D01*
X101771980Y-79063501D01*
X101669203Y-79074000D01*
X101669200Y-79074001D01*
X101502668Y-79129185D01*
X101502663Y-79129187D01*
X101353342Y-79221289D01*
X101229289Y-79345342D01*
X101137187Y-79494663D01*
X101137185Y-79494668D01*
X101120680Y-79544477D01*
X101082001Y-79661203D01*
X101082001Y-79661204D01*
X101082000Y-79661204D01*
X101071500Y-79763983D01*
X101071500Y-80463902D01*
X101051815Y-80530941D01*
X101035181Y-80551583D01*
X98403584Y-83183181D01*
X98342261Y-83216666D01*
X98315903Y-83219500D01*
X97254499Y-83219500D01*
X97187460Y-83199815D01*
X97141705Y-83147011D01*
X97130499Y-83095500D01*
X97130499Y-82922129D01*
X97130498Y-82922123D01*
X97130497Y-82922116D01*
X97124091Y-82862517D01*
X97115836Y-82840385D01*
X97073797Y-82727671D01*
X97073795Y-82727668D01*
X96996109Y-82623893D01*
X96971692Y-82558430D01*
X96986543Y-82490157D01*
X96996110Y-82475271D01*
X97073352Y-82372089D01*
X97073354Y-82372086D01*
X97123596Y-82237379D01*
X97123598Y-82237372D01*
X97129999Y-82177844D01*
X97130000Y-82177827D01*
X97130000Y-81530000D01*
X94424560Y-81530000D01*
X94455245Y-81476853D01*
X94490000Y-81347143D01*
X94490000Y-81212857D01*
X94455245Y-81083147D01*
X94424560Y-81030000D01*
X97130000Y-81030000D01*
X97130000Y-80382172D01*
X97129999Y-80382155D01*
X97123598Y-80322627D01*
X97123596Y-80322620D01*
X97073354Y-80187913D01*
X97073352Y-80187910D01*
X96996110Y-80084729D01*
X96971692Y-80019265D01*
X96986543Y-79950992D01*
X96996105Y-79936111D01*
X97073796Y-79832331D01*
X97124091Y-79697483D01*
X97130500Y-79637873D01*
X97130499Y-77842128D01*
X97124091Y-77782517D01*
X97116386Y-77761860D01*
X97073797Y-77647671D01*
X97073795Y-77647668D01*
X97041356Y-77604335D01*
X96996421Y-77544309D01*
X96972004Y-77478848D01*
X96986855Y-77410575D01*
X96996416Y-77395696D01*
X97073796Y-77292331D01*
X97124091Y-77157483D01*
X97130500Y-77097873D01*
X97130499Y-75302128D01*
X97124091Y-75242517D01*
X97114640Y-75217178D01*
X97073797Y-75107671D01*
X97073795Y-75107668D01*
X97055492Y-75083218D01*
X96996421Y-75004309D01*
X96972004Y-74938848D01*
X96986855Y-74870575D01*
X96996416Y-74855696D01*
X97073796Y-74752331D01*
X97124091Y-74617483D01*
X97130500Y-74557873D01*
X97130499Y-72762128D01*
X97124091Y-72702517D01*
X97095385Y-72625553D01*
X97073797Y-72567671D01*
X97073795Y-72567668D01*
X96996421Y-72464309D01*
X96972004Y-72398848D01*
X96986855Y-72330575D01*
X96996416Y-72315696D01*
X97073796Y-72212331D01*
X97124091Y-72077483D01*
X97130500Y-72017873D01*
X97130499Y-70222128D01*
X97124091Y-70162517D01*
X97119863Y-70151182D01*
X97073797Y-70027671D01*
X97073795Y-70027668D01*
X96996109Y-69923893D01*
X96971692Y-69858430D01*
X96986543Y-69790157D01*
X96996110Y-69775271D01*
X97073352Y-69672089D01*
X97073354Y-69672086D01*
X97123596Y-69537379D01*
X97123598Y-69537372D01*
X97129999Y-69477844D01*
X97130000Y-69477827D01*
X97130000Y-68830000D01*
X94424560Y-68830000D01*
X94455245Y-68776853D01*
X94490000Y-68647143D01*
X94490000Y-68512857D01*
X94455245Y-68383147D01*
X94424560Y-68330000D01*
X97130000Y-68330000D01*
X97130000Y-67682172D01*
X97129999Y-67682155D01*
X97123598Y-67622627D01*
X97123596Y-67622620D01*
X97073354Y-67487913D01*
X97073352Y-67487910D01*
X96996110Y-67384729D01*
X96971692Y-67319265D01*
X96986543Y-67250992D01*
X96996105Y-67236111D01*
X97073796Y-67132331D01*
X97124091Y-66997483D01*
X97130500Y-66937873D01*
X97130499Y-65142128D01*
X97124091Y-65082517D01*
X97091791Y-64995917D01*
X97073797Y-64947671D01*
X97073795Y-64947668D01*
X96996421Y-64844309D01*
X96972004Y-64778848D01*
X96986855Y-64710575D01*
X96996416Y-64695696D01*
X97073796Y-64592331D01*
X97124091Y-64457483D01*
X97130500Y-64397873D01*
X97130499Y-62621996D01*
X108854584Y-62621996D01*
X108854584Y-62622003D01*
X108874229Y-62959298D01*
X108874230Y-62959309D01*
X108932896Y-63292017D01*
X108932899Y-63292031D01*
X108932900Y-63292035D01*
X108954209Y-63363214D01*
X109029801Y-63615710D01*
X109163621Y-63925939D01*
X109163627Y-63925952D01*
X109332560Y-64218553D01*
X109534318Y-64489561D01*
X109534323Y-64489567D01*
X109592392Y-64551116D01*
X109766183Y-64735323D01*
X109766189Y-64735328D01*
X109766191Y-64735330D01*
X110025001Y-64952499D01*
X110025006Y-64952502D01*
X110307292Y-65138164D01*
X110609224Y-65289800D01*
X110926717Y-65405358D01*
X111255480Y-65483276D01*
X111591065Y-65522500D01*
X111591072Y-65522500D01*
X111928928Y-65522500D01*
X111928935Y-65522500D01*
X112264520Y-65483276D01*
X112593283Y-65405358D01*
X112910776Y-65289800D01*
X113212708Y-65138164D01*
X113494994Y-64952502D01*
X113500752Y-64947671D01*
X113623929Y-64844312D01*
X113753817Y-64735323D01*
X113985678Y-64489565D01*
X114187440Y-64218552D01*
X114356375Y-63925948D01*
X114490198Y-63615711D01*
X114587100Y-63292035D01*
X114645771Y-62959298D01*
X114662493Y-62672171D01*
X114665416Y-62622003D01*
X114665416Y-62621996D01*
X114659844Y-62526334D01*
X114645771Y-62284702D01*
X114636125Y-62230000D01*
X114587103Y-61951982D01*
X114587102Y-61951981D01*
X114587100Y-61951965D01*
X114490198Y-61628289D01*
X114356375Y-61318052D01*
X114187440Y-61025448D01*
X114186649Y-61024385D01*
X113985681Y-60754438D01*
X113985676Y-60754432D01*
X113873564Y-60635601D01*
X113753817Y-60508677D01*
X113753810Y-60508671D01*
X113753808Y-60508669D01*
X113494998Y-60291500D01*
X113254886Y-60133577D01*
X113212708Y-60105836D01*
X113125692Y-60062135D01*
X112910783Y-59954203D01*
X112910777Y-59954200D01*
X112593284Y-59838642D01*
X112593281Y-59838641D01*
X112362535Y-59783954D01*
X112264520Y-59760724D01*
X111928935Y-59721500D01*
X111591065Y-59721500D01*
X111267492Y-59759320D01*
X111255480Y-59760724D01*
X110926718Y-59838641D01*
X110926715Y-59838642D01*
X110609222Y-59954200D01*
X110609216Y-59954203D01*
X110307295Y-60105834D01*
X110025001Y-60291500D01*
X109766191Y-60508669D01*
X109766181Y-60508679D01*
X109534323Y-60754432D01*
X109534318Y-60754438D01*
X109332560Y-61025446D01*
X109163627Y-61318047D01*
X109163621Y-61318060D01*
X109029801Y-61628289D01*
X108932899Y-61951968D01*
X108932896Y-61951982D01*
X108874230Y-62284690D01*
X108874229Y-62284701D01*
X108854584Y-62621996D01*
X97130499Y-62621996D01*
X97130499Y-62602128D01*
X97124091Y-62542517D01*
X97101892Y-62482999D01*
X97073797Y-62407671D01*
X97073795Y-62407668D01*
X96996421Y-62304309D01*
X96972004Y-62238848D01*
X96986855Y-62170575D01*
X96996416Y-62155696D01*
X97073796Y-62052331D01*
X97124091Y-61917483D01*
X97130500Y-61857873D01*
X97130500Y-61684500D01*
X97150185Y-61617461D01*
X97202989Y-61571706D01*
X97254500Y-61560500D01*
X106799331Y-61560500D01*
X106799347Y-61560501D01*
X106806943Y-61560501D01*
X106965054Y-61560501D01*
X106965057Y-61560501D01*
X107117785Y-61519577D01*
X107167904Y-61490639D01*
X107254716Y-61440520D01*
X107366520Y-61328716D01*
X107366520Y-61328714D01*
X107376728Y-61318507D01*
X107376729Y-61318504D01*
X112726417Y-55968818D01*
X112787740Y-55935333D01*
X112814098Y-55932499D01*
X113514002Y-55932499D01*
X113514008Y-55932499D01*
X113616797Y-55921999D01*
X113783334Y-55866814D01*
X113932656Y-55774712D01*
X114056712Y-55650656D01*
X114148814Y-55501334D01*
X114203999Y-55334797D01*
X114214500Y-55232009D01*
X114214499Y-54431992D01*
X114203999Y-54329203D01*
X114148814Y-54162666D01*
X114056712Y-54013344D01*
X113963049Y-53919681D01*
X113929564Y-53858358D01*
X113934548Y-53788666D01*
X113963049Y-53744319D01*
X113974384Y-53732984D01*
X114056712Y-53650656D01*
X114148814Y-53501334D01*
X114203999Y-53334797D01*
X114214500Y-53232009D01*
X114214499Y-52431992D01*
X114211264Y-52400328D01*
X114203999Y-52329203D01*
X114203998Y-52329200D01*
X114163130Y-52205870D01*
X114148814Y-52162666D01*
X114056712Y-52013344D01*
X113932656Y-51889288D01*
X113839888Y-51832069D01*
X113783336Y-51797187D01*
X113783331Y-51797185D01*
X113759487Y-51789284D01*
X113616797Y-51742001D01*
X113616795Y-51742000D01*
X113514010Y-51731500D01*
X112513998Y-51731500D01*
X112513980Y-51731501D01*
X112411203Y-51742000D01*
X112411200Y-51742001D01*
X112244668Y-51797185D01*
X112244663Y-51797187D01*
X112095342Y-51889289D01*
X111971289Y-52013342D01*
X111971288Y-52013344D01*
X111881441Y-52159011D01*
X111875395Y-52168813D01*
X111873600Y-52167706D01*
X111834313Y-52212337D01*
X111768092Y-52231500D01*
X111222756Y-52231500D01*
X111155717Y-52211815D01*
X111109962Y-52159011D01*
X111100018Y-52089853D01*
X111102550Y-52077060D01*
X111104338Y-52070000D01*
X111161108Y-51845821D01*
X111165856Y-51788520D01*
X111181643Y-51598005D01*
X111181643Y-51597994D01*
X111161109Y-51350187D01*
X111161107Y-51350175D01*
X111119712Y-51186711D01*
X118037500Y-51186711D01*
X118037500Y-51429288D01*
X118059822Y-51598849D01*
X118069162Y-51669789D01*
X118071223Y-51677480D01*
X118131947Y-51904104D01*
X118184928Y-52032011D01*
X118224776Y-52128212D01*
X118346064Y-52338289D01*
X118346066Y-52338292D01*
X118346067Y-52338293D01*
X118493733Y-52530736D01*
X118493739Y-52530743D01*
X118665256Y-52702260D01*
X118665263Y-52702266D01*
X118764203Y-52778185D01*
X118857711Y-52849936D01*
X119067788Y-52971224D01*
X119291900Y-53064054D01*
X119526211Y-53126838D01*
X119706586Y-53150584D01*
X119766711Y-53158500D01*
X119766712Y-53158500D01*
X120009289Y-53158500D01*
X120057388Y-53152167D01*
X120249789Y-53126838D01*
X120484100Y-53064054D01*
X120708212Y-52971224D01*
X120918289Y-52849936D01*
X121110738Y-52702265D01*
X121282265Y-52530738D01*
X121429936Y-52338289D01*
X121551224Y-52128212D01*
X121644054Y-51904100D01*
X121706838Y-51669789D01*
X121738500Y-51429288D01*
X121738500Y-51186712D01*
X121736130Y-51168713D01*
X121728285Y-51109118D01*
X121706838Y-50946211D01*
X121644054Y-50711900D01*
X121551224Y-50487788D01*
X121429936Y-50277711D01*
X121326215Y-50142539D01*
X121282266Y-50085263D01*
X121282260Y-50085256D01*
X121110743Y-49913739D01*
X121110736Y-49913733D01*
X120918293Y-49766067D01*
X120918292Y-49766066D01*
X120918289Y-49766064D01*
X120730389Y-49657580D01*
X120708214Y-49644777D01*
X120708205Y-49644773D01*
X120484104Y-49551947D01*
X120366944Y-49520554D01*
X120249789Y-49489162D01*
X120249788Y-49489161D01*
X120249785Y-49489161D01*
X120009289Y-49457500D01*
X120009288Y-49457500D01*
X119766712Y-49457500D01*
X119766711Y-49457500D01*
X119526214Y-49489161D01*
X119291895Y-49551947D01*
X119067794Y-49644773D01*
X119067785Y-49644777D01*
X118857706Y-49766067D01*
X118665263Y-49913733D01*
X118665256Y-49913739D01*
X118493739Y-50085256D01*
X118493733Y-50085263D01*
X118346067Y-50277706D01*
X118224777Y-50487785D01*
X118224773Y-50487794D01*
X118131947Y-50711895D01*
X118069161Y-50946214D01*
X118037500Y-51186711D01*
X111119712Y-51186711D01*
X111100063Y-51109118D01*
X111000173Y-50881393D01*
X110864166Y-50673217D01*
X110824539Y-50630171D01*
X110695744Y-50490262D01*
X110499509Y-50337526D01*
X110499507Y-50337525D01*
X110499506Y-50337524D01*
X110280811Y-50219172D01*
X110280802Y-50219169D01*
X110045616Y-50138429D01*
X109800335Y-50097500D01*
X109551665Y-50097500D01*
X109306383Y-50138429D01*
X109071197Y-50219169D01*
X109071188Y-50219172D01*
X108852493Y-50337524D01*
X108656257Y-50490261D01*
X108487833Y-50673217D01*
X108351826Y-50881393D01*
X108251936Y-51109118D01*
X108190892Y-51350175D01*
X108190890Y-51350187D01*
X108170357Y-51597994D01*
X108170357Y-51598005D01*
X108190890Y-51845812D01*
X108190892Y-51845824D01*
X108251936Y-52086881D01*
X108351826Y-52314606D01*
X108487833Y-52522782D01*
X108487836Y-52522785D01*
X108656256Y-52705738D01*
X108852491Y-52858474D01*
X108852493Y-52858475D01*
X109060945Y-52971284D01*
X109071190Y-52976828D01*
X109306386Y-53057571D01*
X109551665Y-53098500D01*
X109800335Y-53098500D01*
X110045614Y-53057571D01*
X110045617Y-53057570D01*
X110151605Y-53021183D01*
X110221402Y-53018034D01*
X110279548Y-53050784D01*
X110541284Y-53312520D01*
X110541286Y-53312521D01*
X110541290Y-53312524D01*
X110678209Y-53391573D01*
X110678216Y-53391577D01*
X110830943Y-53432501D01*
X110830945Y-53432501D01*
X110996654Y-53432501D01*
X110996670Y-53432500D01*
X111768092Y-53432500D01*
X111835131Y-53452185D01*
X111873636Y-53496271D01*
X111875395Y-53495187D01*
X111879185Y-53501331D01*
X111879186Y-53501334D01*
X111897285Y-53530677D01*
X111971289Y-53650657D01*
X112064951Y-53744319D01*
X112098436Y-53805642D01*
X112093452Y-53875334D01*
X112064951Y-53919681D01*
X111971289Y-54013342D01*
X111879187Y-54162663D01*
X111879185Y-54162668D01*
X111851349Y-54246670D01*
X111824001Y-54329203D01*
X111824001Y-54329204D01*
X111824000Y-54329204D01*
X111813500Y-54431983D01*
X111813500Y-55131900D01*
X111793815Y-55198939D01*
X111777181Y-55219581D01*
X111312074Y-55684687D01*
X111250751Y-55718172D01*
X111181059Y-55713188D01*
X111125126Y-55671316D01*
X111104186Y-55627442D01*
X111099588Y-55609283D01*
X110999731Y-55381630D01*
X110899434Y-55228116D01*
X110199787Y-55927764D01*
X110188518Y-55885708D01*
X110116110Y-55760292D01*
X110013708Y-55657890D01*
X109888292Y-55585482D01*
X109846235Y-55574212D01*
X110546057Y-54874390D01*
X110546056Y-54874389D01*
X110499229Y-54837943D01*
X110280614Y-54719635D01*
X110280603Y-54719630D01*
X110045493Y-54638916D01*
X109800293Y-54598000D01*
X109551707Y-54598000D01*
X109306506Y-54638916D01*
X109071396Y-54719630D01*
X109071390Y-54719632D01*
X108852761Y-54837949D01*
X108805942Y-54874388D01*
X108805942Y-54874390D01*
X109505765Y-55574212D01*
X109463708Y-55585482D01*
X109338292Y-55657890D01*
X109235890Y-55760292D01*
X109163482Y-55885708D01*
X109152212Y-55927764D01*
X108452564Y-55228116D01*
X108352267Y-55381632D01*
X108252412Y-55609282D01*
X108191387Y-55850261D01*
X108191385Y-55850270D01*
X108170859Y-56097994D01*
X108170859Y-56098005D01*
X108191385Y-56345729D01*
X108191387Y-56345738D01*
X108252412Y-56586717D01*
X108352266Y-56814364D01*
X108452564Y-56967882D01*
X109152212Y-56268234D01*
X109163482Y-56310292D01*
X109235890Y-56435708D01*
X109338292Y-56538110D01*
X109463708Y-56610518D01*
X109505765Y-56621787D01*
X108805942Y-57321609D01*
X108852768Y-57358055D01*
X108852770Y-57358056D01*
X109071385Y-57476364D01*
X109071396Y-57476369D01*
X109217764Y-57526618D01*
X109274779Y-57567004D01*
X109300910Y-57631803D01*
X109287858Y-57700443D01*
X109265182Y-57731580D01*
X106673584Y-60323181D01*
X106612261Y-60356666D01*
X106585903Y-60359500D01*
X97254499Y-60359500D01*
X97187460Y-60339815D01*
X97141705Y-60287011D01*
X97130499Y-60235500D01*
X97130499Y-60062129D01*
X97130498Y-60062123D01*
X97130497Y-60062116D01*
X97124091Y-60002517D01*
X97122166Y-59997357D01*
X97073797Y-59867671D01*
X97073795Y-59867668D01*
X97073792Y-59867664D01*
X96996421Y-59764309D01*
X96972004Y-59698848D01*
X96986855Y-59630575D01*
X96996416Y-59615696D01*
X97073796Y-59512331D01*
X97124091Y-59377483D01*
X97130500Y-59317873D01*
X97130499Y-57522128D01*
X97124091Y-57462517D01*
X97085129Y-57358055D01*
X97073797Y-57327671D01*
X97073795Y-57327668D01*
X97072648Y-57326136D01*
X96996109Y-57223893D01*
X96971692Y-57158430D01*
X96986543Y-57090157D01*
X96996110Y-57075271D01*
X97073352Y-56972089D01*
X97073354Y-56972086D01*
X97123596Y-56837379D01*
X97123598Y-56837372D01*
X97129999Y-56777844D01*
X97130000Y-56777827D01*
X97130000Y-56130000D01*
X94424560Y-56130000D01*
X94443039Y-56097994D01*
X101670859Y-56097994D01*
X101670859Y-56098005D01*
X101691385Y-56345729D01*
X101691387Y-56345738D01*
X101752412Y-56586717D01*
X101852266Y-56814364D01*
X101952564Y-56967882D01*
X102652212Y-56268234D01*
X102663482Y-56310292D01*
X102735890Y-56435708D01*
X102838292Y-56538110D01*
X102963708Y-56610518D01*
X103005765Y-56621787D01*
X102305942Y-57321609D01*
X102352768Y-57358055D01*
X102352770Y-57358056D01*
X102571385Y-57476364D01*
X102571396Y-57476369D01*
X102806506Y-57557083D01*
X103051707Y-57598000D01*
X103300293Y-57598000D01*
X103545493Y-57557083D01*
X103780603Y-57476369D01*
X103780614Y-57476364D01*
X103999228Y-57358057D01*
X103999231Y-57358055D01*
X104046056Y-57321609D01*
X103346234Y-56621787D01*
X103388292Y-56610518D01*
X103513708Y-56538110D01*
X103616110Y-56435708D01*
X103688518Y-56310292D01*
X103699787Y-56268235D01*
X104399434Y-56967882D01*
X104499731Y-56814369D01*
X104599587Y-56586717D01*
X104660612Y-56345738D01*
X104660614Y-56345729D01*
X104681141Y-56098005D01*
X104681141Y-56097994D01*
X104660614Y-55850270D01*
X104660612Y-55850261D01*
X104599587Y-55609282D01*
X104499731Y-55381630D01*
X104399434Y-55228116D01*
X103699787Y-55927764D01*
X103688518Y-55885708D01*
X103616110Y-55760292D01*
X103513708Y-55657890D01*
X103388292Y-55585482D01*
X103346235Y-55574212D01*
X104046057Y-54874390D01*
X104046056Y-54874389D01*
X103999229Y-54837943D01*
X103780614Y-54719635D01*
X103780603Y-54719630D01*
X103545493Y-54638916D01*
X103300293Y-54598000D01*
X103051707Y-54598000D01*
X102806506Y-54638916D01*
X102571396Y-54719630D01*
X102571390Y-54719632D01*
X102352761Y-54837949D01*
X102305942Y-54874388D01*
X102305942Y-54874390D01*
X103005765Y-55574212D01*
X102963708Y-55585482D01*
X102838292Y-55657890D01*
X102735890Y-55760292D01*
X102663482Y-55885708D01*
X102652212Y-55927764D01*
X101952564Y-55228116D01*
X101852267Y-55381632D01*
X101752412Y-55609282D01*
X101691387Y-55850261D01*
X101691385Y-55850270D01*
X101670859Y-56097994D01*
X94443039Y-56097994D01*
X94455245Y-56076853D01*
X94490000Y-55947143D01*
X94490000Y-55812857D01*
X94455245Y-55683147D01*
X94424560Y-55630000D01*
X97130000Y-55630000D01*
X97130000Y-54982172D01*
X97129999Y-54982155D01*
X97123598Y-54922627D01*
X97123596Y-54922620D01*
X97073354Y-54787913D01*
X97073352Y-54787910D01*
X96996110Y-54684729D01*
X96971692Y-54619265D01*
X96986543Y-54550992D01*
X96996105Y-54536111D01*
X97073796Y-54432331D01*
X97124091Y-54297483D01*
X97130500Y-54237873D01*
X97130499Y-52442128D01*
X97124091Y-52382517D01*
X97110510Y-52346105D01*
X97073797Y-52247671D01*
X97073795Y-52247668D01*
X97047346Y-52212337D01*
X96996421Y-52144309D01*
X96972004Y-52078848D01*
X96986855Y-52010575D01*
X96996416Y-51995696D01*
X97073796Y-51892331D01*
X97124091Y-51757483D01*
X97130500Y-51697873D01*
X97130500Y-51597994D01*
X101670357Y-51597994D01*
X101670357Y-51598005D01*
X101690890Y-51845812D01*
X101690892Y-51845824D01*
X101751936Y-52086881D01*
X101851826Y-52314606D01*
X101987833Y-52522782D01*
X101987836Y-52522785D01*
X102156256Y-52705738D01*
X102352491Y-52858474D01*
X102352493Y-52858475D01*
X102560945Y-52971284D01*
X102571190Y-52976828D01*
X102806386Y-53057571D01*
X103051665Y-53098500D01*
X103300335Y-53098500D01*
X103545614Y-53057571D01*
X103780810Y-52976828D01*
X103999509Y-52858474D01*
X104195744Y-52705738D01*
X104364164Y-52522785D01*
X104500173Y-52314607D01*
X104600063Y-52086881D01*
X104661108Y-51845821D01*
X104665856Y-51788520D01*
X104681643Y-51598005D01*
X104681643Y-51597994D01*
X104661109Y-51350187D01*
X104661107Y-51350175D01*
X104600063Y-51109118D01*
X104500173Y-50881393D01*
X104364166Y-50673217D01*
X104324539Y-50630171D01*
X104195744Y-50490262D01*
X103999509Y-50337526D01*
X103999507Y-50337525D01*
X103999506Y-50337524D01*
X103780811Y-50219172D01*
X103780802Y-50219169D01*
X103545616Y-50138429D01*
X103300335Y-50097500D01*
X103051665Y-50097500D01*
X102806383Y-50138429D01*
X102571197Y-50219169D01*
X102571188Y-50219172D01*
X102352493Y-50337524D01*
X102156257Y-50490261D01*
X101987833Y-50673217D01*
X101851826Y-50881393D01*
X101751936Y-51109118D01*
X101690892Y-51350175D01*
X101690890Y-51350187D01*
X101670357Y-51597994D01*
X97130500Y-51597994D01*
X97130499Y-49902128D01*
X97124091Y-49842517D01*
X97100798Y-49780066D01*
X97073797Y-49707671D01*
X97073793Y-49707664D01*
X96987547Y-49592455D01*
X96987544Y-49592452D01*
X96872335Y-49506206D01*
X96872328Y-49506202D01*
X96737482Y-49455908D01*
X96737483Y-49455908D01*
X96677883Y-49449501D01*
X96677881Y-49449500D01*
X96677873Y-49449500D01*
X96677865Y-49449500D01*
X94044385Y-49449500D01*
X94033578Y-49449028D01*
X93980001Y-49444341D01*
X93979997Y-49444341D01*
X93926419Y-49449028D01*
X93915613Y-49449500D01*
X93082129Y-49449500D01*
X93082123Y-49449501D01*
X93022516Y-49455908D01*
X92887671Y-49506202D01*
X92887664Y-49506206D01*
X92772455Y-49592452D01*
X92772452Y-49592455D01*
X92686206Y-49707664D01*
X92686202Y-49707671D01*
X92635908Y-49842517D01*
X92630149Y-49896087D01*
X92629501Y-49902123D01*
X92629500Y-49902135D01*
X92629500Y-50075500D01*
X92609815Y-50142539D01*
X92557011Y-50188294D01*
X92505500Y-50199500D01*
X92161669Y-50199500D01*
X92161653Y-50199499D01*
X92154057Y-50199499D01*
X91995943Y-50199499D01*
X91922524Y-50219172D01*
X91843210Y-50240424D01*
X91843209Y-50240425D01*
X91793096Y-50269359D01*
X91793095Y-50269360D01*
X91778631Y-50277711D01*
X91706285Y-50319479D01*
X91706282Y-50319481D01*
X91594478Y-50431286D01*
X89957584Y-52068181D01*
X89896261Y-52101666D01*
X89869903Y-52104500D01*
X88920055Y-52104500D01*
X88853016Y-52084815D01*
X88807261Y-52032011D01*
X88797317Y-51962853D01*
X88826342Y-51899297D01*
X88828788Y-51896558D01*
X88923979Y-51793153D01*
X89050924Y-51598849D01*
X89144157Y-51386300D01*
X89201134Y-51161305D01*
X89201135Y-51161297D01*
X89220300Y-50930006D01*
X89220300Y-50929993D01*
X89201135Y-50698702D01*
X89201133Y-50698691D01*
X89144157Y-50473699D01*
X89050924Y-50261151D01*
X88923983Y-50066852D01*
X88923980Y-50066849D01*
X88923979Y-50066847D01*
X88766784Y-49896087D01*
X88766779Y-49896083D01*
X88766777Y-49896081D01*
X88583634Y-49753535D01*
X88583628Y-49753531D01*
X88379504Y-49643064D01*
X88379495Y-49643061D01*
X88159984Y-49567702D01*
X87985576Y-49538599D01*
X87931049Y-49529500D01*
X87698951Y-49529500D01*
X87653164Y-49537140D01*
X87470015Y-49567702D01*
X87250504Y-49643061D01*
X87250495Y-49643064D01*
X87046371Y-49753531D01*
X87046365Y-49753535D01*
X86863222Y-49896081D01*
X86863219Y-49896084D01*
X86863216Y-49896086D01*
X86863216Y-49896087D01*
X86846972Y-49913733D01*
X86706016Y-50066852D01*
X86579075Y-50261151D01*
X86485842Y-50473699D01*
X86428866Y-50698691D01*
X86428864Y-50698702D01*
X86409700Y-50929993D01*
X86409700Y-50930006D01*
X86428864Y-51161297D01*
X86428866Y-51161308D01*
X86485842Y-51386300D01*
X86579075Y-51598848D01*
X86706016Y-51793147D01*
X86706019Y-51793151D01*
X86706021Y-51793153D01*
X86801176Y-51896519D01*
X86832097Y-51959172D01*
X86824237Y-52028598D01*
X86780089Y-52082753D01*
X86713672Y-52104444D01*
X86709945Y-52104500D01*
X83470055Y-52104500D01*
X83403016Y-52084815D01*
X83357261Y-52032011D01*
X83347317Y-51962853D01*
X83376342Y-51899297D01*
X83378788Y-51896558D01*
X83473979Y-51793153D01*
X83600924Y-51598849D01*
X83694157Y-51386300D01*
X83751134Y-51161305D01*
X83751135Y-51161297D01*
X83770300Y-50930006D01*
X83770300Y-50929993D01*
X83751135Y-50698702D01*
X83751133Y-50698691D01*
X83694157Y-50473699D01*
X83600924Y-50261151D01*
X83473983Y-50066852D01*
X83473980Y-50066849D01*
X83473979Y-50066847D01*
X83316784Y-49896087D01*
X83316779Y-49896083D01*
X83316777Y-49896081D01*
X83133634Y-49753535D01*
X83133628Y-49753531D01*
X82929504Y-49643064D01*
X82929495Y-49643061D01*
X82709984Y-49567702D01*
X82535576Y-49538599D01*
X82481049Y-49529500D01*
X82248951Y-49529500D01*
X82203164Y-49537140D01*
X82020015Y-49567702D01*
X81800504Y-49643061D01*
X81800495Y-49643064D01*
X81596371Y-49753531D01*
X81596365Y-49753535D01*
X81413222Y-49896081D01*
X81413219Y-49896084D01*
X81413216Y-49896086D01*
X81413216Y-49896087D01*
X81396972Y-49913733D01*
X81256016Y-50066852D01*
X81129075Y-50261151D01*
X81035842Y-50473699D01*
X80978866Y-50698691D01*
X80978864Y-50698702D01*
X80959700Y-50929993D01*
X80959700Y-50930006D01*
X80978864Y-51161297D01*
X80978866Y-51161308D01*
X81035842Y-51386300D01*
X81129075Y-51598848D01*
X81256016Y-51793147D01*
X81256019Y-51793151D01*
X81256021Y-51793153D01*
X81351176Y-51896519D01*
X81382097Y-51959172D01*
X81374237Y-52028598D01*
X81330089Y-52082753D01*
X81263672Y-52104444D01*
X81259945Y-52104500D01*
X80945097Y-52104500D01*
X80878058Y-52084815D01*
X80857416Y-52068181D01*
X80585590Y-51796355D01*
X80585588Y-51796352D01*
X80466717Y-51677481D01*
X80466709Y-51677475D01*
X80368892Y-51621001D01*
X80368890Y-51621000D01*
X80329790Y-51598425D01*
X80329789Y-51598424D01*
X80317263Y-51595067D01*
X80177057Y-51557499D01*
X80018943Y-51557499D01*
X80011347Y-51557499D01*
X80011331Y-51557500D01*
X77674500Y-51557500D01*
X77607461Y-51537815D01*
X77561706Y-51485011D01*
X77550500Y-51433500D01*
X77550499Y-50864385D01*
X77550971Y-50853576D01*
X77555659Y-50800000D01*
X77555659Y-50799999D01*
X77550971Y-50746421D01*
X77550499Y-50735613D01*
X77550499Y-49902129D01*
X77550498Y-49902123D01*
X77550497Y-49902116D01*
X77544091Y-49842517D01*
X77520798Y-49780066D01*
X77493797Y-49707671D01*
X77493793Y-49707664D01*
X77407547Y-49592455D01*
X77407544Y-49592452D01*
X77292335Y-49506206D01*
X77292328Y-49506202D01*
X77157482Y-49455908D01*
X77157483Y-49455908D01*
X77097883Y-49449501D01*
X77097881Y-49449500D01*
X77097873Y-49449500D01*
X77097865Y-49449500D01*
X76264380Y-49449500D01*
X76253573Y-49449028D01*
X76227024Y-49446705D01*
X76200001Y-49444341D01*
X76199998Y-49444341D01*
X76146424Y-49449028D01*
X76135617Y-49449500D01*
X73502129Y-49449500D01*
X73502123Y-49449501D01*
X73442516Y-49455908D01*
X73307671Y-49506202D01*
X73307664Y-49506206D01*
X73192455Y-49592452D01*
X73192452Y-49592455D01*
X73149408Y-49649955D01*
X73093474Y-49691826D01*
X73023783Y-49696810D01*
X72962461Y-49663325D01*
X72956717Y-49657581D01*
X72956716Y-49657580D01*
X72858279Y-49600748D01*
X72858278Y-49600747D01*
X72819783Y-49578522D01*
X72763881Y-49563543D01*
X72667057Y-49537599D01*
X72508943Y-49537599D01*
X72501347Y-49537599D01*
X72501331Y-49537600D01*
X61047169Y-49537600D01*
X61047153Y-49537599D01*
X61039557Y-49537599D01*
X60881443Y-49537599D01*
X60801510Y-49559017D01*
X60728716Y-49578522D01*
X60690219Y-49600749D01*
X60690218Y-49600748D01*
X60591787Y-49657577D01*
X60591782Y-49657581D01*
X59977311Y-50272053D01*
X59915988Y-50305538D01*
X59846296Y-50300554D01*
X59801949Y-50272053D01*
X59799402Y-50269506D01*
X59799395Y-50269501D01*
X59605834Y-50133967D01*
X59605830Y-50133965D01*
X59605828Y-50133964D01*
X59391663Y-50034097D01*
X59391659Y-50034096D01*
X59391655Y-50034094D01*
X59163413Y-49972938D01*
X59163403Y-49972936D01*
X58928001Y-49952341D01*
X58927999Y-49952341D01*
X58692596Y-49972936D01*
X58692586Y-49972938D01*
X58464344Y-50034094D01*
X58464335Y-50034098D01*
X58250171Y-50133964D01*
X58250169Y-50133965D01*
X58056600Y-50269503D01*
X57934673Y-50391430D01*
X57873350Y-50424914D01*
X57803658Y-50419930D01*
X57747725Y-50378058D01*
X57730810Y-50347081D01*
X57681797Y-50215671D01*
X57681793Y-50215664D01*
X57595547Y-50100455D01*
X57595544Y-50100452D01*
X57480335Y-50014206D01*
X57480328Y-50014202D01*
X57345482Y-49963908D01*
X57345483Y-49963908D01*
X57285883Y-49957501D01*
X57285881Y-49957500D01*
X57285873Y-49957500D01*
X57285864Y-49957500D01*
X55490129Y-49957500D01*
X55490123Y-49957501D01*
X55430516Y-49963908D01*
X55295671Y-50014202D01*
X55295664Y-50014206D01*
X55180455Y-50100452D01*
X55180452Y-50100455D01*
X55094206Y-50215664D01*
X55094202Y-50215671D01*
X55043908Y-50350517D01*
X55037501Y-50410116D01*
X55037500Y-50410135D01*
X55037500Y-52205870D01*
X55037501Y-52205876D01*
X55043908Y-52265483D01*
X55094202Y-52400328D01*
X55094206Y-52400335D01*
X55180452Y-52515544D01*
X55180455Y-52515547D01*
X55295664Y-52601793D01*
X55295671Y-52601797D01*
X55430517Y-52652091D01*
X55430516Y-52652091D01*
X55437444Y-52652835D01*
X55490127Y-52658500D01*
X57285872Y-52658499D01*
X57345483Y-52652091D01*
X57480331Y-52601796D01*
X57525408Y-52568050D01*
X57590872Y-52543633D01*
X57659145Y-52558484D01*
X57687400Y-52579635D01*
X58638432Y-53530668D01*
X59572114Y-54464350D01*
X59572829Y-54465165D01*
X59573200Y-54465536D01*
X59573225Y-54465564D01*
X59578190Y-54470528D01*
X59578191Y-54470530D01*
X59621699Y-54514035D01*
X59621702Y-54514038D01*
X59697034Y-54589370D01*
X59697058Y-54589390D01*
X59982073Y-54874388D01*
X60313316Y-55205613D01*
X60346802Y-55266936D01*
X60341820Y-55336627D01*
X60299950Y-55392562D01*
X60291609Y-55398291D01*
X60228436Y-55437985D01*
X60225603Y-55440245D01*
X60223424Y-55441134D01*
X60222542Y-55441689D01*
X60222444Y-55441534D01*
X60160917Y-55466655D01*
X60148288Y-55467300D01*
X57824870Y-55467300D01*
X57824854Y-55467299D01*
X57817258Y-55467299D01*
X57659143Y-55467299D01*
X57602294Y-55482532D01*
X57506414Y-55508223D01*
X57506409Y-55508226D01*
X57369490Y-55587275D01*
X57369482Y-55587281D01*
X56068036Y-56888727D01*
X56006713Y-56922212D01*
X55937021Y-56917228D01*
X55892674Y-56888727D01*
X55871870Y-56867923D01*
X55871862Y-56867917D01*
X55793681Y-56821681D01*
X55730398Y-56784256D01*
X55730397Y-56784255D01*
X55730396Y-56784255D01*
X55730393Y-56784254D01*
X55572573Y-56738402D01*
X55572567Y-56738401D01*
X55535701Y-56735500D01*
X55535694Y-56735500D01*
X54229306Y-56735500D01*
X54229298Y-56735500D01*
X54192432Y-56738401D01*
X54192426Y-56738402D01*
X54034606Y-56784254D01*
X54034603Y-56784255D01*
X53893137Y-56867917D01*
X53893129Y-56867923D01*
X53861874Y-56899180D01*
X53800552Y-56932666D01*
X53774192Y-56935500D01*
X48562769Y-56935500D01*
X48562753Y-56935499D01*
X48555157Y-56935499D01*
X48397043Y-56935499D01*
X48282497Y-56966192D01*
X48244314Y-56976423D01*
X48230960Y-56984134D01*
X48230957Y-56984135D01*
X48107390Y-57055475D01*
X48107382Y-57055481D01*
X45613281Y-59549582D01*
X45613275Y-59549590D01*
X45577545Y-59611478D01*
X45577545Y-59611480D01*
X45534223Y-59686514D01*
X45533289Y-59690000D01*
X45493299Y-59839243D01*
X45493299Y-59839245D01*
X45493299Y-60007346D01*
X45493300Y-60007359D01*
X45493300Y-61859730D01*
X45493299Y-61859748D01*
X45493299Y-62025454D01*
X45493298Y-62025454D01*
X45500499Y-62052328D01*
X45534223Y-62178185D01*
X45548386Y-62202715D01*
X45591648Y-62277649D01*
X45613279Y-62315115D01*
X45693483Y-62395319D01*
X45726968Y-62456642D01*
X45721984Y-62526334D01*
X45693483Y-62570681D01*
X45613381Y-62650782D01*
X45613380Y-62650784D01*
X45576251Y-62715094D01*
X45534323Y-62787715D01*
X45493399Y-62940443D01*
X45493399Y-62940445D01*
X45493399Y-63108546D01*
X45493400Y-63108559D01*
X45493400Y-64095730D01*
X45493399Y-64095748D01*
X45493399Y-64261454D01*
X45493398Y-64261454D01*
X45534323Y-64414186D01*
X45534324Y-64414187D01*
X45559321Y-64457483D01*
X45613380Y-64551116D01*
X45613382Y-64551118D01*
X45732249Y-64669985D01*
X45732254Y-64669989D01*
X45822583Y-64760319D01*
X45856068Y-64821641D01*
X45851084Y-64891333D01*
X45822584Y-64935680D01*
X45725086Y-65033178D01*
X45613281Y-65144982D01*
X45613277Y-65144987D01*
X45574780Y-65211668D01*
X45574780Y-65211669D01*
X45534223Y-65281914D01*
X45522664Y-65325052D01*
X45493299Y-65434643D01*
X45493299Y-65434645D01*
X45493299Y-65602746D01*
X45493300Y-65602759D01*
X45493300Y-74199230D01*
X45493299Y-74199248D01*
X45493299Y-74364954D01*
X45493298Y-74364954D01*
X45534223Y-74517685D01*
X45557431Y-74557883D01*
X45561323Y-74564623D01*
X45612679Y-74653575D01*
X45613279Y-74654614D01*
X45613281Y-74654617D01*
X45732149Y-74773485D01*
X45732155Y-74773490D01*
X45862783Y-74904118D01*
X45896268Y-74965441D01*
X45891284Y-75035133D01*
X45862784Y-75079480D01*
X45834596Y-75107668D01*
X45725086Y-75217178D01*
X45613281Y-75328982D01*
X45613279Y-75328984D01*
X45587662Y-75373357D01*
X45576147Y-75393301D01*
X45534223Y-75465915D01*
X45493299Y-75618643D01*
X45493299Y-75618645D01*
X45493299Y-75786746D01*
X45493300Y-75786759D01*
X45493300Y-79167230D01*
X45493299Y-79167248D01*
X45493299Y-79332954D01*
X45493298Y-79332954D01*
X45496618Y-79345344D01*
X45534223Y-79485685D01*
X45559508Y-79529480D01*
X45612982Y-79622100D01*
X45613281Y-79622617D01*
X45732149Y-79741485D01*
X45732155Y-79741490D01*
X45912983Y-79922318D01*
X45946468Y-79983641D01*
X45941484Y-80053333D01*
X45912983Y-80097680D01*
X45706886Y-80303778D01*
X45595081Y-80415582D01*
X45595079Y-80415585D01*
X45593635Y-80418086D01*
X45561161Y-80474334D01*
X45516023Y-80552515D01*
X45475099Y-80705243D01*
X45475099Y-80705245D01*
X45475099Y-80873346D01*
X45475100Y-80873359D01*
X45475100Y-84193130D01*
X45475099Y-84193148D01*
X45475099Y-84358854D01*
X45475098Y-84358854D01*
X45204500Y-84358854D01*
X45204500Y-51186711D01*
X46409500Y-51186711D01*
X46409500Y-51429288D01*
X46431822Y-51598849D01*
X46441162Y-51669789D01*
X46443223Y-51677480D01*
X46503947Y-51904104D01*
X46556928Y-52032011D01*
X46596776Y-52128212D01*
X46718064Y-52338289D01*
X46718066Y-52338292D01*
X46718067Y-52338293D01*
X46865733Y-52530736D01*
X46865739Y-52530743D01*
X47037256Y-52702260D01*
X47037263Y-52702266D01*
X47136203Y-52778185D01*
X47229711Y-52849936D01*
X47439788Y-52971224D01*
X47663900Y-53064054D01*
X47898211Y-53126838D01*
X48078586Y-53150584D01*
X48138711Y-53158500D01*
X48138712Y-53158500D01*
X48381289Y-53158500D01*
X48429388Y-53152167D01*
X48621789Y-53126838D01*
X48856100Y-53064054D01*
X49080212Y-52971224D01*
X49290289Y-52849936D01*
X49482738Y-52702265D01*
X49654265Y-52530738D01*
X49801936Y-52338289D01*
X49923224Y-52128212D01*
X50016054Y-51904100D01*
X50078838Y-51669789D01*
X50110500Y-51429288D01*
X50110500Y-51186712D01*
X50108130Y-51168713D01*
X50100285Y-51109118D01*
X50078838Y-50946211D01*
X50016054Y-50711900D01*
X49923224Y-50487788D01*
X49801936Y-50277711D01*
X49698215Y-50142539D01*
X49654266Y-50085263D01*
X49654260Y-50085256D01*
X49482743Y-49913739D01*
X49482736Y-49913733D01*
X49290293Y-49766067D01*
X49290292Y-49766066D01*
X49290289Y-49766064D01*
X49102389Y-49657580D01*
X49080214Y-49644777D01*
X49080205Y-49644773D01*
X48856104Y-49551947D01*
X48738944Y-49520554D01*
X48621789Y-49489162D01*
X48621788Y-49489161D01*
X48621785Y-49489161D01*
X48381289Y-49457500D01*
X48381288Y-49457500D01*
X48138712Y-49457500D01*
X48138711Y-49457500D01*
X47898214Y-49489161D01*
X47663895Y-49551947D01*
X47439794Y-49644773D01*
X47439785Y-49644777D01*
X47229706Y-49766067D01*
X47037263Y-49913733D01*
X47037256Y-49913739D01*
X46865739Y-50085256D01*
X46865733Y-50085263D01*
X46718067Y-50277706D01*
X46596777Y-50487785D01*
X46596773Y-50487794D01*
X46503947Y-50711895D01*
X46441161Y-50946214D01*
X46409500Y-51186711D01*
X45204500Y-51186711D01*
X45204500Y-49756427D01*
X45204816Y-49747581D01*
X45204816Y-49747580D01*
X45219130Y-49547436D01*
X45221646Y-49529938D01*
X45263356Y-49338199D01*
X45268333Y-49321248D01*
X45336911Y-49137385D01*
X45344259Y-49121298D01*
X45406815Y-49006734D01*
X45438291Y-48949089D01*
X45447845Y-48934221D01*
X45565448Y-48777123D01*
X45577020Y-48763769D01*
X45715769Y-48625020D01*
X45729123Y-48613448D01*
X45886221Y-48495845D01*
X45901089Y-48486291D01*
X46073298Y-48392258D01*
X46089385Y-48384911D01*
X46273248Y-48316333D01*
X46290199Y-48311356D01*
X46481938Y-48269646D01*
X46499436Y-48267130D01*
X46699582Y-48252816D01*
X46708428Y-48252500D01*
X46769892Y-48252500D01*
X121378108Y-48252500D01*
X121439572Y-48252500D01*
X121448418Y-48252816D01*
G37*
%TD.AperFunction*%
%TD*%
M02*
