M48
; DRILL file {KiCad 8.0.2} date 2025-03-07T16:53:27+0100
; FORMAT={-:-/ absolute / inch / decimal}
; #@! TF.CreationDate,2025-03-07T16:53:27+01:00
; #@! TF.GenerationSoftware,Kicad,Pcbnew,8.0.2
; #@! TF.FileFunction,Plated,1,2,PTH
FMAT,2
INCH
; #@! TA.AperFunction,Plated,PTH,ViaDrill
T1C0.0118
; #@! TA.AperFunction,Plated,PTH,ComponentDrill
T2C0.0394
; #@! TA.AperFunction,Plated,PTH,ComponentDrill
T3C0.0402
; #@! TA.AperFunction,Plated,PTH,ComponentDrill
T4C0.0433
; #@! TA.AperFunction,Plated,PTH,ComponentDrill
T5C0.1260
%
G90
G05
T1
X2.38Y-2.46
X2.38Y-2.76
X2.38Y-3.08
X2.38Y-3.39
X2.38Y-3.72
X2.391Y-2.2074
X2.47Y-2.46
X2.47Y-2.76
X2.47Y-3.08
X2.47Y-3.72
X2.48Y-3.39
X2.5025Y-3.5537
X2.503Y-2.2896
X2.555Y-3.2003
T2
X1.86Y-2.4
X1.86Y-2.5
X1.86Y-2.6
X1.86Y-2.7
X1.86Y-2.8
X1.86Y-2.9
X1.86Y-3.0
X1.86Y-3.1
X1.86Y-3.2
X1.86Y-3.3
X1.86Y-3.4
X1.86Y-3.5
X2.22Y-2.02
X2.32Y-2.02
X2.42Y-2.02
X2.52Y-2.02
X4.3Y-2.8005
X4.3Y-2.8902
X4.3Y-2.98
X4.3Y-3.0698
X4.3Y-3.1595
X4.4Y-2.7556
X4.4Y-2.8454
X4.4Y-2.9351
X4.4Y-3.0249
X4.4Y-3.1146
X4.5Y-2.8005
X4.5Y-2.8902
X4.5Y-2.98
X4.5Y-3.0698
X4.5Y-3.1595
T3
X3.0Y-2.0
X3.0Y-2.1
X3.0Y-2.2
X3.0Y-2.3
X3.0Y-2.4
X3.0Y-2.5
X3.0Y-2.6
X3.0Y-2.7
X3.0Y-2.8
X3.0Y-2.9
X3.0Y-3.0
X3.0Y-3.1
X3.0Y-3.2
X3.0Y-3.3
X3.0Y-3.4
X3.0Y-3.5
X3.0Y-3.6
X3.0Y-3.7
X3.0Y-3.8
X3.0Y-3.9
X3.25Y-3.8909
X3.35Y-3.8909
X3.45Y-3.8909
X3.7Y-2.0
X3.7Y-2.1
X3.7Y-2.2
X3.7Y-2.3
X3.7Y-2.4
X3.7Y-2.5
X3.7Y-2.6
X3.7Y-2.7
X3.7Y-2.8
X3.7Y-2.9
X3.7Y-3.0
X3.7Y-3.1
X3.7Y-3.2
X3.7Y-3.3
X3.7Y-3.4
X3.7Y-3.5
X3.7Y-3.6
X3.7Y-3.7
X3.7Y-3.8
X3.7Y-3.9
T4
X4.062Y-2.0314
X4.062Y-2.2086
X4.318Y-2.0314
X4.318Y-2.2086
T5
X4.4Y-2.4654
X4.4Y-3.4497
M30
